<?xml version="1.0" standalone="no"?>
<!DOCTYPE svg PUBLIC "-//W3C//DTD SVG 1.1//EN" "http://www.w3.org/Graphics/SVG/1.1/DTD/svg11.dtd" >
<svg>
<metadata>
Created by FontForge 20090914 at Tue Mar  2 17:56:50 2021
 By www-data
Copyright (c) 2011 by Glenjan. All rights reserved.
</metadata>
<defs>
<font id="RoadRadio" horiz-adv-x="659" >
  <font-face 
    font-family="RoadRadio"
    font-weight="400"
    font-stretch="normal"
    units-per-em="1000"
    panose-1="0 0 0 0 0 0 0 0 0 0"
    ascent="750"
    descent="-250"
    x-height="553"
    cap-height="553"
    bbox="-80.999 -272.002 1067 847"
    underline-thickness="50"
    underline-position="-50"
    unicode-range="U+0020-U+2212"
  />
<missing-glyph horiz-adv-x="329" 
d="M195 553c29.333 0 53.5 -8.83301 72.5 -26.5s28.5 -40.834 28.5 -69.501c0 -18.667 -4.16699 -35.167 -12.5 -49.5s-19.833 -25.166 -34.5 -32.499l37 -68h-59l-30 56h-91v-56h-56v246h145zM106 413h87c14 0 25.333 3.66699 34 11s13 18.333 13 33
c0 14 -4.33301 25.167 -13 33.5s-20 12.5 -34 12.5h-87v-90zM195 246c29.333 0 53.5 -8.83301 72.5 -26.5s28.5 -40.834 28.5 -69.501c0 -18.667 -4.16699 -35.167 -12.5 -49.5s-19.833 -25.166 -34.5 -32.499l37 -68h-59l-30 56h-91v-56h-56v246h145zM106 106h87
c14 0 25.333 3.66699 34 11s13 18.333 13 33c0 14 -4.33301 25.167 -13 33.5s-20 12.5 -34 12.5h-87v-90z" />
    <glyph glyph-name=".notdef" horiz-adv-x="329" 
d="M195 553c29.333 0 53.5 -8.83301 72.5 -26.5s28.5 -40.834 28.5 -69.501c0 -18.667 -4.16699 -35.167 -12.5 -49.5s-19.833 -25.166 -34.5 -32.499l37 -68h-59l-30 56h-91v-56h-56v246h145zM106 413h87c14 0 25.333 3.66699 34 11s13 18.333 13 33
c0 14 -4.33301 25.167 -13 33.5s-20 12.5 -34 12.5h-87v-90zM195 246c29.333 0 53.5 -8.83301 72.5 -26.5s28.5 -40.834 28.5 -69.501c0 -18.667 -4.16699 -35.167 -12.5 -49.5s-19.833 -25.166 -34.5 -32.499l37 -68h-59l-30 56h-91v-56h-56v246h145zM106 106h87
c14 0 25.333 3.66699 34 11s13 18.333 13 33c0 14 -4.33301 25.167 -13 33.5s-20 12.5 -34 12.5h-87v-90z" />
    <glyph glyph-name="space" unicode=" " horiz-adv-x="303" 
 />
    <glyph glyph-name="exclam" unicode="!" horiz-adv-x="228" 
d="M66 632h96v-447h-96v447zM114 139c20.667 0 38.5 -7.5 53.5 -22.5s22.5 -32.833 22.5 -53.5c0 -21.333 -7.5 -39.333 -22.5 -54s-32.833 -22 -53.5 -22c-21.333 0 -39.333 7.33301 -54 22s-22 32.667 -22 54c0 20.667 7.33301 38.5 22 53.5s32.667 22.5 54 22.5z" />
    <glyph glyph-name="quotedbl" unicode="&#x22;" horiz-adv-x="287" 
d="M125 553v-77l-13 -109h-77v186h90zM253 553v-77l-13 -109h-77v186h90z" />
    <glyph glyph-name="numbersign" unicode="#" horiz-adv-x="425" 
d="M106 262l7 55h-76v76h85l10 78h76l-10 -78h56l10 78h76l-10 -78h68v-76h-77l-7 -55h84v-76h-94l-8 -75h-76l8 75h-55l-9 -75h-76l9 75h-60v76h69zM182 262h56l7 55h-56z" />
    <glyph glyph-name="dollar" unicode="$" horiz-adv-x="640" 
d="M270 -12c-44 3.33301 -84.501 11.335 -121.501 24.002s-73.5 32 -109.5 58l48 78c38.667 -25.333 77.667 -43.833 117 -55.5s82.666 -17.5 129.999 -17.5c50 0 90.5 7.16699 121.5 21.5s46.5 35.833 46.5 64.5c0 21.333 -6.83301 37.333 -20.5 48s-35.5 17.667 -65.5 21
l-182 20c-27.333 3.33301 -51.833 8.5 -73.5 15.5s-40.167 16.5 -55.5 28.5s-27.166 26.667 -35.499 44s-12.5 38.333 -12.5 63c0 25.333 5.66699 47.666 17 66.999s26.666 35.666 45.999 48.999s42 23.833 68 31.5s53.667 12.834 83 15.501l4 69h91l3 -69
c38.667 -3.33301 75.167 -10.5 109.5 -21.5s68.5 -28.5 102.5 -52.5l-49 -72c-33.333 19.333 -67.166 33.666 -101.499 42.999s-74.166 14 -119.499 14c-30.667 0 -56 -2 -76 -6s-35.667 -9.33301 -47 -16s-19.333 -14.334 -24 -23.001s-7 -18 -7 -28
c0 -20.667 8 -34.5 24 -41.5s37 -12.167 63 -15.5l172 -20c57.333 -7.33301 102.333 -24 135 -50s49 -63.333 49 -112c0 -27.333 -5.5 -51.166 -16.5 -71.499s-26.5 -37.833 -46.5 -52.5s-44 -26.167 -72 -34.5s-59.333 -13.833 -94 -16.5l-5 -83h-91z" />
    <glyph glyph-name="uni0025" unicode="%" horiz-adv-x="769" 
d="M578 526l-319 -554l-74 34l320 554zM584 -12c-21.333 0 -41.333 3.66699 -60 11s-34.834 17.666 -48.501 30.999s-24.334 29.166 -32.001 47.499s-11.5 38.5 -11.5 60.5s3.83301 42 11.5 60s18.334 33.667 32.001 47s29.834 23.666 48.501 30.999s38.667 11 60 11
s41.166 -3.66699 59.499 -11s34.333 -17.666 48 -30.999s24.334 -29 32.001 -47s11.5 -38 11.5 -60s-3.83301 -42.167 -11.5 -60.5s-18.334 -34.166 -32.001 -47.499s-29.667 -23.666 -48 -30.999s-38.166 -11 -59.499 -11zM584 62c20.667 0 38.167 6.33301 52.5 19
s21.5 31.667 21.5 57c0 24.667 -7.16699 43.167 -21.5 55.5s-31.833 18.5 -52.5 18.5s-38.5 -6.16699 -53.5 -18.5s-22.5 -30.833 -22.5 -55.5c0 -25.333 7.5 -44.333 22.5 -57s32.833 -19 53.5 -19zM181 249c-21.333 0 -41.166 3.66699 -59.499 11
s-34.333 17.666 -48 30.999s-24.334 29 -32.001 47s-11.5 38 -11.5 60s3.83301 42.167 11.5 60.5s18.334 34 32.001 47s29.667 23.167 48 30.5s38.166 11 59.499 11c22 0 42.167 -3.66699 60.5 -11s34.333 -17.5 48 -30.5s24.334 -28.667 32.001 -47s11.5 -38.5 11.5 -60.5
s-3.83301 -42 -11.5 -60s-18.334 -33.667 -32.001 -47s-29.667 -23.666 -48 -30.999s-38.5 -11 -60.5 -11zM181 323c20.667 0 38.334 6.16699 53.001 18.5s22 31.166 22 56.499s-7.33301 44.166 -22 56.499s-32.334 18.5 -53.001 18.5s-38.5 -6.16699 -53.5 -18.5
s-22.5 -31.166 -22.5 -56.499s7.5 -44.166 22.5 -56.499s32.833 -18.5 53.5 -18.5z" />
    <glyph glyph-name="ampersand" unicode="&#x26;" horiz-adv-x="698" 
d="M650 270l-60.998 -14.001l60 -256h-55l-45 47c-36.667 -21.333 -74 -36.833 -112 -46.5s-78 -14.5 -120 -14.5c-36 0 -71.333 2.83301 -106 8.5s-66 16.167 -94 31.5c-24 14 -43.833 33 -59.5 57s-23.5 54 -23.5 90c0 60.667 29 104.334 87 131.001
c-16 10 -28.167 23.667 -36.5 41s-12.5 35.666 -12.5 54.999c0 24 4.16699 44.667 12.5 62s19.833 32 34.5 44c13.333 12 28.666 21.833 45.999 29.5s35.833 13.667 55.5 18s39.834 7.5 60.501 9.5s40.667 3 60 3c24 0 46.667 -1 68 -3s42 -5.5 62 -10.5s40 -11.5 60 -19.5
s40.667 -18 62 -30l-43 -75c-16.667 8.66699 -32.834 16 -48.501 22s-31.834 11 -48.501 15s-34.334 6.83301 -53.001 8.5s-39 2.5 -61 2.5c-57.333 0 -99.166 -6.16699 -125.499 -18.5s-39.5 -32.166 -39.5 -59.499c0 -39.333 20.333 -59 61 -59h415v-69zM312.002 74.999
c38.667 0 74.5 3.99902 107.5 11.999s65.833 20.333 98.5 37l-30 128h-255c-32.667 0 -57 -7 -73 -21s-24 -32 -24 -54c0 -35.333 15.833 -61.166 47.5 -77.499s74.5 -24.5 128.5 -24.5z" />
    <glyph glyph-name="quotesingle" unicode="'" horiz-adv-x="161" 
d="M125 553v-77l-13 -109h-77v186h90z" />
    <glyph glyph-name="parenleft" unicode="(" horiz-adv-x="223" 
d="M191 581c-15.333 -48 -26.835 -97.833 -34.502 -149.5s-11.5 -103.5 -11.5 -155.5s3.83301 -103.833 11.5 -155.5s19.167 -101.5 34.5 -149.5l-82 -21c-22.667 56.667 -38 113.167 -46 169.5s-12 108.833 -12 157.5c0 24 1 49.5 3 76.5s5.33301 54.667 10 83
s10.834 56.5 18.501 84.5s16.834 54.667 27.501 80z" />
    <glyph glyph-name="parenright" unicode=")" horiz-adv-x="223" 
d="M115 601c10.667 -25.333 19.832 -52 27.499 -80s13.834 -56.167 18.501 -84.5s8 -56 10 -83s3 -52.5 3 -76.5c0 -48.667 -4 -101.167 -12 -157.5s-23.333 -112.833 -46 -169.5l-82 21c15.333 48 27 97.833 35 149.5s12 103.5 12 155.5s-4 103.833 -12 155.5
s-19.667 101.5 -35 149.5z" />
    <glyph glyph-name="asterisk" unicode="*" horiz-adv-x="358" 
d="M148 592h62l6 -87l76 40l31 -55l-72 -47l72 -46l-31 -56l-76 41l-7 -87h-61l-6 87l-76 -41l-32 55l74 47l-74 47l32 55l76 -40z" />
    <glyph glyph-name="plus" unicode="+" horiz-adv-x="418" 
d="M162 327v129h93v-129h128v-85h-128v-125h-93v125h-127v85h127z" />
    <glyph glyph-name="comma" unicode="," horiz-adv-x="226" 
d="M81 -2c-13.333 5.33301 -24.166 14 -32.499 26s-12.5 26 -12.5 42c0 20 6.83301 37.667 20.5 53s33.167 23 58.5 23c19.333 0 36.666 -6.83301 51.999 -20.5s23 -32.5 23 -56.5c0 -10 -1.66699 -20 -5 -30l-58 -146l-62 15z" />
    <glyph glyph-name="hyphen" unicode="-" horiz-adv-x="395" 
d="M355 327v-89h-315v89h315z" />
    <glyph glyph-name="period" unicode="." horiz-adv-x="235" 
d="M117 143c22 0 40.667 -7.66699 56 -23s23 -33.666 23 -54.999s-7.66699 -39.166 -23 -53.499s-34 -21.5 -56 -21.5c-21.333 0 -39.5 7.16699 -54.5 21.5s-22.5 32.166 -22.5 53.499s7.5 39.666 22.5 54.999s33.167 23 54.5 23z" />
    <glyph glyph-name="slash" unicode="/" horiz-adv-x="330" 
d="M309 568l-207 -607l-84 26l204 606z" />
    <glyph glyph-name="zero" unicode="0" horiz-adv-x="667" 
d="M138 276c0 -64 17.5 -113.667 52.5 -149s82.833 -53 143.5 -53s108.5 17.667 143.5 53s52.5 85 52.5 149s-17.5 113.667 -52.5 149s-82.833 53 -143.5 53s-108.5 -17.667 -143.5 -53s-52.5 -85 -52.5 -149zM630 276c0 -45.333 -7.66699 -86 -23 -122
s-36.333 -66.5 -63 -91.5s-58 -44 -94 -57s-74.667 -19.5 -116 -19.5s-80.166 6.5 -116.499 19.5s-67.833 32 -94.5 57s-47.667 55.5 -63 91.5s-23 76.667 -23 122s7.66699 86 23 122s36.333 66.5 63 91.5s58.167 44 94.5 57s75.166 19.5 116.499 19.5s80 -6.5 116 -19.5
s67.333 -32 94 -57s47.667 -55.5 63 -91.5s23 -76.667 23 -122z" />
    <glyph glyph-name="one" unicode="1" horiz-adv-x="289" 
d="M236 553v-553h-101v462h-106v91h207z" />
    <glyph glyph-name="two" unicode="2" horiz-adv-x="583" 
d="M530 0l-476.001 0.00195312v103l334 192c18.667 10.667 32.667 22.667 42 36s14 29.333 14 48c0 30 -12.5 53.333 -37.5 70s-63.5 25 -115.5 25c-40 0 -74.5 -6.33301 -103.5 -19s-57.167 -31.334 -84.5 -56.001l-61 65c36.667 36.667 76 62.834 118 78.501
s87 23.5 135 23.5c36 0 69.333 -3.83301 100 -11.5s57 -19.167 79 -34.5s39.167 -34.833 51.5 -58.5s18.5 -51.834 18.5 -84.501c0 -32 -8.66699 -60.833 -26 -86.5s-42.666 -47.834 -75.999 -66.501l-238 -133h326v-91z" />
    <glyph glyph-name="three" unicode="3" horiz-adv-x="624" 
d="M385 345c42.667 0 63.998 19.001 63.998 57.001c0 25.333 -11.667 44.166 -35 56.499s-62.333 18.5 -117 18.5c-19.333 0 -37.333 -1 -54 -3s-32.667 -5.33301 -48 -10s-30.333 -10.667 -45 -18s-29.667 -16 -45 -26l-46 72c40.667 28.667 79.5 48.167 116.5 58.5
s77.167 15.5 120.5 15.5c39.333 0 74.333 -3 105 -9s58.334 -17 83.001 -33c21.333 -13.333 37.833 -29.833 49.5 -49.5s17.5 -43.5 17.5 -71.5c0 -42 -18.333 -73.333 -55 -94c30.667 -10.667 53.5 -27.167 68.5 -49.5s22.5 -49.5 22.5 -81.5
c0 -28 -6.16699 -53.5 -18.5 -76.5s-30.166 -43.167 -53.499 -60.5c-26 -20 -57.333 -34.167 -94 -42.5s-80 -12.5 -130 -12.5s-96.333 6.16699 -139 18.5s-83 32.5 -121 60.5l49 78c18 -12 35.333 -22.167 52 -30.5s33.5 -15.166 50.5 -20.499s34.833 -9.33301 53.5 -12
s39.334 -4 62.001 -4c62.667 0 109.667 8.33301 141 25s47 43 47 79c0 23.333 -6.83301 42.166 -20.5 56.499s-38.834 21.5 -75.501 21.5h-193v87h188z" />
    <glyph glyph-name="four" unicode="4" horiz-adv-x="637" 
d="M539 553v-373h61v-89h-61v-91h-100v91h-406v91l320 371h186zM157 180h282v282h-46z" />
    <glyph glyph-name="five" unicode="5" horiz-adv-x="606" 
d="M78 254l15.002 298.998h434v-91h-340l-8 -120c24 9.33301 47.667 15.833 71 19.5s51.666 5.5 84.999 5.5c74 0 131.5 -16 172.5 -48s61.5 -77.333 61.5 -136c0 -34 -6.66699 -63.333 -20 -88s-32.166 -45 -56.499 -61s-53.333 -27.833 -87 -35.5
s-70.834 -11.5 -111.501 -11.5c-54 0 -102 5.5 -144 16.5s-83.333 30.167 -124 57.5l46 80c19.333 -11.333 37.666 -21 54.999 -29s35 -14.5 53 -19.5s37 -8.66699 57 -11s42.333 -3.5 67 -3.5c58 0 99.833 9.83301 125.5 29.5s38.5 44.834 38.5 75.501
c0 32.667 -12.5 56.834 -37.5 72.501s-63.833 23.5 -116.5 23.5c-28 0 -54.5 -2.66699 -79.5 -8s-49.167 -13 -72.5 -23z" />
    <glyph glyph-name="six" unicode="6" horiz-adv-x="631" 
d="M532 433c-16 8 -31.499 14.8311 -46.499 20.498s-30 10.334 -45 14.001s-30.5 6.16699 -46.5 7.5s-33.667 2 -53 2c-53.333 0 -96.833 -12.667 -130.5 -38s-54.167 -65 -61.5 -119c16.667 7.33301 32.5 13.5 47.5 18.5s30.333 9.16699 46 12.5s32 5.83301 49 7.5
s35.5 2.5 55.5 2.5c32 0 62.667 -3.33301 92 -10s55.166 -17.334 77.499 -32.001s40 -33.667 53 -57s19.5 -52 19.5 -86c0 -29.333 -6.33301 -55.666 -19 -78.999s-30.5 -43.166 -53.5 -59.499s-50.667 -29 -83 -38s-68.166 -13.5 -107.499 -13.5
c-46.667 0 -87.334 7 -122.001 21s-63.5 33.667 -86.5 59s-40.167 55.833 -51.5 91.5s-17 75.5 -17 119.5c0 42 7 80.667 21 116s33.833 65.833 59.5 91.5s56.5 45.667 92.5 60s75.667 21.5 119 21.5c44 0 84.5 -4.16699 121.5 -12.5s73.5 -22.5 109.5 -42.5z
M148.001 237.998c4.66699 -56 21.3311 -96.834 49.998 -122.501s75.334 -38.5 140.001 -38.5c51.333 0 89.5 8.66699 114.5 26s37.5 42 37.5 74c0 34 -12.333 58.167 -37 72.5s-65 21.5 -121 21.5c-18 0 -34.833 -0.666992 -50.5 -2s-30.667 -3.33301 -45 -6
s-28.666 -6.16699 -42.999 -10.5s-29.5 -9.16602 -45.5 -14.499z" />
    <glyph glyph-name="seven" unicode="7" horiz-adv-x="570" 
d="M136 0l287 462h-387v91h502v-87l-284 -466h-118z" />
    <glyph glyph-name="eight" unicode="8" horiz-adv-x="648" 
d="M324 566c44.667 0 82.5029 -4.16992 113.503 -12.5029s56 -19.5 75 -33.5s32.833 -30.333 41.5 -49s13 -38.334 13 -59.001c0 -23.333 -5 -44.333 -15 -63s-24.667 -32.667 -44 -42c33.333 -11.333 58.5 -28.666 75.5 -51.999s25.5 -53.666 25.5 -90.999
c0 -57.333 -24.833 -101.333 -74.5 -132s-119.834 -46 -210.501 -46s-160.834 14.833 -210.501 44.5s-74.5 74.834 -74.5 135.501c0 30 9 58.167 27 84.5s42 44.833 72 55.5c-18.667 11.333 -32.834 25 -42.501 41s-14.5 36.333 -14.5 61c0 28.667 6.66699 53 20 73
s31.333 36.333 54 49s48.5 21.834 77.5 27.501s59.5 8.5 91.5 8.5zM217.003 262.997c-27.333 -7.33301 -46.832 -19.332 -58.499 -35.999s-17.5 -34.667 -17.5 -54c0 -28.667 14 -52.167 42 -70.5s75 -27.5 141 -27.5c63.333 0 109.666 8.5 138.999 25.5s44 39.833 44 68.5
c0 41.333 -23.667 64.666 -71 69.999zM428.004 332.998c14.667 10 24.833 20.668 30.5 32.001s8.5 23.666 8.5 36.999c0 25.333 -10.833 44.333 -32.5 57s-58.5 19 -110.5 19c-29.333 0 -53.166 -1.66699 -71.499 -5s-32.833 -8.16602 -43.5 -14.499s-18 -13.833 -22 -22.5
s-6 -18.334 -6 -29.001c0 -18 6.16699 -31 18.5 -39s31.166 -13.667 56.499 -17z" />
    <glyph glyph-name="nine" unicode="9" horiz-adv-x="631" 
d="M102 117c16 -8 31.498 -14.668 46.498 -20.001s30 -9.5 45 -12.5s30.667 -5.16699 47 -6.5s34.166 -2 53.499 -2c54.667 0 98.334 12.667 131.001 38s52.667 64.666 60 117.999c-16.667 -7.33301 -32.5 -13.666 -47.5 -18.999s-30.333 -9.83301 -46 -13.5
s-31.834 -6.5 -48.501 -8.5s-35 -3 -55 -3c-33.333 0 -64.666 3.33301 -93.999 10s-55 17.334 -77 32.001s-39.5 33.834 -52.5 57.501s-19.5 52.167 -19.5 85.5c0 29.333 6.16699 55.833 18.5 79.5s30 44 53 61s50.833 30 83.5 39s69 13.5 109 13.5
c46.667 0 87.334 -6.83301 122.001 -20.5s63.334 -33.167 86.001 -58.5s39.667 -55.833 51 -91.5s17 -75.834 17 -120.501c0 -42 -6.83301 -80.667 -20.5 -116s-33.167 -65.833 -58.5 -91.5s-56 -45.667 -92 -60s-76 -21.5 -120 -21.5
c-44.667 0 -85.167 3.83301 -121.5 11.5s-72.833 21.167 -109.5 40.5zM485.998 314.999c-4.66699 55.333 -21 96 -49 122s-74.333 39 -139 39c-51.333 0 -89.666 -9.33301 -114.999 -28s-38 -44 -38 -76c0 -34 12.333 -58.167 37 -72.5s64.667 -21.5 120 -21.5
c18 0 34.833 0.833008 50.5 2.5s30.667 4 45 7s28.666 6.83301 42.999 11.5s29.5 10 45.5 16z" />
    <glyph glyph-name="colon" unicode=":" horiz-adv-x="228" 
d="M115 432c20.667 0 38.334 -7.16699 53.001 -21.5s22 -31.833 22 -52.5c0 -21.333 -7.33301 -39.166 -22 -53.499s-32.334 -21.5 -53.001 -21.5c-21.333 0 -39.333 7.16699 -54 21.5s-22 32.166 -22 53.499c0 20.667 7.33301 38.167 22 52.5s32.667 21.5 54 21.5zM115 138
c20.667 0 38.334 -7.33301 53.001 -22s22 -32.334 22 -53.001c0 -21.333 -7.33301 -38.666 -22 -51.999s-32.334 -20 -53.001 -20c-21.333 0 -39.333 6.66699 -54 20s-22 30.666 -22 51.999c0 20.667 7.33301 38.334 22 53.001s32.667 22 54 22z" />
    <glyph glyph-name="semicolon" unicode=";" horiz-adv-x="228" 
d="M113 432c20.667 0 38.334 -7.16699 53.001 -21.5s22 -31.833 22 -52.5c0 -21.333 -7.33301 -39.166 -22 -53.499s-32.334 -21.5 -53.001 -21.5c-21.333 0 -39.333 7.16699 -54 21.5s-22 32.166 -22 53.499c0 20.667 7.33301 38.167 22 52.5s32.667 21.5 54 21.5zM117 138
c20 0 37.333 -7.49902 52 -22.499s22 -32.833 22 -53.5c0 -8.66699 -2 -17.334 -6 -26.001l-55 -146l-62 14l17 89c-14 5.33301 -25 14.5 -33 27.5s-12 26.833 -12 41.5c0 20.667 7.5 38.5 22.5 53.5s33.167 22.5 54.5 22.5z" />
    <glyph glyph-name="less" unicode="&#x3c;" horiz-adv-x="284" 
d="M254 387l-99 -117l99 -116l-54 -53l-173 169l173 169z" />
    <glyph glyph-name="equal" unicode="=" horiz-adv-x="386" 
d="M346 389v-84h-305v84h305zM346 247v-83h-305v83h305z" />
    <glyph glyph-name="greater" unicode="&#x3e;" horiz-adv-x="284" 
d="M257 270l-174 -169l-53 53l99 116l-99 117l53 52z" />
    <glyph glyph-name="question" unicode="?" horiz-adv-x="575" 
d="M287 141c21.333 0 39.5 -7.5 54.5 -22.5s22.5 -33.167 22.5 -54.5s-7.5 -38.833 -22.5 -52.5s-33.167 -20.5 -54.5 -20.5s-39.5 6.83301 -54.5 20.5s-22.5 31.167 -22.5 52.5s7.5 39.5 22.5 54.5s33.167 22.5 54.5 22.5zM236 248c0 21.333 6.66406 42.499 19.9971 63.499
s35 36.167 65 45.5l40 12c28 8.66699 49.5 20.5 64.5 35.5s22.5 34.167 22.5 57.5c0 32.667 -12.167 56.667 -36.5 72s-62.166 23 -113.499 23c-47.333 0 -87.5 -6 -120.5 -18s-64.5 -31.333 -94.5 -58l-49 70c36.667 34.667 77.334 59.5 122.001 74.5s91.667 22.5 141 22.5
c37.333 0 71.5 -3.5 102.5 -10.5s57.833 -18.167 80.5 -33.5s40.167 -35.166 52.5 -59.499s18.5 -53.833 18.5 -88.5c0 -39.333 -12.667 -73.5 -38 -102.5s-59.333 -50.167 -102 -63.5l-38 -11c-13.333 -4 -22.666 -10.833 -27.999 -20.5s-8 -19.5 -8 -29.5v-40h-101v59z
" />
    <glyph glyph-name="at" unicode="@" horiz-adv-x="705" 
d="M429 351c-10.667 7.33301 -22.667 12.5 -36 15.5s-26.666 4.5 -39.999 4.5c-24.667 0 -44.167 -7.33301 -58.5 -22s-21.5 -34 -21.5 -58c0 -25.333 8 -44.333 24 -57s34 -19 54 -19c19.333 0 37.166 5.83301 53.499 17.5s24.5 30.167 24.5 55.5v63zM510 272
c0 -16 2.32715 -28.5 6.99414 -37.5s13.334 -13.5 26.001 -13.5c15.333 0 26.833 7 34.5 21s11.5 30.667 11.5 50c0 33.333 -4.66699 64 -14 92s-23.833 52 -43.5 72s-44.167 35.667 -73.5 47s-64 17 -104 17c-34.667 0 -66.167 -5.16699 -94.5 -15.5
s-52.666 -25.333 -72.999 -45s-36.166 -43.5 -47.499 -71.5s-17 -59.333 -17 -94s5.83301 -66.334 17.5 -95.001s28.167 -53.167 49.5 -73.5s47.333 -36 78 -47s65 -16.5 103 -16.5c56.667 0 108.667 12 156 36l32 -59c-28 -19.333 -57.167 -33 -87.5 -41
s-64.166 -12 -101.499 -12c-51.333 0 -97.5 7.33301 -138.5 22s-75.833 35.5 -104.5 62.5s-50.5 59.5 -65.5 97.5s-22.5 80 -22.5 126c0 46.667 8.33301 88.834 25 126.501s39.167 69.5 67.5 95.5s61.666 46 99.999 60s79.5 21 123.5 21c48.667 0 92.5 -7.5 131.5 -22.5
s72.167 -36 99.5 -63s48.166 -59.167 62.499 -96.5s21.5 -78.333 21.5 -123c0 -18.667 -2.83301 -37 -8.5 -55s-13.667 -34.167 -24 -48.5s-23.166 -25.833 -38.499 -34.5s-32.666 -13 -51.999 -13s-36.5 4 -51.5 12s-27.167 19.333 -36.5 34
c-15.333 -15.333 -32.166 -27.333 -50.499 -36s-37.833 -13 -58.5 -13c-22.667 0 -43.667 3.5 -63 10.5s-36.166 17.167 -50.499 30.5s-25.5 29.5 -33.5 48.5s-12 40.167 -12 63.5s4.16699 44.5 12.5 63.5s19.666 35.333 33.999 49s31.333 24.167 51 31.5
s40.834 11 63.501 11c33.333 0 62.333 -4.83301 87 -14.5s48.667 -25.167 72 -46.5v-113z" />
    <glyph glyph-name="A" unicode="A" horiz-adv-x="735" 
d="M218 177h298l-116 285h-63zM467 553l235 -553h-107l-38 87h-377l-38 -87h-109l242 553h192z" />
    <glyph glyph-name="B" unicode="B" horiz-adv-x="648" 
d="M406 553c24.667 0 47.499 -3.33203 68.499 -9.99902s38.833 -16.334 53.5 -29.001s26.167 -27.667 34.5 -45s12.5 -37 12.5 -59c0 -46 -15.667 -79.667 -47 -101c27.333 -12 48.5 -29.833 63.5 -53.5s22.5 -52.167 22.5 -85.5c0 -23.333 -4.5 -45.333 -13.5 -66
s-21.5 -38.667 -37.5 -54s-35.167 -27.5 -57.5 -36.5s-47.166 -13.5 -74.499 -13.5h-378v553h353zM154.999 333.001l260.001 -0.000976562c19.333 0 34.333 6.5 45 19.5s16 27.5 16 43.5c0 8.66699 -1.16699 16.834 -3.5 24.501s-6.5 14.5 -12.5 20.5
s-13.833 10.833 -23.5 14.5s-21.834 5.5 -36.501 5.5h-245v-128zM155 92l271.999 0.000976562c29.333 0 51.333 7.5 66 22.5s22 33.167 22 54.5c0 23.333 -7.16699 41.666 -21.5 54.999s-33.166 20 -56.499 20h-282v-152z" />
    <glyph glyph-name="C" unicode="C" 
d="M542 381c-22 30 -48.8359 53.166 -80.5029 69.499s-70.5 24.5 -116.5 24.5c-31.333 0 -59.5 -4.66699 -84.5 -14s-46.333 -22.666 -64 -39.999s-31.334 -38.333 -41.001 -63s-14.5 -52 -14.5 -82c0 -29.333 5 -56.166 15 -80.499s24 -45.333 42 -63
s39.5 -31.334 64.5 -41.001s52.5 -14.5 82.5 -14.5c46 0 84.5 8.16699 115.5 24.5s58.167 39.833 81.5 70.5l80 -47c-29.333 -44.667 -66.666 -79 -111.999 -103s-99.666 -36 -162.999 -36c-44 0 -84.667 6.66699 -122 20s-69.833 32.5 -97.5 57.5s-49.167 55.5 -64.5 91.5
s-23 76.333 -23 121s7.83301 85 23.5 121s37.334 66.5 65.001 91.5s60.167 44.167 97.5 57.5s77.666 20 120.999 20c62.667 0 116.834 -11.833 162.501 -35.5s82.834 -58.167 111.501 -103.5z" />
    <glyph glyph-name="D" unicode="D" horiz-adv-x="670" 
d="M332 553c38.667 0 76 -6.5 112 -19.5s67.833 -31.5 95.5 -55.5s49.667 -53 66 -87s24.5 -72 24.5 -114s-8.33301 -80.167 -25 -114.5s-38.667 -63.5 -66 -87.5s-59 -42.5 -95 -55.5s-73.333 -19.5 -112 -19.5h-279v553h279zM155 93h175c29.333 0 56.166 4.5 80.499 13.5
s45.166 21.5 62.499 37.5s30.833 35.333 40.5 58s14.5 47.667 14.5 75s-4.83301 52.333 -14.5 75s-23.167 42 -40.5 58s-38.166 28.5 -62.499 37.5s-51.166 13.5 -80.499 13.5h-175v-368z" />
    <glyph glyph-name="E" unicode="E" horiz-adv-x="608" 
d="M548 553v-92h-393v-133h354v-91h-354v-144h408v-93h-510v553h495z" />
    <glyph glyph-name="F" unicode="F" horiz-adv-x="590" 
d="M53 553h499v-92h-397v-147h353v-91h-353v-223h-102v553z" />
    <glyph glyph-name="G" unicode="G" horiz-adv-x="689" 
d="M633 314v-314.001h-65l-15 51c-27.333 -21.333 -56.833 -37.5 -88.5 -48.5s-70.5 -16.5 -116.5 -16.5c-44 0 -84.833 6.66699 -122.5 20s-70.167 32.5 -97.5 57.5s-48.833 55.5 -64.5 91.5s-23.5 76.333 -23.5 121s7.83301 85 23.5 121s37.334 66.5 65.001 91.5
s60.334 44.167 98.001 57.5s78.167 20 121.5 20c62.667 0 116 -11.167 160 -33.5s81.333 -55.5 112 -99.5l-80 -46c-23.333 29.333 -49.833 51 -79.5 65s-68.167 21 -115.5 21c-31.333 0 -59.5 -4.66699 -84.5 -14s-46.333 -22.5 -64 -39.5s-31.334 -37.667 -41.001 -62
s-14.5 -51.5 -14.5 -81.5s5 -57 15 -81s24 -44.667 42 -62s39.5 -30.666 64.5 -39.999s52.5 -14 82.5 -14c44.667 0 81.667 5.33301 111 16s55.666 27 78.999 49v81l-146 6v83h244z" />
    <glyph glyph-name="H" unicode="H" horiz-adv-x="665" 
d="M155 553v-221h355v221h101v-553h-101v241h-355v-241h-102v553h102z" />
    <glyph glyph-name="I" unicode="I" horiz-adv-x="208" 
d="M155 553v-553h-102v553h102z" />
    <glyph glyph-name="J" unicode="J" horiz-adv-x="597" 
d="M543 553v-313.999c0 -35.333 -5.16699 -68.333 -15.5 -99s-26.166 -57.5 -47.499 -80.5s-48.833 -41 -82.5 -54s-73.834 -19.5 -120.501 -19.5c-57.333 0 -107.5 12.5 -150.5 37.5s-76.167 60.833 -99.5 107.5l87 45c15.333 -32.667 38 -57.334 68 -74.001
s61.333 -25 94 -25c32 0 58.833 4 80.5 12s39 19.5 52 34.5s22.167 33.167 27.5 54.5s8 45 8 71v304h99z" />
    <glyph glyph-name="K" unicode="K" horiz-adv-x="647" 
d="M154 553v-214h193l146 214h117l-176 -256l190 -297h-120l-154 247h-196v-247h-101v553h101z" />
    <glyph glyph-name="L" unicode="L" horiz-adv-x="581" 
d="M155 553v-461h398v-92h-500v553h102z" />
    <glyph glyph-name="M" unicode="M" horiz-adv-x="836" 
d="M201 553l216 -435h5l217 435h144v-553h-101v427h-10l-210 -427h-91l-209 427h-11v-427h-98v553h148z" />
    <glyph glyph-name="N" unicode="N" horiz-adv-x="676" 
d="M155 553l367 -411v411h101v-553h-103l-367 413v-413h-100v553h102z" />
    <glyph glyph-name="O" unicode="O" horiz-adv-x="701" 
d="M143 276c0 -32 5.33301 -60.5 16 -85.5s25.334 -46.167 44.001 -63.5s40.5 -30.5 65.5 -39.5s52.167 -13.5 81.5 -13.5s56.666 4.5 81.999 13.5s47.333 22.167 66 39.5s33.334 38.5 44.001 63.5s16 53.5 16 85.5s-5.33301 60.5 -16 85.5s-25.334 46.167 -44.001 63.5
s-40.667 30.5 -66 39.5s-52.666 13.5 -81.999 13.5s-56.5 -4.5 -81.5 -13.5s-46.833 -22.167 -65.5 -39.5s-33.334 -38.5 -44.001 -63.5s-16 -53.5 -16 -85.5zM659 276c0 -44 -8 -83.833 -24 -119.5s-38 -66.167 -66 -91.5s-60.833 -44.833 -98.5 -58.5
s-77.834 -20.5 -120.501 -20.5s-82.834 6.83301 -120.501 20.5s-70.5 33.167 -98.5 58.5s-50 55.833 -66 91.5s-24 75.5 -24 119.5s8 83.833 24 119.5s38 66.167 66 91.5s60.833 44.833 98.5 58.5s77.834 20.5 120.501 20.5s82.834 -6.83301 120.501 -20.5
s70.5 -33.167 98.5 -58.5s50 -55.833 66 -91.5s24 -75.5 24 -119.5z" />
    <glyph glyph-name="P" unicode="P" horiz-adv-x="638" 
d="M378 553c32 0 61.667 -5.16699 89 -15.5s51 -24.833 71 -43.5s35.833 -41.167 47.5 -67.5s17.5 -55.5 17.5 -87.5s-5.83301 -61 -17.5 -87s-27.5 -48.167 -47.5 -66.5s-43.667 -32.5 -71 -42.5s-57 -15 -89 -15h-223v-128h-102v553h325zM155 221h219
c38 0 68.833 10.333 92.5 31s35.5 49.667 35.5 87c0 38 -11.833 67.667 -35.5 89s-54.5 32 -92.5 32h-219v-239z" />
    <glyph glyph-name="Q" unicode="Q" horiz-adv-x="701" 
d="M581 -32l-62.002 61.999c-48.667 -29.333 -105 -44 -169 -44c-42.667 0 -82.834 6.83301 -120.501 20.5s-70.5 33.167 -98.5 58.5s-50 55.833 -66 91.5s-24 75.5 -24 119.5s8 83.833 24 119.5s38 66.167 66 91.5s60.833 44.833 98.5 58.5s77.834 20.5 120.501 20.5
s82.834 -6.83301 120.501 -20.5s70.5 -33.167 98.5 -58.5s50 -55.833 66 -91.5s24 -75.5 24 -119.5c0 -37.333 -5.66699 -71.666 -17 -102.999s-27.666 -59.333 -48.999 -84l55 -54zM523.998 158.999c10.667 15.333 19 32.833 25 52.5s9 41.167 9 64.5
c0 32 -5.33301 60.5 -16 85.5s-25.334 46.167 -44.001 63.5s-40.667 30.5 -66 39.5s-52.666 13.5 -81.999 13.5s-56.5 -4.5 -81.5 -13.5s-46.833 -22.167 -65.5 -39.5s-33.334 -38.5 -44.001 -63.5s-16 -53.5 -16 -85.5s5.33301 -60.5 16 -85.5s25.334 -46.167 44.001 -63.5
s40.5 -30.5 65.5 -39.5s52.167 -13.5 81.5 -13.5c38 0 71.667 8 101 24l-56 56l67 67z" />
    <glyph glyph-name="R" unicode="R" horiz-adv-x="638" 
d="M378 553c32 0 61.667 -5.16602 89 -15.499s51 -24.833 71 -43.5s35.833 -41.167 47.5 -67.5s17.5 -55.5 17.5 -87.5c0 -44 -10.5 -81.833 -31.5 -113.5s-48.833 -55.834 -83.5 -72.501l87 -153h-111l-70 128h-239v-128h-102v553h325zM155 221.001h219
c38 0 68.833 10.333 92.5 31s35.5 49.667 35.5 87c0 38 -11.833 67.667 -35.5 89s-54.5 32 -92.5 32h-219v-239z" />
    <glyph glyph-name="S" unicode="S" horiz-adv-x="640" 
d="M532 415c-33.333 21.333 -67.1689 36.833 -101.502 46.5s-74.166 14.5 -119.499 14.5c-30.667 0 -56 -2 -76 -6s-35.667 -9.5 -47 -16.5s-19.333 -14.833 -24 -23.5s-7 -18 -7 -28c0 -20.667 8 -34.834 24 -42.501s37 -13.167 63 -16.5l172 -20
c57.333 -7.33301 102.333 -23.833 135 -49.5s49 -62.834 49 -111.501c0 -30 -6.83301 -56.167 -20.5 -78.5s-32.834 -40.666 -57.501 -54.999s-54.334 -25 -89.001 -32s-72.667 -10.5 -114 -10.5c-55.333 0 -105.166 6.33301 -149.499 19s-87.833 34.334 -130.5 65.001
l48 79c38.667 -26 77.334 -44.833 116.001 -56.5s82.334 -17.5 131.001 -17.5c50 0 90.5 7 121.5 21s46.5 35.333 46.5 64c0 39.333 -28.667 62 -86 68l-182 20c-54.667 6.66699 -97.834 21.5 -129.501 44.5s-47.5 59.167 -47.5 108.5c0 28 6.66699 52.5 20 73.5
s31.5 38.167 54.5 51.5s50 23.333 81 30s63.833 10 98.5 10c50 0 96.833 -5.16699 140.5 -15.5s86.834 -30.5 129.501 -60.5z" />
    <glyph glyph-name="T" unicode="T" horiz-adv-x="632" 
d="M602 553v-92h-235v-461h-102v461h-235v92h572z" />
    <glyph glyph-name="U" unicode="U" 
d="M150 553l0.000976562 -283c0 -59.333 14.333 -106.5 43 -141.5s74 -52.5 136 -52.5s107.5 17.5 136.5 52.5s43.5 82.167 43.5 141.5v283h101v-282c0 -46 -6.5 -86.667 -19.5 -122s-31.833 -65 -56.5 -89s-54.334 -42.333 -89.001 -55s-73.334 -19 -116.001 -19
c-43.333 0 -82.166 6.33301 -116.499 19s-63.833 31 -88.5 55s-43.5 53.667 -56.5 89s-19.5 76 -19.5 122v282h102z" />
    <glyph glyph-name="V" unicode="V" horiz-adv-x="713" 
d="M142 553l195 -461h40l195 461h111l-244 -553h-166l-243 553h112z" />
    <glyph glyph-name="W" unicode="W" horiz-adv-x="1012" 
d="M138 553l151 -464h17l131 464h134l135 -464h17l153 464h106l-197 -553h-152l-124 443h-12l-124 -443h-150l-193 553h108z" />
    <glyph glyph-name="X" unicode="X" horiz-adv-x="671" 
d="M159 553l153 -223h47l153 223h116l-186 -262l201 -291h-118l-163 238h-53l-164 -238h-118l203 288l-187 265h116z" />
    <glyph glyph-name="Y" unicode="Y" horiz-adv-x="686" 
d="M146 553l194 -314h12l188 314h116l-263 -415v-138h-100v138l-263 415h116z" />
    <glyph glyph-name="Z" unicode="Z" horiz-adv-x="608" 
d="M558 553v-89l-388 -377l184 4h214v-91h-528v91l394 374l-172 -3h-211v91h507z" />
    <glyph glyph-name="bracketleft" unicode="[" horiz-adv-x="218" 
d="M201 652v-79h-61v-595h61v-79h-161v753h161z" />
    <glyph glyph-name="backslash" unicode="\" horiz-adv-x="330" 
d="M105 593l204 -606l-84 -26l-207 607z" />
    <glyph glyph-name="bracketright" unicode="]" horiz-adv-x="218" 
d="M178 652v-753h-161v80h61v594h-61v79h161z" />
    <glyph glyph-name="asciicircum" unicode="^" horiz-adv-x="369" 
d="M340 430l-57 -56l-99 86l-101 -86l-55 56l156 153z" />
    <glyph glyph-name="underscore" unicode="_" horiz-adv-x="505" 
d="M495 -64v-81h-485v81h485z" />
    <glyph glyph-name="grave" unicode="`" horiz-adv-x="211" 
d="M166 627l-85 -20l-50 182l87 21z" />
    <glyph glyph-name="a" unicode="a" horiz-adv-x="735" 
d="M218 177h298l-116 285h-63zM467 553l235 -553h-107l-38 87h-377l-38 -87h-109l242 553h192z" />
    <glyph glyph-name="b" unicode="b" horiz-adv-x="648" 
d="M406 553c24.667 0 47.499 -3.33203 68.499 -9.99902s38.833 -16.334 53.5 -29.001s26.167 -27.667 34.5 -45s12.5 -37 12.5 -59c0 -46 -15.667 -79.667 -47 -101c27.333 -12 48.5 -29.833 63.5 -53.5s22.5 -52.167 22.5 -85.5c0 -23.333 -4.5 -45.333 -13.5 -66
s-21.5 -38.667 -37.5 -54s-35.167 -27.5 -57.5 -36.5s-47.166 -13.5 -74.499 -13.5h-378v553h353zM154.999 333.001l260.001 -0.000976562c19.333 0 34.333 6.5 45 19.5s16 27.5 16 43.5c0 8.66699 -1.16699 16.834 -3.5 24.501s-6.5 14.5 -12.5 20.5
s-13.833 10.833 -23.5 14.5s-21.834 5.5 -36.501 5.5h-245v-128zM155 92l271.999 0.000976562c29.333 0 51.333 7.5 66 22.5s22 33.167 22 54.5c0 23.333 -7.16699 41.666 -21.5 54.999s-33.166 20 -56.499 20h-282v-152z" />
    <glyph glyph-name="c" unicode="c" 
d="M542 381c-22 30 -48.8359 53.166 -80.5029 69.499s-70.5 24.5 -116.5 24.5c-31.333 0 -59.5 -4.66699 -84.5 -14s-46.333 -22.666 -64 -39.999s-31.334 -38.333 -41.001 -63s-14.5 -52 -14.5 -82c0 -29.333 5 -56.166 15 -80.499s24 -45.333 42 -63
s39.5 -31.334 64.5 -41.001s52.5 -14.5 82.5 -14.5c46 0 84.5 8.16699 115.5 24.5s58.167 39.833 81.5 70.5l80 -47c-29.333 -44.667 -66.666 -79 -111.999 -103s-99.666 -36 -162.999 -36c-44 0 -84.667 6.66699 -122 20s-69.833 32.5 -97.5 57.5s-49.167 55.5 -64.5 91.5
s-23 76.333 -23 121s7.83301 85 23.5 121s37.334 66.5 65.001 91.5s60.167 44.167 97.5 57.5s77.666 20 120.999 20c62.667 0 116.834 -11.833 162.501 -35.5s82.834 -58.167 111.501 -103.5z" />
    <glyph glyph-name="d" unicode="d" horiz-adv-x="670" 
d="M332 553c38.667 0 76 -6.5 112 -19.5s67.833 -31.5 95.5 -55.5s49.667 -53 66 -87s24.5 -72 24.5 -114s-8.33301 -80.167 -25 -114.5s-38.667 -63.5 -66 -87.5s-59 -42.5 -95 -55.5s-73.333 -19.5 -112 -19.5h-279v553h279zM155 93h175c29.333 0 56.166 4.5 80.499 13.5
s45.166 21.5 62.499 37.5s30.833 35.333 40.5 58s14.5 47.667 14.5 75s-4.83301 52.333 -14.5 75s-23.167 42 -40.5 58s-38.166 28.5 -62.499 37.5s-51.166 13.5 -80.499 13.5h-175v-368z" />
    <glyph glyph-name="e" unicode="e" horiz-adv-x="608" 
d="M548 553v-92h-393v-133h354v-91h-354v-144h408v-93h-510v553h495z" />
    <glyph glyph-name="f" unicode="f" horiz-adv-x="590" 
d="M53 553h499v-92h-397v-147h353v-91h-353v-223h-102v553z" />
    <glyph glyph-name="g" unicode="g" horiz-adv-x="689" 
d="M633 314v-314.001h-65l-15 51c-27.333 -21.333 -56.833 -37.5 -88.5 -48.5s-70.5 -16.5 -116.5 -16.5c-44 0 -84.833 6.66699 -122.5 20s-70.167 32.5 -97.5 57.5s-48.833 55.5 -64.5 91.5s-23.5 76.333 -23.5 121s7.83301 85 23.5 121s37.334 66.5 65.001 91.5
s60.334 44.167 98.001 57.5s78.167 20 121.5 20c62.667 0 116 -11.167 160 -33.5s81.333 -55.5 112 -99.5l-80 -46c-23.333 29.333 -49.833 51 -79.5 65s-68.167 21 -115.5 21c-31.333 0 -59.5 -4.66699 -84.5 -14s-46.333 -22.5 -64 -39.5s-31.334 -37.667 -41.001 -62
s-14.5 -51.5 -14.5 -81.5s5 -57 15 -81s24 -44.667 42 -62s39.5 -30.666 64.5 -39.999s52.5 -14 82.5 -14c44.667 0 81.667 5.33301 111 16s55.666 27 78.999 49v81l-146 6v83h244z" />
    <glyph glyph-name="h" unicode="h" horiz-adv-x="665" 
d="M155 553v-221h355v221h101v-553h-101v241h-355v-241h-102v553h102z" />
    <glyph glyph-name="i" unicode="i" horiz-adv-x="208" 
d="M155 553v-553h-102v553h102z" />
    <glyph glyph-name="j" unicode="j" horiz-adv-x="597" 
d="M543 553v-313.999c0 -35.333 -5.16699 -68.333 -15.5 -99s-26.166 -57.5 -47.499 -80.5s-48.833 -41 -82.5 -54s-73.834 -19.5 -120.501 -19.5c-57.333 0 -107.5 12.5 -150.5 37.5s-76.167 60.833 -99.5 107.5l87 45c15.333 -32.667 38 -57.334 68 -74.001
s61.333 -25 94 -25c32 0 58.833 4 80.5 12s39 19.5 52 34.5s22.167 33.167 27.5 54.5s8 45 8 71v304h99z" />
    <glyph glyph-name="k" unicode="k" horiz-adv-x="647" 
d="M154 553v-214h193l146 214h117l-176 -256l190 -297h-120l-154 247h-196v-247h-101v553h101z" />
    <glyph glyph-name="l" unicode="l" horiz-adv-x="581" 
d="M155 553v-461h398v-92h-500v553h102z" />
    <glyph glyph-name="m" unicode="m" horiz-adv-x="836" 
d="M201 553l216 -435h5l217 435h144v-553h-101v427h-10l-210 -427h-91l-209 427h-11v-427h-98v553h148z" />
    <glyph glyph-name="n" unicode="n" horiz-adv-x="676" 
d="M155 553l367 -411v411h101v-553h-103l-367 413v-413h-100v553h102z" />
    <glyph glyph-name="o" unicode="o" horiz-adv-x="701" 
d="M143 276c0 -32 5.33301 -60.5 16 -85.5s25.334 -46.167 44.001 -63.5s40.5 -30.5 65.5 -39.5s52.167 -13.5 81.5 -13.5s56.666 4.5 81.999 13.5s47.333 22.167 66 39.5s33.334 38.5 44.001 63.5s16 53.5 16 85.5s-5.33301 60.5 -16 85.5s-25.334 46.167 -44.001 63.5
s-40.667 30.5 -66 39.5s-52.666 13.5 -81.999 13.5s-56.5 -4.5 -81.5 -13.5s-46.833 -22.167 -65.5 -39.5s-33.334 -38.5 -44.001 -63.5s-16 -53.5 -16 -85.5zM659 276c0 -44 -8 -83.833 -24 -119.5s-38 -66.167 -66 -91.5s-60.833 -44.833 -98.5 -58.5
s-77.834 -20.5 -120.501 -20.5s-82.834 6.83301 -120.501 20.5s-70.5 33.167 -98.5 58.5s-50 55.833 -66 91.5s-24 75.5 -24 119.5s8 83.833 24 119.5s38 66.167 66 91.5s60.833 44.833 98.5 58.5s77.834 20.5 120.501 20.5s82.834 -6.83301 120.501 -20.5
s70.5 -33.167 98.5 -58.5s50 -55.833 66 -91.5s24 -75.5 24 -119.5z" />
    <glyph glyph-name="p" unicode="p" horiz-adv-x="635" 
d="M378 553c32 0 61.667 -5.16699 89 -15.5s51 -24.833 71 -43.5s35.833 -41.167 47.5 -67.5s17.5 -55.5 17.5 -87.5s-5.83301 -61 -17.5 -87s-27.5 -48.167 -47.5 -66.5s-43.667 -32.5 -71 -42.5s-57 -15 -89 -15h-223v-128h-102v553h325zM155 221h219
c38 0 68.833 10.333 92.5 31s35.5 49.667 35.5 87c0 38 -11.833 67.667 -35.5 89s-54.5 32 -92.5 32h-219v-239z" />
    <glyph glyph-name="q" unicode="q" horiz-adv-x="701" 
d="M581 -32l-62.002 61.999c-48.667 -29.333 -105 -44 -169 -44c-42.667 0 -82.834 6.83301 -120.501 20.5s-70.5 33.167 -98.5 58.5s-50 55.833 -66 91.5s-24 75.5 -24 119.5s8 83.833 24 119.5s38 66.167 66 91.5s60.833 44.833 98.5 58.5s77.834 20.5 120.501 20.5
s82.834 -6.83301 120.501 -20.5s70.5 -33.167 98.5 -58.5s50 -55.833 66 -91.5s24 -75.5 24 -119.5c0 -37.333 -5.66699 -71.666 -17 -102.999s-27.666 -59.333 -48.999 -84l55 -54zM523.998 158.999c10.667 15.333 19 32.833 25 52.5s9 41.167 9 64.5
c0 32 -5.33301 60.5 -16 85.5s-25.334 46.167 -44.001 63.5s-40.667 30.5 -66 39.5s-52.666 13.5 -81.999 13.5s-56.5 -4.5 -81.5 -13.5s-46.833 -22.167 -65.5 -39.5s-33.334 -38.5 -44.001 -63.5s-16 -53.5 -16 -85.5s5.33301 -60.5 16 -85.5s25.334 -46.167 44.001 -63.5
s40.5 -30.5 65.5 -39.5s52.167 -13.5 81.5 -13.5c38 0 71.667 8 101 24l-56 56l67 67z" />
    <glyph glyph-name="r" unicode="r" horiz-adv-x="637" 
d="M378 553c32 0 61.667 -5.16602 89 -15.499s51 -24.833 71 -43.5s35.833 -41.167 47.5 -67.5s17.5 -55.5 17.5 -87.5c0 -44 -10.5 -81.833 -31.5 -113.5s-48.833 -55.834 -83.5 -72.501l87 -153h-111l-70 128h-239v-128h-102v553h325zM155 221.001h219
c38 0 68.833 10.333 92.5 31s35.5 49.667 35.5 87c0 38 -11.833 67.667 -35.5 89s-54.5 32 -92.5 32h-219v-239z" />
    <glyph glyph-name="s" unicode="s" horiz-adv-x="640" 
d="M532 415c-33.333 21.333 -67.1689 36.833 -101.502 46.5s-74.166 14.5 -119.499 14.5c-30.667 0 -56 -2 -76 -6s-35.667 -9.5 -47 -16.5s-19.333 -14.833 -24 -23.5s-7 -18 -7 -28c0 -20.667 8 -34.834 24 -42.501s37 -13.167 63 -16.5l172 -20
c57.333 -7.33301 102.333 -23.833 135 -49.5s49 -62.834 49 -111.501c0 -30 -6.83301 -56.167 -20.5 -78.5s-32.834 -40.666 -57.501 -54.999s-54.334 -25 -89.001 -32s-72.667 -10.5 -114 -10.5c-55.333 0 -105.166 6.33301 -149.499 19s-87.833 34.334 -130.5 65.001
l48 79c38.667 -26 77.334 -44.833 116.001 -56.5s82.334 -17.5 131.001 -17.5c50 0 90.5 7 121.5 21s46.5 35.333 46.5 64c0 39.333 -28.667 62 -86 68l-182 20c-54.667 6.66699 -97.834 21.5 -129.501 44.5s-47.5 59.167 -47.5 108.5c0 28 6.66699 52.5 20 73.5
s31.5 38.167 54.5 51.5s50 23.333 81 30s63.833 10 98.5 10c50 0 96.833 -5.16699 140.5 -15.5s86.834 -30.5 129.501 -60.5z" />
    <glyph glyph-name="t" unicode="t" horiz-adv-x="632" 
d="M602 553v-92h-235v-461h-102v461h-235v92h572z" />
    <glyph glyph-name="u" unicode="u" 
d="M150 553l0.000976562 -283c0 -59.333 14.333 -106.5 43 -141.5s74 -52.5 136 -52.5s107.5 17.5 136.5 52.5s43.5 82.167 43.5 141.5v283h101v-282c0 -46 -6.5 -86.667 -19.5 -122s-31.833 -65 -56.5 -89s-54.334 -42.333 -89.001 -55s-73.334 -19 -116.001 -19
c-43.333 0 -82.166 6.33301 -116.499 19s-63.833 31 -88.5 55s-43.5 53.667 -56.5 89s-19.5 76 -19.5 122v282h102z" />
    <glyph glyph-name="v" unicode="v" horiz-adv-x="713" 
d="M142 553l195 -461h40l195 461h111l-244 -553h-166l-243 553h112z" />
    <glyph glyph-name="w" unicode="w" horiz-adv-x="1011" 
d="M138 553l151 -464h17l131 464h134l135 -464h17l153 464h106l-197 -553h-152l-124 443h-12l-124 -443h-150l-193 553h108z" />
    <glyph glyph-name="x" unicode="x" horiz-adv-x="671" 
d="M159 553l153 -223h47l153 223h116l-186 -262l201 -291h-118l-163 238h-53l-164 -238h-118l203 288l-187 265h116z" />
    <glyph glyph-name="y" unicode="y" horiz-adv-x="686" 
d="M146 553l194 -314h12l188 314h116l-263 -415v-138h-100v138l-263 415h116z" />
    <glyph glyph-name="z" unicode="z" horiz-adv-x="608" 
d="M558 553v-89l-388 -377l184 4h214v-91h-528v91l394 374l-172 -3h-211v91h507z" />
    <glyph glyph-name="braceleft" unicode="{" horiz-adv-x="282" 
d="M273 -109l-46 -0.00390625c-41.333 0 -73.166 12.333 -95.499 37s-33.5 57.334 -33.5 98.001v142c0 16.667 -4.66699 31 -14 43s-21.666 18 -36.999 18h-25v91h25c15.333 0 27.666 6 36.999 18s14 26.333 14 43v142c0 40.667 11.167 73.334 33.5 98.001
s54.166 37 95.499 37h46v-84h-29c-16.667 0 -29.167 -4 -37.5 -12s-12.5 -21 -12.5 -39v-148c0 -19.333 -3.83301 -38 -11.5 -56s-21.167 -32.667 -40.5 -44c19.333 -11.333 32.833 -26.166 40.5 -44.499s11.5 -37.166 11.5 -56.499v-148c0 -18 4.16699 -31 12.5 -39
s20.833 -12 37.5 -12h29v-84z" />
    <glyph glyph-name="bar" unicode="|" horiz-adv-x="200" 
d="M147 -34h-94v620h94v-620z" />
    <glyph glyph-name="braceright" unicode="}" horiz-adv-x="282" 
d="M10 -25l29 0.00390625c16.667 0 29.167 4 37.5 12s12.5 21 12.5 39v148c0 19.333 3.66699 38.166 11 56.499s20.666 33.166 39.999 44.499c-19.333 11.333 -32.666 26 -39.999 44s-11 36.667 -11 56v148c0 18 -4.16699 31 -12.5 39s-20.833 12 -37.5 12h-29v84h45
c41.333 0 73.166 -12.333 95.499 -37s33.5 -57.334 33.5 -98.001v-142c0 -16.667 4.66699 -31 14 -43s21.666 -18 36.999 -18h25v-91h-25c-15.333 0 -27.666 -6 -36.999 -18s-14 -26.333 -14 -43v-142c0 -40.667 -11.167 -73.334 -33.5 -98.001s-54.166 -37 -95.499 -37h-45
v84z" />
    <glyph glyph-name="asciitilde" unicode="~" horiz-adv-x="435" 
d="M405 287c-13.333 -21.333 -29.166 -36.998 -47.499 -46.998s-40.5 -15 -66.5 -15c-14.667 0 -27.834 2 -39.501 6s-23 8.33301 -34 13s-21.833 9 -32.5 13s-22.334 6 -35.001 6c-17.333 0 -32.166 -3.33301 -44.499 -10s-23.166 -16 -32.499 -28l-48 48
c30.667 48 73.334 72 128.001 72c17.333 0 32.166 -1.83301 44.499 -5.5s23.5 -7.83398 33.5 -12.501s19.667 -8.83398 29 -12.501s20 -5.5 32 -5.5c16.667 0 30.667 2.33301 42 7s21.666 12 30.999 22z" />
    <glyph glyph-name="exclamdown" unicode="&#xa1;" horiz-adv-x="228" 
d="M161.004 -78.9609h-95.9941v446.973h95.9941v-446.973zM113.007 414.009c-20.665 0 -38.4971 7.49902 -53.4961 22.498s-22.498 32.8311 -22.498 53.4961c0 21.332 7.49902 39.3311 22.498 53.9971c14.999 14.665 32.8311 21.998 53.4961 21.998
c21.332 0 39.3311 -7.33301 53.9971 -21.998c14.665 -14.666 21.998 -32.665 21.998 -53.9971c0 -20.665 -7.33301 -38.4971 -21.998 -53.4961c-14.666 -14.999 -32.665 -22.498 -53.9971 -22.498z" />
    <glyph glyph-name="cent" unicode="&#xa2;" horiz-adv-x="652" 
d="M386 607l2.99609 -64c49.333 -5.33301 92.166 -19.5 128.499 -42.5s68.5 -53.833 96.5 -92.5l-79 -46c-22.667 30 -49.167 53 -79.5 69s-68.166 24 -113.499 24c-62 0 -111 -17 -147 -51s-54 -80 -54 -138c0 -28 4.83301 -53.667 14.5 -77s23.334 -43.333 41.001 -60
s38.834 -29.5 63.501 -38.5s52 -13.5 82 -13.5c46 0 83.833 8 113.5 24s56.167 39 79.5 69l80 -47c-28 -38.667 -60.167 -69.334 -96.5 -92.001s-79.166 -36.667 -128.499 -42l-3 -81h-91l-4 82c-37.333 4.66699 -71.333 14.5 -102 29.5s-57.167 34.5 -79.5 58.5
s-39.666 51.833 -51.999 83.5s-18.5 66.5 -18.5 104.5s6.33301 72.833 19 104.5s30.167 59.334 52.5 83.001s49 43 80 58s64.5 24.833 100.5 29.5l4 66h90z" />
    <glyph glyph-name="brokenbar" unicode="&#xa6;" horiz-adv-x="200" 
d="M53 301v285h94v-285h-94zM53 -34v285h94v-285h-94z" />
    <glyph glyph-name="section" unicode="&#xa7;" horiz-adv-x="604" 
d="M459 559c-12.667 6.66699 -24.833 12.333 -36.5 17s-23.5 8.5 -35.5 11.5s-24.833 5.33301 -38.5 7s-28.5 2.5 -44.5 2.5c-40.667 0 -71.334 -5.16699 -92.001 -15.5s-31 -27.166 -31 -50.499c0 -16.667 5.33301 -29.5 16 -38.5s27.667 -15.167 51 -18.5l107 -16
c58 -8 104.167 -26.167 138.5 -54.5s51.5 -67.833 51.5 -118.5c0 -27.333 -7 -53.333 -21 -78s-36.667 -45 -68 -61c20 -13.333 34.667 -28.5 44 -45.5s14 -39.5 14 -67.5c0 -26 -6 -48.667 -18 -68s-28.5 -35.5 -49.5 -48.5s-45.833 -22.833 -74.5 -29.5
s-59.667 -10 -93 -10c-25.333 0 -47.833 1 -67.5 3s-38.167 5.33301 -55.5 10s-34 10.667 -50 18s-33 16.333 -51 27l40 73c15.333 -8 29.833 -14.833 43.5 -20.5s27.834 -10.167 42.501 -13.5s30 -5.83301 46 -7.5s34 -2.5 54 -2.5c46 0 79.667 6.83301 101 20.5
s32 30.167 32 49.5s-5 33.333 -15 42s-27 15 -51 19l-118 19c-58 8.66699 -104.333 26.834 -139 54.501s-52 67.167 -52 118.5c0 29.333 8.33301 56.666 25 81.999s40 45.333 70 60c-18.667 12 -32.167 27 -40.5 45s-12.5 38 -12.5 60c0 26.667 6.66699 49.667 20 69
s30.5 35.166 51.5 47.499s44.5 21.333 70.5 27s52 8.5 78 8.5c38 0 73.333 -4.33301 106 -13s64.667 -23 96 -43zM207.001 384.999c-22.667 -9.33301 -38.999 -21.5 -48.999 -36.5s-15 -31.833 -15 -50.5c0 -26.667 6.5 -47 19.5 -61s33.5 -23 61.5 -27l140 -21
c27.333 9.33301 47.166 22 59.499 38s18.5 34.333 18.5 55s-6.16699 38 -18.5 52s-33.5 23.333 -63.5 28z" />
    <glyph glyph-name="dieresis" unicode="&#xa8;" horiz-adv-x="454" 
d="M108 746c18.667 0 34.334 -6.33301 47.001 -19s19 -27.667 19 -45c0 -18 -6.33301 -33.5 -19 -46.5s-28.334 -19.5 -47.001 -19.5c-18 0 -33.333 6.5 -46 19.5s-19 28.5 -19 46.5c0 17.333 6.33301 32.333 19 45s28 19 46 19zM345 746c18.667 0 34.5 -6.33301 47.5 -19
s19.5 -27.667 19.5 -45c0 -18 -6.5 -33.5 -19.5 -46.5s-28.833 -19.5 -47.5 -19.5c-17.333 0 -32.5 6.5 -45.5 19.5s-19.5 28.5 -19.5 46.5c0 17.333 6.5 32.333 19.5 45s28.167 19 45.5 19z" />
    <glyph glyph-name="copyright" unicode="&#xa9;" horiz-adv-x="727" 
d="M26 291c0 48.667 8.83301 93 26.5 133s41.667 74.167 72 102.5s66 50.166 107 65.499s84.833 23 131.5 23s90.5 -7.66699 131.5 -23s76.833 -37.166 107.5 -65.499s54.834 -62.5 72.501 -102.5s26.5 -84.333 26.5 -133s-8.83301 -93 -26.5 -133
s-41.834 -74.167 -72.501 -102.5s-66.5 -50.166 -107.5 -65.499s-84.833 -23 -131.5 -23s-90.5 7.66699 -131.5 23s-76.667 37.166 -107 65.499s-54.333 62.5 -72 102.5s-26.5 84.333 -26.5 133zM472 351c-15.333 15.333 -31.167 26.165 -47.5 32.498
s-35.166 9.5 -56.499 9.5c-32.667 0 -58.167 -8.5 -76.5 -25.5s-27.5 -42.167 -27.5 -75.5c0 -32 9.16699 -56.833 27.5 -74.5s43.833 -26.5 76.5 -26.5c21.333 0 40.333 3.33301 57 10s32.667 17.667 48 33l44 -47c-20.667 -21.333 -42.834 -37.166 -66.501 -47.499
s-51.167 -15.5 -82.5 -15.5c-24.667 0 -48 3.83301 -70 11.5s-41.167 18.667 -57.5 33s-29.333 32 -39 53s-14.5 44.5 -14.5 70.5s4.83301 49.5 14.5 70.5s22.667 38.667 39 53s35.5 25.333 57.5 33s45.333 11.5 70 11.5c31.333 0 59 -5.16699 83 -15.5
s46 -26.166 66 -47.499zM619.999 290.999c0 37.333 -6.66699 71.166 -20 101.499s-31.5 56.333 -54.5 78s-50.167 38.334 -81.5 50.001s-65 17.5 -101 17.5s-69.5 -5.83301 -100.5 -17.5s-58 -28.334 -81 -50.001s-41 -47.667 -54 -78s-19.5 -64.166 -19.5 -101.499
s6.5 -71.333 19.5 -102s31 -56.667 54 -78s50 -37.833 81 -49.5s64.5 -17.5 100.5 -17.5s69.667 5.83301 101 17.5s58.5 28.167 81.5 49.5s41.167 47.333 54.5 78s20 64.667 20 102z" />
    <glyph glyph-name="guillemotleft" unicode="&#xab;" horiz-adv-x="428" 
d="M242 403l-99 -119l99 -118l-52 -51l-169 169l169 171zM403 399l-95 -115l95 -114l-52 -52l-165 166l165 167z" />
    <glyph glyph-name="uni00AD" unicode="&#xad;" horiz-adv-x="395" 
d="M355 327v-89h-315v89h315z" />
    <glyph glyph-name="registered" unicode="&#xae;" horiz-adv-x="464" 
d="M86 416c0 -20 3.5 -38.667 10.5 -56s16.833 -32.333 29.5 -45s28 -22.667 46 -30s38 -11 60 -11c46 0 82 13.5 108 40.5s39 60.833 39 101.5c0 20.667 -3.83301 39.667 -11.5 57s-18 32.333 -31 45s-28.5 22.667 -46.5 30s-37.333 11 -58 11
c-45.333 0 -81 -13.5 -107 -40.5s-39 -61.167 -39 -102.5zM256 509c23.333 0 42.167 -6.66699 56.5 -20s21.5 -29 21.5 -47c0 -11.333 -3 -22.5 -9 -33.5s-14.667 -19.5 -26 -25.5l31 -54h-54l-20 39h-58v-39h-49v180h107zM198.001 413h56c20 0 30 8.66699 30 26
c0 16.667 -10 25 -30 25h-56v-51zM30.001 415c0 28 5.16602 54 15.499 78s24.666 44.833 42.999 62.5s39.833 31.334 64.5 41.001s51 14.5 79 14.5s54.167 -4.83301 78.5 -14.5s45.833 -23.334 64.5 -41.001s33.334 -38.5 44.001 -62.5s16 -50 16 -78
s-5.16699 -53.833 -15.5 -77.5s-24.666 -44.334 -42.999 -62.001s-39.833 -31.334 -64.5 -41.001s-51.334 -14.5 -80.001 -14.5c-28 0 -54.333 4.83301 -79 14.5s-46.167 23.334 -64.5 41.001s-32.666 38.334 -42.999 62.001s-15.5 49.5 -15.5 77.5z" />
    <glyph glyph-name="macron" unicode="&#xaf;" horiz-adv-x="439" 
d="M401 707v-81h-362v81h362z" />
    <glyph glyph-name="degree" unicode="&#xb0;" horiz-adv-x="351" 
d="M168 299c-19.333 0 -37.333 3.16699 -54 9.5s-31.5 15.166 -44.5 26.499s-23.167 25.166 -30.5 41.499s-11 34.5 -11 54.5s3.66699 38.167 11 54.5s17.5 30.166 30.5 41.499s27.833 20.166 44.5 26.499s34.667 9.5 54 9.5s37.666 -3.16699 54.999 -9.5
s32.333 -15.166 45 -26.499s22.667 -25.166 30 -41.499s11 -34.5 11 -54.5s-3.66699 -38.167 -11 -54.5s-17.333 -30.166 -30 -41.499s-27.667 -20.166 -45 -26.499s-35.666 -9.5 -54.999 -9.5zM168 369c18 0 33.168 5.33301 45.501 16s18.5 26 18.5 46
s-6.16699 35.167 -18.5 45.5s-27.5 15.5 -45.5 15.5s-33 -5.16699 -45 -15.5s-18 -25.5 -18 -45.5s6.16699 -35.333 18.5 -46s27.166 -16 44.499 -16z" />
    <glyph glyph-name="plusminus" unicode="&#xb1;" horiz-adv-x="418" 
d="M162 397v128h93v-128h128v-85h-128v-125h-93v125h-127v85h127zM382 147v-83h-346v83h346z" />
    <glyph glyph-name="acute" unicode="&#xb4;" horiz-adv-x="205" 
d="M79 810l87 -21l-50 -182l-85 20z" />
    <glyph glyph-name="paragraph" unicode="&#xb6;" horiz-adv-x="550" 
d="M508 589l-79 -24v-565h-76v574h-67v-574h-77v343c-22.667 0 -43.334 4.33301 -62.001 13s-34.5 20 -47.5 34s-23.167 30.333 -30.5 49s-11 38 -11 58s3.66699 39.333 11 58s17.5 35 30.5 49s28.833 25.333 47.5 34s39.334 13 62.001 13h295z" />
    <glyph glyph-name="periodcentered" unicode="&#xb7;" horiz-adv-x="228" 
d="M112 375c20.667 0 38.167 -7.16699 52.5 -21.5s21.5 -32.166 21.5 -53.499c0 -20 -7.16699 -37.333 -21.5 -52s-31.833 -22 -52.5 -22s-38.334 7.33301 -53.001 22s-22 32 -22 52c0 21.333 7.33301 39.166 22 53.499s32.334 21.5 53.001 21.5z" />
    <glyph glyph-name="cedilla" unicode="&#xb8;" horiz-adv-x="238" 
d="M138 11l-0.000976562 -46.001c28 -2 50 -10.667 66 -26s24 -36 24 -62c0 -17.333 -3.66699 -32.166 -11 -44.499s-17.166 -22.5 -29.499 -30.5s-26.666 -13.833 -42.999 -17.5s-33.833 -5.5 -52.5 -5.5c-13.333 0 -26.333 1.33301 -39 4s-25.667 7.33398 -39 14.001
l18 53c10 -4 20.667 -7 32 -9s21.666 -3 30.999 -3c18 0 32.333 3.16699 43 9.5s16 16.166 16 29.499c0 20 -13.667 30 -41 30h-45l-6 6l10 103z" />
    <glyph glyph-name="guillemotright" unicode="&#xbb;" horiz-adv-x="428" 
d="M236 455l168 -171l-168 -169l-52 51l99 118l-99 119zM74 451l165 -167l-165 -166l-52 52l96 114l-96 115z" />
    <glyph glyph-name="questiondown" unicode="&#xbf;" horiz-adv-x="575" 
d="M307.018 412.009c-21.332 0 -39.498 7.49902 -54.4971 22.498s-22.498 33.165 -22.498 54.4971s7.49902 38.8311 22.498 52.4971c14.999 13.665 33.165 20.498 54.4971 20.498s39.498 -6.83301 54.4971 -20.498c14.999 -13.666 22.498 -31.165 22.498 -52.4971
s-7.49902 -39.498 -22.498 -54.4971s-33.165 -22.498 -54.4971 -22.498zM358.015 305.016c0 -21.332 -6.66504 -42.4961 -19.998 -63.4951s-34.998 -36.165 -64.9961 -45.498l-39.9971 -11.999c-27.999 -8.66602 -49.498 -20.499 -64.4971 -35.498
s-22.499 -34.1641 -22.499 -57.4961c0 -32.665 12.166 -56.6641 36.498 -71.9971c24.3311 -15.332 62.1621 -22.998 113.493 -22.998c47.3301 0 87.4941 6 120.492 17.999s64.4961 31.3311 94.4941 57.9961l48.9971 -69.9961
c-36.6641 -34.6641 -77.3281 -59.4961 -121.992 -74.4951s-91.6611 -22.499 -140.991 -22.499c-37.3311 0 -71.4961 3.5 -102.494 10.5c-30.998 6.99902 -57.8301 18.165 -80.4951 33.498c-22.665 15.332 -40.1641 35.1641 -52.4971 59.4961
s-18.499 53.8301 -18.499 88.4941c0 39.3311 12.666 73.4961 37.998 102.494s59.3301 50.1631 101.994 63.4961l37.9971 10.999c13.333 4 22.666 10.833 27.999 20.499s7.99902 19.499 7.99902 29.498v39.998h100.994v-58.9961z" />
    <glyph glyph-name="Agrave" unicode="&#xc0;" horiz-adv-x="735" 
d="M218 177h298l-116 285h-63zM467 553l235 -553h-107l-38 87h-377l-38 -87h-109l242 553h192zM414 627l-85 -20l-50 182l87 21z" />
    <glyph glyph-name="Aacute" unicode="&#xc1;" horiz-adv-x="735" 
d="M218 177h298l-116 285h-63zM467 553l235 -553h-107l-38 87h-377l-38 -87h-109l242 553h192zM379 811l87 -21l-50 -182l-85 20z" />
    <glyph glyph-name="Acircumflex" unicode="&#xc2;" horiz-adv-x="735" 
d="M218 177h298l-116 285h-63zM467 553l235 -553h-107l-38 87h-377l-38 -87h-109l242 553h192zM366 669l-109 -68l-40 53l149 110l150 -110l-42 -53z" />
    <glyph glyph-name="Atilde" unicode="&#xc3;" horiz-adv-x="735" 
d="M218 177h298l-116 285h-63zM467 553l235 -553h-107l-38 87h-377l-38 -87h-109l242 553h192zM556 666c-13.333 -21.333 -29.166 -36.998 -47.499 -46.998s-40.5 -15 -66.5 -15c-14.667 0 -27.834 2 -39.501 6s-23 8.33301 -34 13s-21.833 9 -32.5 13s-22.334 6 -35.001 6
c-17.333 0 -32.166 -3.33301 -44.499 -10s-23.166 -16 -32.499 -28l-48 48c30.667 48 73.334 72 128.001 72c17.333 0 32.166 -1.83301 44.499 -5.5s23.5 -7.83398 33.5 -12.501s19.667 -8.83398 29 -12.501s20 -5.5 32 -5.5c16.667 0 30.667 2.33301 42 7
s21.666 12 30.999 22z" />
    <glyph glyph-name="Adieresis" unicode="&#xc4;" horiz-adv-x="735" 
d="M218 177h298l-116 285h-63zM467 553l235 -553h-107l-38 87h-377l-38 -87h-109l242 553h192zM243 746c18.667 0 34.334 -6.33301 47.001 -19s19 -27.667 19 -45c0 -18 -6.33301 -33.5 -19 -46.5s-28.334 -19.5 -47.001 -19.5c-18 0 -33.333 6.5 -46 19.5
s-19 28.5 -19 46.5c0 17.333 6.33301 32.333 19 45s28 19 46 19zM480 746c18.667 0 34.5 -6.33301 47.5 -19s19.5 -27.667 19.5 -45c0 -18 -6.5 -33.5 -19.5 -46.5s-28.833 -19.5 -47.5 -19.5c-17.333 0 -32.5 6.5 -45.5 19.5s-19.5 28.5 -19.5 46.5
c0 17.333 6.5 32.333 19.5 45s28.167 19 45.5 19z" />
    <glyph glyph-name="Aring" unicode="&#xc5;" horiz-adv-x="735" 
d="M218 177h298l-116 285h-63zM467 553l235 -553h-107l-38 87h-377l-38 -87h-109l242 553h192zM497 723c0 -19.333 -3.5 -36.666 -10.5 -51.999s-16.5 -28.5 -28.5 -39.5s-26 -19.333 -42 -25s-32.667 -8.5 -50 -8.5s-34 2.83301 -50 8.5s-30 14 -42 25
s-21.5 24.167 -28.5 39.5s-10.5 32.666 -10.5 51.999c0 18.667 3.5 35.667 10.5 51s16.5 28.5 28.5 39.5s26 19.333 42 25s32.667 8.5 50 8.5s34 -2.83301 50 -8.5s30 -14 42 -25s21.5 -24.167 28.5 -39.5s10.5 -32.333 10.5 -51zM308 723
c0 -19.333 5.33301 -33.833 16 -43.5s24.667 -14.5 42 -14.5s31.333 4.83301 42 14.5s16 24.167 16 43.5c0 18.667 -5.33301 32.834 -16 42.501s-24.667 14.5 -42 14.5s-31.333 -4.83301 -42 -14.5s-16 -23.834 -16 -42.501z" />
    <glyph glyph-name="AE" unicode="&#xc6;" horiz-adv-x="1095" 
d="M1032 553v-91h-401v-133h361v-90h-361v-146h421v-93h-522v100h-331l-71 -100h-119l374 553h649zM264 194h266v268h-97z" />
    <glyph glyph-name="Ccedilla" unicode="&#xc7;" 
d="M542 381c-22 30 -48.8359 53.1611 -80.5029 69.4941s-70.5 24.5 -116.5 24.5c-31.333 0 -59.5 -4.66699 -84.5 -14s-46.333 -22.666 -64 -39.999s-31.334 -38.333 -41.001 -63s-14.5 -52 -14.5 -82c0 -29.333 5 -56.166 15 -80.499s24 -45.333 42 -63
s39.5 -31.334 64.5 -41.001s52.5 -14.5 82.5 -14.5c46 0 84.5 8.16699 115.5 24.5s58.167 39.833 81.5 70.5l80 -47c-27.333 -42 -61.333 -74.667 -102 -98s-89 -36.666 -145 -39.999v-30c28 -2 50 -10.667 66 -26s24 -36 24 -62c0 -17.333 -3.66699 -32.166 -11 -44.499
s-17.166 -22.5 -29.499 -30.5s-26.666 -13.833 -42.999 -17.5s-33.833 -5.5 -52.5 -5.5c-13.333 0 -26.333 1.33301 -39 4s-25.667 7.33398 -39 14.001l18 53c9.33301 -4 19.833 -6.83301 31.5 -8.5s21.834 -2.5 30.501 -2.5c18.667 0 33.167 3 43.5 9s15.5 15.667 15.5 29
c0 20 -13.333 30 -40 30h-45l-6 6l8 84c-39.333 4 -75.333 13.333 -108 28s-60.834 34.334 -84.501 59.001s-42 53.834 -55 87.501s-19.5 71.167 -19.5 112.5c0 44.667 7.83301 85 23.5 121s37.334 66.5 65.001 91.5s60.167 44.167 97.5 57.5s77.666 20 120.999 20
c62.667 0 116.834 -11.833 162.501 -35.5s82.834 -58.167 111.501 -103.5z" />
    <glyph glyph-name="Egrave" unicode="&#xc8;" horiz-adv-x="608" 
d="M548 553v-92h-393v-133h354v-91h-354v-144h408v-93h-510v553h495zM376 627l-85 -20l-50 182l87 21z" />
    <glyph glyph-name="Eacute" unicode="&#xc9;" horiz-adv-x="608" 
d="M548 553v-92h-393v-133h354v-91h-354v-144h408v-93h-510v553h495zM302 810l87 -21l-50 -182l-85 20z" />
    <glyph glyph-name="Ecircumflex" unicode="&#xca;" horiz-adv-x="608" 
d="M548 553v-92h-393v-133h354v-91h-354v-144h408v-93h-510v553h495zM313 669l-109 -68l-40 53l149 110l150 -110l-42 -53z" />
    <glyph glyph-name="Edieresis" unicode="&#xcb;" horiz-adv-x="608" 
d="M548 553v-92h-393v-133h354v-91h-354v-144h408v-93h-510v553h495zM186 746c18.667 0 34.334 -6.33301 47.001 -19s19 -27.667 19 -45c0 -18 -6.33301 -33.5 -19 -46.5s-28.334 -19.5 -47.001 -19.5c-18 0 -33.333 6.5 -46 19.5s-19 28.5 -19 46.5
c0 17.333 6.33301 32.333 19 45s28 19 46 19zM423 746c18.667 0 34.5 -6.33301 47.5 -19s19.5 -27.667 19.5 -45c0 -18 -6.5 -33.5 -19.5 -46.5s-28.833 -19.5 -47.5 -19.5c-17.333 0 -32.5 6.5 -45.5 19.5s-19.5 28.5 -19.5 46.5c0 17.333 6.5 32.333 19.5 45
s28.167 19 45.5 19z" />
    <glyph glyph-name="Igrave" unicode="&#xcc;" horiz-adv-x="208" 
d="M155 553v-553h-102v553h102zM168 627l-85 -20l-50 182l87 21z" />
    <glyph glyph-name="Iacute" unicode="&#xcd;" horiz-adv-x="208" 
d="M155 553v-553h-102v553h102zM98 810l87 -21l-50 -182l-85 20z" />
    <glyph glyph-name="Icircumflex" unicode="&#xce;" horiz-adv-x="208" 
d="M155 553v-553h-102v553h102zM110 669l-109 -68l-40 53l149 110l150 -110l-42 -53z" />
    <glyph glyph-name="Idieresis" unicode="&#xcf;" horiz-adv-x="208" 
d="M155 553v-553h-102v553h102zM-12 746c18.667 0 34.334 -6.33301 47.001 -19s19 -27.667 19 -45c0 -18 -6.33301 -33.5 -19 -46.5s-28.334 -19.5 -47.001 -19.5c-18 0 -33.333 6.5 -46 19.5s-19 28.5 -19 46.5c0 17.333 6.33301 32.333 19 45s28 19 46 19zM225 746
c18.667 0 34.5 -6.33301 47.5 -19s19.5 -27.667 19.5 -45c0 -18 -6.5 -33.5 -19.5 -46.5s-28.833 -19.5 -47.5 -19.5c-17.333 0 -32.5 6.5 -45.5 19.5s-19.5 28.5 -19.5 46.5c0 17.333 6.5 32.333 19.5 45s28.167 19 45.5 19z" />
    <glyph glyph-name="Eth" unicode="&#xd0;" horiz-adv-x="691" 
d="M354 553c38.667 0 76.002 -6.5 112.002 -19.5s67.667 -31.5 95 -55.5s49.166 -53 65.499 -87s24.5 -72 24.5 -114s-8.33301 -80.167 -25 -114.5s-38.667 -63.5 -66 -87.5s-58.833 -42.5 -94.5 -55.5s-72.834 -19.5 -111.501 -19.5h-279v241h-65v90h65v222h279z
M176.002 331h149v-90h-149v-148h175c29.333 0 56.166 4.5 80.499 13.5s45.333 21.5 63 37.5s31.334 35.333 41.001 58s14.5 47.667 14.5 75s-4.83301 52.333 -14.5 75s-23.334 42 -41.001 58s-38.667 28.5 -63 37.5s-51.166 13.5 -80.499 13.5h-175v-130z" />
    <glyph glyph-name="Ntilde" unicode="&#xd1;" horiz-adv-x="676" 
d="M155 553l367 -411v411h101v-553h-103l-367 413v-413h-100v553h102zM531 676c-13.333 -21.333 -29.166 -36.998 -47.499 -46.998s-40.5 -15 -66.5 -15c-14.667 0 -27.834 2 -39.501 6s-23 8.33301 -34 13s-21.833 9 -32.5 13s-22.334 6 -35.001 6
c-17.333 0 -32.166 -3.33301 -44.499 -10s-23.166 -16 -32.499 -28l-48 48c30.667 48 73.334 72 128.001 72c17.333 0 32.166 -1.83301 44.499 -5.5s23.5 -7.83398 33.5 -12.501s19.667 -8.83398 29 -12.501s20 -5.5 32 -5.5c16.667 0 30.667 2.33301 42 7
s21.666 12 30.999 22z" />
    <glyph glyph-name="Ograve" unicode="&#xd2;" horiz-adv-x="701" 
d="M143 276c0 -32 5.33301 -60.5 16 -85.5s25.334 -46.167 44.001 -63.5s40.5 -30.5 65.5 -39.5s52.167 -13.5 81.5 -13.5s56.666 4.5 81.999 13.5s47.333 22.167 66 39.5s33.334 38.5 44.001 63.5s16 53.5 16 85.5s-5.33301 60.5 -16 85.5s-25.334 46.167 -44.001 63.5
s-40.667 30.5 -66 39.5s-52.666 13.5 -81.999 13.5s-56.5 -4.5 -81.5 -13.5s-46.833 -22.167 -65.5 -39.5s-33.334 -38.5 -44.001 -63.5s-16 -53.5 -16 -85.5zM659 276c0 -44 -8 -83.833 -24 -119.5s-38 -66.167 -66 -91.5s-60.833 -44.833 -98.5 -58.5
s-77.834 -20.5 -120.501 -20.5s-82.834 6.83301 -120.501 20.5s-70.5 33.167 -98.5 58.5s-50 55.833 -66 91.5s-24 75.5 -24 119.5s8 83.833 24 119.5s38 66.167 66 91.5s60.833 44.833 98.5 58.5s77.834 20.5 120.501 20.5s82.834 -6.83301 120.501 -20.5
s70.5 -33.167 98.5 -58.5s50 -55.833 66 -91.5s24 -75.5 24 -119.5zM388 627l-85 -20l-50 182l87 21z" />
    <glyph glyph-name="Oacute" unicode="&#xd3;" horiz-adv-x="701" 
d="M143 276c0 -32 5.33301 -60.5 16 -85.5s25.334 -46.167 44.001 -63.5s40.5 -30.5 65.5 -39.5s52.167 -13.5 81.5 -13.5s56.666 4.5 81.999 13.5s47.333 22.167 66 39.5s33.334 38.5 44.001 63.5s16 53.5 16 85.5s-5.33301 60.5 -16 85.5s-25.334 46.167 -44.001 63.5
s-40.667 30.5 -66 39.5s-52.666 13.5 -81.999 13.5s-56.5 -4.5 -81.5 -13.5s-46.833 -22.167 -65.5 -39.5s-33.334 -38.5 -44.001 -63.5s-16 -53.5 -16 -85.5zM659 276c0 -44 -8 -83.833 -24 -119.5s-38 -66.167 -66 -91.5s-60.833 -44.833 -98.5 -58.5
s-77.834 -20.5 -120.501 -20.5s-82.834 6.83301 -120.501 20.5s-70.5 33.167 -98.5 58.5s-50 55.833 -66 91.5s-24 75.5 -24 119.5s8 83.833 24 119.5s38 66.167 66 91.5s60.833 44.833 98.5 58.5s77.834 20.5 120.501 20.5s82.834 -6.83301 120.501 -20.5
s70.5 -33.167 98.5 -58.5s50 -55.833 66 -91.5s24 -75.5 24 -119.5zM364 810l87 -21l-50 -182l-85 20z" />
    <glyph glyph-name="Ocircumflex" unicode="&#xd4;" horiz-adv-x="701" 
d="M143 276c0 -32 5.33301 -60.5 16 -85.5s25.334 -46.167 44.001 -63.5s40.5 -30.5 65.5 -39.5s52.167 -13.5 81.5 -13.5s56.666 4.5 81.999 13.5s47.333 22.167 66 39.5s33.334 38.5 44.001 63.5s16 53.5 16 85.5s-5.33301 60.5 -16 85.5s-25.334 46.167 -44.001 63.5
s-40.667 30.5 -66 39.5s-52.666 13.5 -81.999 13.5s-56.5 -4.5 -81.5 -13.5s-46.833 -22.167 -65.5 -39.5s-33.334 -38.5 -44.001 -63.5s-16 -53.5 -16 -85.5zM659 276c0 -44 -8 -83.833 -24 -119.5s-38 -66.167 -66 -91.5s-60.833 -44.833 -98.5 -58.5
s-77.834 -20.5 -120.501 -20.5s-82.834 6.83301 -120.501 20.5s-70.5 33.167 -98.5 58.5s-50 55.833 -66 91.5s-24 75.5 -24 119.5s8 83.833 24 119.5s38 66.167 66 91.5s60.833 44.833 98.5 58.5s77.834 20.5 120.501 20.5s82.834 -6.83301 120.501 -20.5
s70.5 -33.167 98.5 -58.5s50 -55.833 66 -91.5s24 -75.5 24 -119.5zM349 669l-109 -68l-40 53l149 110l150 -110l-42 -53z" />
    <glyph glyph-name="Otilde" unicode="&#xd5;" horiz-adv-x="701" 
d="M143 276c0 -32 5.33301 -60.5 16 -85.5s25.334 -46.167 44.001 -63.5s40.5 -30.5 65.5 -39.5s52.167 -13.5 81.5 -13.5s56.666 4.5 81.999 13.5s47.333 22.167 66 39.5s33.334 38.5 44.001 63.5s16 53.5 16 85.5s-5.33301 60.5 -16 85.5s-25.334 46.167 -44.001 63.5
s-40.667 30.5 -66 39.5s-52.666 13.5 -81.999 13.5s-56.5 -4.5 -81.5 -13.5s-46.833 -22.167 -65.5 -39.5s-33.334 -38.5 -44.001 -63.5s-16 -53.5 -16 -85.5zM659 276c0 -44 -8 -83.833 -24 -119.5s-38 -66.167 -66 -91.5s-60.833 -44.833 -98.5 -58.5
s-77.834 -20.5 -120.501 -20.5s-82.834 6.83301 -120.501 20.5s-70.5 33.167 -98.5 58.5s-50 55.833 -66 91.5s-24 75.5 -24 119.5s8 83.833 24 119.5s38 66.167 66 91.5s60.833 44.833 98.5 58.5s77.834 20.5 120.501 20.5s82.834 -6.83301 120.501 -20.5
s70.5 -33.167 98.5 -58.5s50 -55.833 66 -91.5s24 -75.5 24 -119.5zM540 676c-13.333 -21.333 -29.166 -36.998 -47.499 -46.998s-40.5 -15 -66.5 -15c-14.667 0 -27.834 2 -39.501 6s-23 8.33301 -34 13s-21.833 9 -32.5 13s-22.334 6 -35.001 6
c-17.333 0 -32.166 -3.33301 -44.499 -10s-23.166 -16 -32.499 -28l-48 48c30.667 48 73.334 72 128.001 72c17.333 0 32.166 -1.83301 44.499 -5.5s23.5 -7.83398 33.5 -12.501s19.667 -8.83398 29 -12.501s20 -5.5 32 -5.5c16.667 0 30.667 2.33301 42 7
s21.666 12 30.999 22z" />
    <glyph glyph-name="Odieresis" unicode="&#xd6;" horiz-adv-x="701" 
d="M143 276c0 -32 5.33301 -60.5 16 -85.5s25.334 -46.167 44.001 -63.5s40.5 -30.5 65.5 -39.5s52.167 -13.5 81.5 -13.5s56.666 4.5 81.999 13.5s47.333 22.167 66 39.5s33.334 38.5 44.001 63.5s16 53.5 16 85.5s-5.33301 60.5 -16 85.5s-25.334 46.167 -44.001 63.5
s-40.667 30.5 -66 39.5s-52.666 13.5 -81.999 13.5s-56.5 -4.5 -81.5 -13.5s-46.833 -22.167 -65.5 -39.5s-33.334 -38.5 -44.001 -63.5s-16 -53.5 -16 -85.5zM659 276c0 -44 -8 -83.833 -24 -119.5s-38 -66.167 -66 -91.5s-60.833 -44.833 -98.5 -58.5
s-77.834 -20.5 -120.501 -20.5s-82.834 6.83301 -120.501 20.5s-70.5 33.167 -98.5 58.5s-50 55.833 -66 91.5s-24 75.5 -24 119.5s8 83.833 24 119.5s38 66.167 66 91.5s60.833 44.833 98.5 58.5s77.834 20.5 120.501 20.5s82.834 -6.83301 120.501 -20.5
s70.5 -33.167 98.5 -58.5s50 -55.833 66 -91.5s24 -75.5 24 -119.5zM231 746c18.667 0 34.334 -6.33301 47.001 -19s19 -27.667 19 -45c0 -18 -6.33301 -33.5 -19 -46.5s-28.334 -19.5 -47.001 -19.5c-18 0 -33.333 6.5 -46 19.5s-19 28.5 -19 46.5
c0 17.333 6.33301 32.333 19 45s28 19 46 19zM468 746c18.667 0 34.5 -6.33301 47.5 -19s19.5 -27.667 19.5 -45c0 -18 -6.5 -33.5 -19.5 -46.5s-28.833 -19.5 -47.5 -19.5c-17.333 0 -32.5 6.5 -45.5 19.5s-19.5 28.5 -19.5 46.5c0 17.333 6.5 32.333 19.5 45
s28.167 19 45.5 19z" />
    <glyph glyph-name="multiply" unicode="&#xd7;" horiz-adv-x="418" 
d="M211 348l92 92l63 -62l-92 -92l90 -90l-60 -61l-91 91l-89 -90l-62 63l89 89l-90 90l60 60z" />
    <glyph glyph-name="Oslash" unicode="&#xd8;" horiz-adv-x="701" 
d="M563 548l-22.999 -39.001c36 -25.333 64.833 -57.666 86.5 -96.999s32.5 -84.333 32.5 -135c0 -44 -8 -83.833 -24 -119.5s-38 -66.167 -66 -91.5s-60.833 -44.833 -98.5 -58.5s-77.834 -20.5 -120.501 -20.5c-18.667 0 -36.667 1.33301 -54 4
s-34.333 6.33398 -51 11.001l-26 -44l-77 42l23 40c-38 25.333 -68.167 58.166 -90.5 98.499s-33.5 86.5 -33.5 138.5c0 43.333 8 82.833 24 118.5s38 66.167 66 91.5s60.833 44.833 98.5 58.5s77.834 20.5 120.501 20.5c37.333 0 73.666 -5.66699 108.999 -17l24 41z
M412.001 468.999c-19.333 6 -39.998 9.00098 -61.998 9.00098c-29.333 0 -56.5 -4.5 -81.5 -13.5s-46.833 -22.167 -65.5 -39.5s-33.334 -38.333 -44.001 -63s-16 -53 -16 -85c0 -34.667 6.16699 -64.834 18.5 -90.501s29.166 -47.167 50.499 -64.5zM292.003 82
c18 -4 37.333 -6 58 -6c29.333 0 56.666 4.5 81.999 13.5s47.333 22.167 66 39.5s33.334 38.333 44.001 63s16 53 16 85c0 32.667 -5.83301 61.5 -17.5 86.5s-27.5 46.167 -47.5 63.5z" />
    <glyph glyph-name="Ugrave" unicode="&#xd9;" 
d="M150 553l0.000976562 -283c0 -59.333 14.333 -106.5 43 -141.5s74 -52.5 136 -52.5s107.5 17.5 136.5 52.5s43.5 82.167 43.5 141.5v283h101v-282c0 -46 -6.5 -86.667 -19.5 -122s-31.833 -65 -56.5 -89s-54.334 -42.333 -89.001 -55s-73.334 -19 -116.001 -19
c-43.333 0 -82.166 6.33301 -116.499 19s-63.833 31 -88.5 55s-43.5 53.667 -56.5 89s-19.5 76 -19.5 122v282h102zM369.001 627l-85 -20l-50 182l87 21z" />
    <glyph glyph-name="Uacute" unicode="&#xda;" 
d="M150 553l0.000976562 -283c0 -59.333 14.333 -106.5 43 -141.5s74 -52.5 136 -52.5s107.5 17.5 136.5 52.5s43.5 82.167 43.5 141.5v283h101v-282c0 -46 -6.5 -86.667 -19.5 -122s-31.833 -65 -56.5 -89s-54.334 -42.333 -89.001 -55s-73.334 -19 -116.001 -19
c-43.333 0 -82.166 6.33301 -116.499 19s-63.833 31 -88.5 55s-43.5 53.667 -56.5 89s-19.5 76 -19.5 122v282h102zM335.001 810l87 -21l-50 -182l-85 20z" />
    <glyph glyph-name="Ucircumflex" unicode="&#xdb;" 
d="M150 553l0.000976562 -283c0 -59.333 14.333 -106.5 43 -141.5s74 -52.5 136 -52.5s107.5 17.5 136.5 52.5s43.5 82.167 43.5 141.5v283h101v-282c0 -46 -6.5 -86.667 -19.5 -122s-31.833 -65 -56.5 -89s-54.334 -42.333 -89.001 -55s-73.334 -19 -116.001 -19
c-43.333 0 -82.166 6.33301 -116.499 19s-63.833 31 -88.5 55s-43.5 53.667 -56.5 89s-19.5 76 -19.5 122v282h102zM330.001 669l-109 -68l-40 53l149 110l150 -110l-42 -53z" />
    <glyph glyph-name="Udieresis" unicode="&#xdc;" 
d="M150 553l0.000976562 -283c0 -59.333 14.333 -106.5 43 -141.5s74 -52.5 136 -52.5s107.5 17.5 136.5 52.5s43.5 82.167 43.5 141.5v283h101v-282c0 -46 -6.5 -86.667 -19.5 -122s-31.833 -65 -56.5 -89s-54.334 -42.333 -89.001 -55s-73.334 -19 -116.001 -19
c-43.333 0 -82.166 6.33301 -116.499 19s-63.833 31 -88.5 55s-43.5 53.667 -56.5 89s-19.5 76 -19.5 122v282h102zM210.001 746c18.667 0 34.334 -6.33301 47.001 -19s19 -27.667 19 -45c0 -18 -6.33301 -33.5 -19 -46.5s-28.334 -19.5 -47.001 -19.5
c-18 0 -33.333 6.5 -46 19.5s-19 28.5 -19 46.5c0 17.333 6.33301 32.333 19 45s28 19 46 19zM447.001 746c18.667 0 34.5 -6.33301 47.5 -19s19.5 -27.667 19.5 -45c0 -18 -6.5 -33.5 -19.5 -46.5s-28.833 -19.5 -47.5 -19.5c-17.333 0 -32.5 6.5 -45.5 19.5
s-19.5 28.5 -19.5 46.5c0 17.333 6.5 32.333 19.5 45s28.167 19 45.5 19z" />
    <glyph glyph-name="Yacute" unicode="&#xdd;" horiz-adv-x="686" 
d="M146 553l194 -314h12l188 314h116l-263 -415v-138h-100v138l-263 415h116zM354 810l87 -21l-50 -182l-85 20z" />
    <glyph glyph-name="Thorn" unicode="&#xde;" horiz-adv-x="615" 
d="M155 553v-67h210c29.333 0 57 -5.33301 83 -16s48.5 -25.5 67.5 -44.5s34 -41.333 45 -67s16.5 -53.167 16.5 -82.5s-5.5 -56.666 -16.5 -81.999s-26 -47.333 -45 -66s-41.5 -33.334 -67.5 -44.001s-53.667 -16 -83 -16h-210v-68h-102v553h102zM155 160
l206.001 0.000976562c19.333 0 36.166 3.16699 50.499 9.5s26.333 14.666 36 24.999s17 22.5 22 36.5s7.5 29 7.5 45c0 32 -9.66699 59.667 -29 83s-48.333 35 -87 35h-206v-234z" />
    <glyph glyph-name="agrave" unicode="&#xe0;" horiz-adv-x="735" 
d="M218 177h298l-116 285h-63zM467 553l235 -553h-107l-38 87h-377l-38 -87h-109l242 553h192zM414 627l-85 -20l-50 182l87 21z" />
    <glyph glyph-name="aacute" unicode="&#xe1;" horiz-adv-x="735" 
d="M218 177h298l-116 285h-63zM467 553l235 -553h-107l-38 87h-377l-38 -87h-109l242 553h192zM379 811l87 -21l-50 -182l-85 20z" />
    <glyph glyph-name="acircumflex" unicode="&#xe2;" horiz-adv-x="735" 
d="M218 177h298l-116 285h-63zM467 553l235 -553h-107l-38 87h-377l-38 -87h-109l242 553h192zM366 669l-109 -68l-40 53l149 110l150 -110l-42 -53z" />
    <glyph glyph-name="atilde" unicode="&#xe3;" horiz-adv-x="735" 
d="M218 177h298l-116 285h-63zM467 553l235 -553h-107l-38 87h-377l-38 -87h-109l242 553h192zM556 676c-13.333 -21.333 -29.166 -36.998 -47.499 -46.998s-40.5 -15 -66.5 -15c-14.667 0 -27.834 2 -39.501 6s-23 8.33301 -34 13s-21.833 9 -32.5 13s-22.334 6 -35.001 6
c-17.333 0 -32.166 -3.33301 -44.499 -10s-23.166 -16 -32.499 -28l-48 48c30.667 48 73.334 72 128.001 72c17.333 0 32.166 -1.83301 44.499 -5.5s23.5 -7.83398 33.5 -12.501s19.667 -8.83398 29 -12.501s20 -5.5 32 -5.5c16.667 0 30.667 2.33301 42 7
s21.666 12 30.999 22z" />
    <glyph glyph-name="adieresis" unicode="&#xe4;" horiz-adv-x="735" 
d="M218 177h298l-116 285h-63zM467 553l235 -553h-107l-38 87h-377l-38 -87h-109l242 553h192zM247 746c18.667 0 34.334 -6.33301 47.001 -19s19 -27.667 19 -45c0 -18 -6.33301 -33.5 -19 -46.5s-28.334 -19.5 -47.001 -19.5c-18 0 -33.333 6.5 -46 19.5
s-19 28.5 -19 46.5c0 17.333 6.33301 32.333 19 45s28 19 46 19zM484 746c18.667 0 34.5 -6.33301 47.5 -19s19.5 -27.667 19.5 -45c0 -18 -6.5 -33.5 -19.5 -46.5s-28.833 -19.5 -47.5 -19.5c-17.333 0 -32.5 6.5 -45.5 19.5s-19.5 28.5 -19.5 46.5
c0 17.333 6.5 32.333 19.5 45s28.167 19 45.5 19z" />
    <glyph glyph-name="aring" unicode="&#xe5;" horiz-adv-x="735" 
d="M218 177h298l-116 285h-63zM467 553l235 -553h-107l-38 87h-377l-38 -87h-109l242 553h192zM497 723c0 -19.333 -3.5 -36.666 -10.5 -51.999s-16.5 -28.5 -28.5 -39.5s-26 -19.333 -42 -25s-32.667 -8.5 -50 -8.5s-34 2.83301 -50 8.5s-30 14 -42 25
s-21.5 24.167 -28.5 39.5s-10.5 32.666 -10.5 51.999c0 18.667 3.5 35.667 10.5 51s16.5 28.5 28.5 39.5s26 19.333 42 25s32.667 8.5 50 8.5s34 -2.83301 50 -8.5s30 -14 42 -25s21.5 -24.167 28.5 -39.5s10.5 -32.333 10.5 -51zM308 723
c0 -19.333 5.33301 -33.833 16 -43.5s24.667 -14.5 42 -14.5s31.333 4.83301 42 14.5s16 24.167 16 43.5c0 18.667 -5.33301 32.834 -16 42.501s-24.667 14.5 -42 14.5s-31.333 -4.83301 -42 -14.5s-16 -23.834 -16 -42.501z" />
    <glyph glyph-name="ae" unicode="&#xe6;" horiz-adv-x="1095" 
d="M1032 553v-91h-401v-133h361v-90h-361v-146h421v-93h-522v100h-331l-71 -100h-119l374 553h649zM264 194h266v268h-97z" />
    <glyph glyph-name="ccedilla" unicode="&#xe7;" 
d="M542 381c-22 30 -48.8359 53.1611 -80.5029 69.4941s-70.5 24.5 -116.5 24.5c-31.333 0 -59.5 -4.66699 -84.5 -14s-46.333 -22.666 -64 -39.999s-31.334 -38.333 -41.001 -63s-14.5 -52 -14.5 -82c0 -29.333 5 -56.166 15 -80.499s24 -45.333 42 -63
s39.5 -31.334 64.5 -41.001s52.5 -14.5 82.5 -14.5c46 0 84.5 8.16699 115.5 24.5s58.167 39.833 81.5 70.5l80 -47c-27.333 -42 -61.333 -74.667 -102 -98s-89 -36.666 -145 -39.999v-30c28 -2 50 -10.667 66 -26s24 -36 24 -62c0 -17.333 -3.66699 -32.166 -11 -44.499
s-17.166 -22.5 -29.499 -30.5s-26.666 -13.833 -42.999 -17.5s-33.833 -5.5 -52.5 -5.5c-13.333 0 -26.333 1.33301 -39 4s-25.667 7.33398 -39 14.001l18 53c9.33301 -4 19.833 -6.83301 31.5 -8.5s21.834 -2.5 30.501 -2.5c18.667 0 33.167 3 43.5 9s15.5 15.667 15.5 29
c0 20 -13.333 30 -40 30h-45l-6 6l8 84c-39.333 4 -75.333 13.333 -108 28s-60.834 34.334 -84.501 59.001s-42 53.834 -55 87.501s-19.5 71.167 -19.5 112.5c0 44.667 7.83301 85 23.5 121s37.334 66.5 65.001 91.5s60.167 44.167 97.5 57.5s77.666 20 120.999 20
c62.667 0 116.834 -11.833 162.501 -35.5s82.834 -58.167 111.501 -103.5z" />
    <glyph glyph-name="egrave" unicode="&#xe8;" horiz-adv-x="608" 
d="M548 553v-92h-393v-133h354v-91h-354v-144h408v-93h-510v553h495zM376 627l-85 -20l-50 182l87 21z" />
    <glyph glyph-name="eacute" unicode="&#xe9;" horiz-adv-x="608" 
d="M548 553v-92h-393v-133h354v-91h-354v-144h408v-93h-510v553h495zM313 810l87 -21l-50 -182l-85 20z" />
    <glyph glyph-name="ecircumflex" unicode="&#xea;" horiz-adv-x="608" 
d="M548 553v-92h-393v-133h354v-91h-354v-144h408v-93h-510v553h495zM313 669l-109 -68l-40 53l149 110l150 -110l-42 -53z" />
    <glyph glyph-name="edieresis" unicode="&#xeb;" horiz-adv-x="608" 
d="M548 553v-92h-393v-133h354v-91h-354v-144h408v-93h-510v553h495zM186 746c18.667 0 34.334 -6.33301 47.001 -19s19 -27.667 19 -45c0 -18 -6.33301 -33.5 -19 -46.5s-28.334 -19.5 -47.001 -19.5c-18 0 -33.333 6.5 -46 19.5s-19 28.5 -19 46.5
c0 17.333 6.33301 32.333 19 45s28 19 46 19zM423 746c18.667 0 34.5 -6.33301 47.5 -19s19.5 -27.667 19.5 -45c0 -18 -6.5 -33.5 -19.5 -46.5s-28.833 -19.5 -47.5 -19.5c-17.333 0 -32.5 6.5 -45.5 19.5s-19.5 28.5 -19.5 46.5c0 17.333 6.5 32.333 19.5 45
s28.167 19 45.5 19z" />
    <glyph glyph-name="igrave" unicode="&#xec;" horiz-adv-x="208" 
d="M155 553v-553h-102v553h102zM153 627l-85 -20l-50 182l87 21z" />
    <glyph glyph-name="iacute" unicode="&#xed;" horiz-adv-x="208" 
d="M155 553v-553h-102v553h102zM111 810l87 -21l-50 -182l-85 20z" />
    <glyph glyph-name="icircumflex" unicode="&#xee;" horiz-adv-x="208" 
d="M155 553v-553h-102v553h102zM110 669l-109 -68l-40 53l149 110l150 -110l-42 -53z" />
    <glyph glyph-name="idieresis" unicode="&#xef;" horiz-adv-x="208" 
d="M155 553v-553h-102v553h102zM-12 746c18.667 0 34.334 -6.33301 47.001 -19s19 -27.667 19 -45c0 -18 -6.33301 -33.5 -19 -46.5s-28.334 -19.5 -47.001 -19.5c-18 0 -33.333 6.5 -46 19.5s-19 28.5 -19 46.5c0 17.333 6.33301 32.333 19 45s28 19 46 19zM225 746
c18.667 0 34.5 -6.33301 47.5 -19s19.5 -27.667 19.5 -45c0 -18 -6.5 -33.5 -19.5 -46.5s-28.833 -19.5 -47.5 -19.5c-17.333 0 -32.5 6.5 -45.5 19.5s-19.5 28.5 -19.5 46.5c0 17.333 6.5 32.333 19.5 45s28.167 19 45.5 19z" />
    <glyph glyph-name="eth" unicode="&#xf0;" horiz-adv-x="691" 
d="M354 553c38.667 0 76.002 -6.5 112.002 -19.5s67.667 -31.5 95 -55.5s49.166 -53 65.499 -87s24.5 -72 24.5 -114s-8.33301 -80.167 -25 -114.5s-38.667 -63.5 -66 -87.5s-58.833 -42.5 -94.5 -55.5s-72.834 -19.5 -111.501 -19.5h-279v241h-65v90h65v222h279z
M176.002 331h149v-90h-149v-148h175c29.333 0 56.166 4.5 80.499 13.5s45.333 21.5 63 37.5s31.334 35.333 41.001 58s14.5 47.667 14.5 75s-4.83301 52.333 -14.5 75s-23.334 42 -41.001 58s-38.667 28.5 -63 37.5s-51.166 13.5 -80.499 13.5h-175v-130z" />
    <glyph glyph-name="ntilde" unicode="&#xf1;" horiz-adv-x="676" 
d="M155 553l367 -411v411h101v-553h-103l-367 413v-413h-100v553h102zM527 676c-13.333 -21.333 -29.166 -36.998 -47.499 -46.998s-40.5 -15 -66.5 -15c-14.667 0 -27.834 2 -39.501 6s-23 8.33301 -34 13s-21.833 9 -32.5 13s-22.334 6 -35.001 6
c-17.333 0 -32.166 -3.33301 -44.499 -10s-23.166 -16 -32.499 -28l-48 48c30.667 48 73.334 72 128.001 72c17.333 0 32.166 -1.83301 44.499 -5.5s23.5 -7.83398 33.5 -12.501s19.667 -8.83398 29 -12.501s20 -5.5 32 -5.5c16.667 0 30.667 2.33301 42 7
s21.666 12 30.999 22z" />
    <glyph glyph-name="ograve" unicode="&#xf2;" horiz-adv-x="701" 
d="M143 276c0 -32 5.33301 -60.5 16 -85.5s25.334 -46.167 44.001 -63.5s40.5 -30.5 65.5 -39.5s52.167 -13.5 81.5 -13.5s56.666 4.5 81.999 13.5s47.333 22.167 66 39.5s33.334 38.5 44.001 63.5s16 53.5 16 85.5s-5.33301 60.5 -16 85.5s-25.334 46.167 -44.001 63.5
s-40.667 30.5 -66 39.5s-52.666 13.5 -81.999 13.5s-56.5 -4.5 -81.5 -13.5s-46.833 -22.167 -65.5 -39.5s-33.334 -38.5 -44.001 -63.5s-16 -53.5 -16 -85.5zM659 276c0 -44 -8 -83.833 -24 -119.5s-38 -66.167 -66 -91.5s-60.833 -44.833 -98.5 -58.5
s-77.834 -20.5 -120.501 -20.5s-82.834 6.83301 -120.501 20.5s-70.5 33.167 -98.5 58.5s-50 55.833 -66 91.5s-24 75.5 -24 119.5s8 83.833 24 119.5s38 66.167 66 91.5s60.833 44.833 98.5 58.5s77.834 20.5 120.501 20.5s82.834 -6.83301 120.501 -20.5
s70.5 -33.167 98.5 -58.5s50 -55.833 66 -91.5s24 -75.5 24 -119.5zM389 627l-85 -20l-50 182l87 21z" />
    <glyph glyph-name="oacute" unicode="&#xf3;" horiz-adv-x="701" 
d="M143 276c0 -32 5.33301 -60.5 16 -85.5s25.334 -46.167 44.001 -63.5s40.5 -30.5 65.5 -39.5s52.167 -13.5 81.5 -13.5s56.666 4.5 81.999 13.5s47.333 22.167 66 39.5s33.334 38.5 44.001 63.5s16 53.5 16 85.5s-5.33301 60.5 -16 85.5s-25.334 46.167 -44.001 63.5
s-40.667 30.5 -66 39.5s-52.666 13.5 -81.999 13.5s-56.5 -4.5 -81.5 -13.5s-46.833 -22.167 -65.5 -39.5s-33.334 -38.5 -44.001 -63.5s-16 -53.5 -16 -85.5zM659 276c0 -44 -8 -83.833 -24 -119.5s-38 -66.167 -66 -91.5s-60.833 -44.833 -98.5 -58.5
s-77.834 -20.5 -120.501 -20.5s-82.834 6.83301 -120.501 20.5s-70.5 33.167 -98.5 58.5s-50 55.833 -66 91.5s-24 75.5 -24 119.5s8 83.833 24 119.5s38 66.167 66 91.5s60.833 44.833 98.5 58.5s77.834 20.5 120.501 20.5s82.834 -6.83301 120.501 -20.5
s70.5 -33.167 98.5 -58.5s50 -55.833 66 -91.5s24 -75.5 24 -119.5zM361 810l87 -21l-50 -182l-85 20z" />
    <glyph glyph-name="ocircumflex" unicode="&#xf4;" horiz-adv-x="701" 
d="M143 276c0 -32 5.33301 -60.5 16 -85.5s25.334 -46.167 44.001 -63.5s40.5 -30.5 65.5 -39.5s52.167 -13.5 81.5 -13.5s56.666 4.5 81.999 13.5s47.333 22.167 66 39.5s33.334 38.5 44.001 63.5s16 53.5 16 85.5s-5.33301 60.5 -16 85.5s-25.334 46.167 -44.001 63.5
s-40.667 30.5 -66 39.5s-52.666 13.5 -81.999 13.5s-56.5 -4.5 -81.5 -13.5s-46.833 -22.167 -65.5 -39.5s-33.334 -38.5 -44.001 -63.5s-16 -53.5 -16 -85.5zM659 276c0 -44 -8 -83.833 -24 -119.5s-38 -66.167 -66 -91.5s-60.833 -44.833 -98.5 -58.5
s-77.834 -20.5 -120.501 -20.5s-82.834 6.83301 -120.501 20.5s-70.5 33.167 -98.5 58.5s-50 55.833 -66 91.5s-24 75.5 -24 119.5s8 83.833 24 119.5s38 66.167 66 91.5s60.833 44.833 98.5 58.5s77.834 20.5 120.501 20.5s82.834 -6.83301 120.501 -20.5
s70.5 -33.167 98.5 -58.5s50 -55.833 66 -91.5s24 -75.5 24 -119.5zM349 669l-109 -68l-40 53l149 110l150 -110l-42 -53z" />
    <glyph glyph-name="otilde" unicode="&#xf5;" horiz-adv-x="701" 
d="M143 276c0 -32 5.33301 -60.5 16 -85.5s25.334 -46.167 44.001 -63.5s40.5 -30.5 65.5 -39.5s52.167 -13.5 81.5 -13.5s56.666 4.5 81.999 13.5s47.333 22.167 66 39.5s33.334 38.5 44.001 63.5s16 53.5 16 85.5s-5.33301 60.5 -16 85.5s-25.334 46.167 -44.001 63.5
s-40.667 30.5 -66 39.5s-52.666 13.5 -81.999 13.5s-56.5 -4.5 -81.5 -13.5s-46.833 -22.167 -65.5 -39.5s-33.334 -38.5 -44.001 -63.5s-16 -53.5 -16 -85.5zM659 276c0 -44 -8 -83.833 -24 -119.5s-38 -66.167 -66 -91.5s-60.833 -44.833 -98.5 -58.5
s-77.834 -20.5 -120.501 -20.5s-82.834 6.83301 -120.501 20.5s-70.5 33.167 -98.5 58.5s-50 55.833 -66 91.5s-24 75.5 -24 119.5s8 83.833 24 119.5s38 66.167 66 91.5s60.833 44.833 98.5 58.5s77.834 20.5 120.501 20.5s82.834 -6.83301 120.501 -20.5
s70.5 -33.167 98.5 -58.5s50 -55.833 66 -91.5s24 -75.5 24 -119.5zM532 678c-13.333 -21.333 -29.166 -36.998 -47.499 -46.998s-40.5 -15 -66.5 -15c-14.667 0 -27.834 2 -39.501 6s-23 8.33301 -34 13s-21.833 9 -32.5 13s-22.334 6 -35.001 6
c-17.333 0 -32.166 -3.33301 -44.499 -10s-23.166 -16 -32.499 -28l-48 48c30.667 48 73.334 72 128.001 72c17.333 0 32.166 -1.83301 44.499 -5.5s23.5 -7.83398 33.5 -12.501s19.667 -8.83398 29 -12.501s20 -5.5 32 -5.5c16.667 0 30.667 2.33301 42 7
s21.666 12 30.999 22z" />
    <glyph glyph-name="odieresis" unicode="&#xf6;" horiz-adv-x="701" 
d="M143 276c0 -32 5.33301 -60.5 16 -85.5s25.334 -46.167 44.001 -63.5s40.5 -30.5 65.5 -39.5s52.167 -13.5 81.5 -13.5s56.666 4.5 81.999 13.5s47.333 22.167 66 39.5s33.334 38.5 44.001 63.5s16 53.5 16 85.5s-5.33301 60.5 -16 85.5s-25.334 46.167 -44.001 63.5
s-40.667 30.5 -66 39.5s-52.666 13.5 -81.999 13.5s-56.5 -4.5 -81.5 -13.5s-46.833 -22.167 -65.5 -39.5s-33.334 -38.5 -44.001 -63.5s-16 -53.5 -16 -85.5zM659 276c0 -44 -8 -83.833 -24 -119.5s-38 -66.167 -66 -91.5s-60.833 -44.833 -98.5 -58.5
s-77.834 -20.5 -120.501 -20.5s-82.834 6.83301 -120.501 20.5s-70.5 33.167 -98.5 58.5s-50 55.833 -66 91.5s-24 75.5 -24 119.5s8 83.833 24 119.5s38 66.167 66 91.5s60.833 44.833 98.5 58.5s77.834 20.5 120.501 20.5s82.834 -6.83301 120.501 -20.5
s70.5 -33.167 98.5 -58.5s50 -55.833 66 -91.5s24 -75.5 24 -119.5zM231 746c18.667 0 34.334 -6.33301 47.001 -19s19 -27.667 19 -45c0 -18 -6.33301 -33.5 -19 -46.5s-28.334 -19.5 -47.001 -19.5c-18 0 -33.333 6.5 -46 19.5s-19 28.5 -19 46.5
c0 17.333 6.33301 32.333 19 45s28 19 46 19zM468 746c18.667 0 34.5 -6.33301 47.5 -19s19.5 -27.667 19.5 -45c0 -18 -6.5 -33.5 -19.5 -46.5s-28.833 -19.5 -47.5 -19.5c-17.333 0 -32.5 6.5 -45.5 19.5s-19.5 28.5 -19.5 46.5c0 17.333 6.5 32.333 19.5 45
s28.167 19 45.5 19z" />
    <glyph glyph-name="divide" unicode="&#xf7;" horiz-adv-x="383" 
d="M193 509c19.333 0 35.666 -6.66699 48.999 -20s20 -29.666 20 -48.999s-6.66699 -35.666 -20 -48.999s-29.666 -20 -48.999 -20s-35.833 6.66699 -49.5 20s-20.5 29.666 -20.5 48.999s6.83301 35.666 20.5 48.999s30.167 20 49.5 20zM193 194
c19.333 0 35.666 -6.49805 48.999 -19.498s20 -29.167 20 -48.5s-6.66699 -35.333 -20 -48s-29.666 -19 -48.999 -19s-35.833 6.16699 -49.5 18.5s-20.5 28.166 -20.5 47.499s6.83301 35.666 20.5 48.999s30.167 20 49.5 20zM349 320.002v-82h-316v82h316z" />
    <glyph glyph-name="oslash" unicode="&#xf8;" horiz-adv-x="690" 
d="M563 548l-22.999 -39.001c36 -25.333 64.833 -57.666 86.5 -96.999s32.5 -84.333 32.5 -135c0 -44 -8 -83.833 -24 -119.5s-38 -66.167 -66 -91.5s-60.833 -44.833 -98.5 -58.5s-77.834 -20.5 -120.501 -20.5c-18.667 0 -36.667 1.33301 -54 4
s-34.333 6.33398 -51 11.001l-26 -44l-77 42l23 40c-38 25.333 -68.167 58.166 -90.5 98.499s-33.5 86.5 -33.5 138.5c0 43.333 8 82.833 24 118.5s38 66.167 66 91.5s60.833 44.833 98.5 58.5s77.834 20.5 120.501 20.5c37.333 0 73.666 -5.66699 108.999 -17l24 41z
M412.001 468.999c-19.333 6 -39.998 9.00098 -61.998 9.00098c-29.333 0 -56.5 -4.5 -81.5 -13.5s-46.833 -22.167 -65.5 -39.5s-33.334 -38.333 -44.001 -63s-16 -53 -16 -85c0 -34.667 6.16699 -64.834 18.5 -90.501s29.166 -47.167 50.499 -64.5zM292.003 82
c18 -4 37.333 -6 58 -6c29.333 0 56.666 4.5 81.999 13.5s47.333 22.167 66 39.5s33.334 38.333 44.001 63s16 53 16 85c0 32.667 -5.83301 61.5 -17.5 86.5s-27.5 46.167 -47.5 63.5z" />
    <glyph glyph-name="ugrave" unicode="&#xf9;" 
d="M150 553l0.000976562 -283c0 -59.333 14.333 -106.5 43 -141.5s74 -52.5 136 -52.5s107.5 17.5 136.5 52.5s43.5 82.167 43.5 141.5v283h101v-282c0 -46 -6.5 -86.667 -19.5 -122s-31.833 -65 -56.5 -89s-54.334 -42.333 -89.001 -55s-73.334 -19 -116.001 -19
c-43.333 0 -82.166 6.33301 -116.499 19s-63.833 31 -88.5 55s-43.5 53.667 -56.5 89s-19.5 76 -19.5 122v282h102zM373.001 627l-85 -20l-50 182l87 21z" />
    <glyph glyph-name="uacute" unicode="&#xfa;" 
d="M150 553l0.000976562 -283c0 -59.333 14.333 -106.5 43 -141.5s74 -52.5 136 -52.5s107.5 17.5 136.5 52.5s43.5 82.167 43.5 141.5v283h101v-282c0 -46 -6.5 -86.667 -19.5 -122s-31.833 -65 -56.5 -89s-54.334 -42.333 -89.001 -55s-73.334 -19 -116.001 -19
c-43.333 0 -82.166 6.33301 -116.499 19s-63.833 31 -88.5 55s-43.5 53.667 -56.5 89s-19.5 76 -19.5 122v282h102zM328.001 810l87 -21l-50 -182l-85 20z" />
    <glyph glyph-name="ucircumflex" unicode="&#xfb;" 
d="M150 553l0.000976562 -283c0 -59.333 14.333 -106.5 43 -141.5s74 -52.5 136 -52.5s107.5 17.5 136.5 52.5s43.5 82.167 43.5 141.5v283h101v-282c0 -46 -6.5 -86.667 -19.5 -122s-31.833 -65 -56.5 -89s-54.334 -42.333 -89.001 -55s-73.334 -19 -116.001 -19
c-43.333 0 -82.166 6.33301 -116.499 19s-63.833 31 -88.5 55s-43.5 53.667 -56.5 89s-19.5 76 -19.5 122v282h102zM329.001 669l-109 -68l-40 53l149 110l150 -110l-42 -53z" />
    <glyph glyph-name="udieresis" unicode="&#xfc;" 
d="M150 553l0.000976562 -283c0 -59.333 14.333 -106.5 43 -141.5s74 -52.5 136 -52.5s107.5 17.5 136.5 52.5s43.5 82.167 43.5 141.5v283h101v-282c0 -46 -6.5 -86.667 -19.5 -122s-31.833 -65 -56.5 -89s-54.334 -42.333 -89.001 -55s-73.334 -19 -116.001 -19
c-43.333 0 -82.166 6.33301 -116.499 19s-63.833 31 -88.5 55s-43.5 53.667 -56.5 89s-19.5 76 -19.5 122v282h102zM210.001 746c18.667 0 34.334 -6.33301 47.001 -19s19 -27.667 19 -45c0 -18 -6.33301 -33.5 -19 -46.5s-28.334 -19.5 -47.001 -19.5
c-18 0 -33.333 6.5 -46 19.5s-19 28.5 -19 46.5c0 17.333 6.33301 32.333 19 45s28 19 46 19zM447.001 746c18.667 0 34.5 -6.33301 47.5 -19s19.5 -27.667 19.5 -45c0 -18 -6.5 -33.5 -19.5 -46.5s-28.833 -19.5 -47.5 -19.5c-17.333 0 -32.5 6.5 -45.5 19.5
s-19.5 28.5 -19.5 46.5c0 17.333 6.5 32.333 19.5 45s28.167 19 45.5 19z" />
    <glyph glyph-name="yacute" unicode="&#xfd;" horiz-adv-x="686" 
d="M146 553l194 -314h12l188 314h116l-263 -415v-138h-100v138l-263 415h116zM350 810l87 -21l-50 -182l-85 20z" />
    <glyph glyph-name="thorn" unicode="&#xfe;" horiz-adv-x="615" 
d="M155 553v-67h210c29.333 0 57 -5.33301 83 -16s48.5 -25.5 67.5 -44.5s34 -41.333 45 -67s16.5 -53.167 16.5 -82.5s-5.5 -56.666 -16.5 -81.999s-26 -47.333 -45 -66s-41.5 -33.334 -67.5 -44.001s-53.667 -16 -83 -16h-210v-68h-102v553h102zM155 160
l206.001 0.000976562c19.333 0 36.166 3.16699 50.499 9.5s26.333 14.666 36 24.999s17 22.5 22 36.5s7.5 29 7.5 45c0 32 -9.66699 59.667 -29 83s-48.333 35 -87 35h-206v-234z" />
    <glyph glyph-name="ydieresis" unicode="&#xff;" horiz-adv-x="686" 
d="M146 553l194 -314h12l188 314h116l-263 -415v-138h-100v138l-263 415h116zM223 746c18.667 0 34.334 -6.33301 47.001 -19s19 -27.667 19 -45c0 -18 -6.33301 -33.5 -19 -46.5s-28.334 -19.5 -47.001 -19.5c-18 0 -33.333 6.5 -46 19.5s-19 28.5 -19 46.5
c0 17.333 6.33301 32.333 19 45s28 19 46 19zM460 746c18.667 0 34.5 -6.33301 47.5 -19s19.5 -27.667 19.5 -45c0 -18 -6.5 -33.5 -19.5 -46.5s-28.833 -19.5 -47.5 -19.5c-17.333 0 -32.5 6.5 -45.5 19.5s-19.5 28.5 -19.5 46.5c0 17.333 6.5 32.333 19.5 45
s28.167 19 45.5 19z" />
    <glyph glyph-name="Amacron" unicode="&#x100;" horiz-adv-x="735" 
d="M218 177h298l-116 285h-63zM467 553l235 -553h-107l-38 87h-377l-38 -87h-109l242 553h192zM548 707v-81h-362v81h362z" />
    <glyph glyph-name="amacron" unicode="&#x101;" horiz-adv-x="735" 
d="M218 177h298l-116 285h-63zM467 553l235 -553h-107l-38 87h-377l-38 -87h-109l242 553h192zM555 707v-81h-362v81h362z" />
    <glyph glyph-name="Abreve" unicode="&#x102;" horiz-adv-x="735" 
d="M218 177h298l-116 285h-63zM467 553l235 -553h-107l-38 87h-377l-38 -87h-109l242 553h192zM526 681c-25.333 -28 -50.8311 -47.167 -76.498 -57.5s-53.167 -15.5 -82.5 -15.5s-56.833 5.16699 -82.5 15.5s-51.5 29.5 -77.5 57.5l52 53
c15.333 -15.333 31.333 -26.833 48 -34.5s36.667 -11.5 60 -11.5s43.166 3.83301 59.499 11.5s32.166 19.167 47.499 34.5z" />
    <glyph glyph-name="abreve" unicode="&#x103;" horiz-adv-x="735" 
d="M218 177h298l-116 285h-63zM467 553l235 -553h-107l-38 87h-377l-38 -87h-109l242 553h192zM526 681c-25.333 -28 -50.8311 -47.167 -76.498 -57.5s-53.167 -15.5 -82.5 -15.5s-56.833 5.16699 -82.5 15.5s-51.5 29.5 -77.5 57.5l52 53
c15.333 -15.333 31.333 -26.833 48 -34.5s36.667 -11.5 60 -11.5s43.166 3.83301 59.499 11.5s32.166 19.167 47.499 34.5z" />
    <glyph glyph-name="Aogonek" unicode="&#x104;" horiz-adv-x="735" 
d="M466 553l235.999 -553c-9.33301 -12 -15.833 -23.667 -19.5 -35s-5.5 -23.666 -5.5 -36.999c0 -19.333 3.5 -35.833 10.5 -49.5s18.167 -27.167 33.5 -40.5l-48 -39c-25.333 11.333 -44.666 26.666 -57.999 45.999s-20 40.333 -20 63c0 20 3 37.167 9 51.5
s15.667 27.833 29 40.5h-36l-38 87h-380l-38 -87h-108l243 553h190zM215.999 176h302l-115 284h-69z" />
    <glyph glyph-name="aogonek" unicode="&#x105;" horiz-adv-x="735" 
d="M466 553l235.999 -553c-9.33301 -12 -15.833 -23.667 -19.5 -35s-5.5 -23.666 -5.5 -36.999c0 -19.333 3.5 -35.833 10.5 -49.5s18.167 -27.167 33.5 -40.5l-48 -39c-25.333 11.333 -44.666 26.666 -57.999 45.999s-20 40.333 -20 63c0 20 3 37.167 9 51.5
s15.667 27.833 29 40.5h-36l-38 87h-380l-38 -87h-108l243 553h190zM215.999 176h302l-115 284h-69z" />
    <glyph glyph-name="Cacute" unicode="&#x106;" 
d="M542 381c-22 30 -48.8359 53.166 -80.5029 69.499s-70.5 24.5 -116.5 24.5c-31.333 0 -59.5 -4.66699 -84.5 -14s-46.333 -22.666 -64 -39.999s-31.334 -38.333 -41.001 -63s-14.5 -52 -14.5 -82c0 -29.333 5 -56.166 15 -80.499s24 -45.333 42 -63
s39.5 -31.334 64.5 -41.001s52.5 -14.5 82.5 -14.5c46 0 84.5 8.16699 115.5 24.5s58.167 39.833 81.5 70.5l80 -47c-29.333 -44.667 -66.666 -79 -111.999 -103s-99.666 -36 -162.999 -36c-44 0 -84.667 6.66699 -122 20s-69.833 32.5 -97.5 57.5s-49.167 55.5 -64.5 91.5
s-23 76.333 -23 121s7.83301 85 23.5 121s37.334 66.5 65.001 91.5s60.167 44.167 97.5 57.5s77.666 20 120.999 20c62.667 0 116.834 -11.833 162.501 -35.5s82.834 -58.167 111.501 -103.5zM333.997 809.999l87 -21l-50 -182l-85 20z" />
    <glyph glyph-name="cacute" unicode="&#x107;" 
d="M542 381c-22 30 -48.8359 53.166 -80.5029 69.499s-70.5 24.5 -116.5 24.5c-31.333 0 -59.5 -4.66699 -84.5 -14s-46.333 -22.666 -64 -39.999s-31.334 -38.333 -41.001 -63s-14.5 -52 -14.5 -82c0 -29.333 5 -56.166 15 -80.499s24 -45.333 42 -63
s39.5 -31.334 64.5 -41.001s52.5 -14.5 82.5 -14.5c46 0 84.5 8.16699 115.5 24.5s58.167 39.833 81.5 70.5l80 -47c-29.333 -44.667 -66.666 -79 -111.999 -103s-99.666 -36 -162.999 -36c-44 0 -84.667 6.66699 -122 20s-69.833 32.5 -97.5 57.5s-49.167 55.5 -64.5 91.5
s-23 76.333 -23 121s7.83301 85 23.5 121s37.334 66.5 65.001 91.5s60.167 44.167 97.5 57.5s77.666 20 120.999 20c62.667 0 116.834 -11.833 162.501 -35.5s82.834 -58.167 111.501 -103.5zM368.997 809.999l87 -21l-50 -182l-85 20z" />
    <glyph glyph-name="Ccircumflex" unicode="&#x108;" 
d="M542 381c-22 30 -48.8359 53.166 -80.5029 69.499s-70.5 24.5 -116.5 24.5c-31.333 0 -59.5 -4.66699 -84.5 -14s-46.333 -22.666 -64 -39.999s-31.334 -38.333 -41.001 -63s-14.5 -52 -14.5 -82c0 -29.333 5 -56.166 15 -80.499s24 -45.333 42 -63
s39.5 -31.334 64.5 -41.001s52.5 -14.5 82.5 -14.5c46 0 84.5 8.16699 115.5 24.5s58.167 39.833 81.5 70.5l80 -47c-29.333 -44.667 -66.666 -79 -111.999 -103s-99.666 -36 -162.999 -36c-44 0 -84.667 6.66699 -122 20s-69.833 32.5 -97.5 57.5s-49.167 55.5 -64.5 91.5
s-23 76.333 -23 121s7.83301 85 23.5 121s37.334 66.5 65.001 91.5s60.167 44.167 97.5 57.5s77.666 20 120.999 20c62.667 0 116.834 -11.833 162.501 -35.5s82.834 -58.167 111.501 -103.5zM340.997 668.999l-109 -68l-40 53l149 110l150 -110l-42 -53z" />
    <glyph glyph-name="ccircumflex" unicode="&#x109;" 
d="M542 381c-22 30 -48.8359 53.166 -80.5029 69.499s-70.5 24.5 -116.5 24.5c-31.333 0 -59.5 -4.66699 -84.5 -14s-46.333 -22.666 -64 -39.999s-31.334 -38.333 -41.001 -63s-14.5 -52 -14.5 -82c0 -29.333 5 -56.166 15 -80.499s24 -45.333 42 -63
s39.5 -31.334 64.5 -41.001s52.5 -14.5 82.5 -14.5c46 0 84.5 8.16699 115.5 24.5s58.167 39.833 81.5 70.5l80 -47c-29.333 -44.667 -66.666 -79 -111.999 -103s-99.666 -36 -162.999 -36c-44 0 -84.667 6.66699 -122 20s-69.833 32.5 -97.5 57.5s-49.167 55.5 -64.5 91.5
s-23 76.333 -23 121s7.83301 85 23.5 121s37.334 66.5 65.001 91.5s60.167 44.167 97.5 57.5s77.666 20 120.999 20c62.667 0 116.834 -11.833 162.501 -35.5s82.834 -58.167 111.501 -103.5zM349.997 668.999l-109 -68l-40 53l149 110l150 -110l-42 -53z" />
    <glyph glyph-name="Cdotaccent" unicode="&#x10a;" 
d="M542 381c-22 30 -48.8359 53.166 -80.5029 69.499s-70.5 24.5 -116.5 24.5c-31.333 0 -59.5 -4.66699 -84.5 -14s-46.333 -22.666 -64 -39.999s-31.334 -38.333 -41.001 -63s-14.5 -52 -14.5 -82c0 -29.333 5 -56.166 15 -80.499s24 -45.333 42 -63
s39.5 -31.334 64.5 -41.001s52.5 -14.5 82.5 -14.5c46 0 84.5 8.16699 115.5 24.5s58.167 39.833 81.5 70.5l80 -47c-29.333 -44.667 -66.666 -79 -111.999 -103s-99.666 -36 -162.999 -36c-44 0 -84.667 6.66699 -122 20s-69.833 32.5 -97.5 57.5s-49.167 55.5 -64.5 91.5
s-23 76.333 -23 121s7.83301 85 23.5 121s37.334 66.5 65.001 91.5s60.167 44.167 97.5 57.5s77.666 20 120.999 20c62.667 0 116.834 -11.833 162.501 -35.5s82.834 -58.167 111.501 -103.5zM341.997 745.999c19.333 0 35.5 -6.33301 48.5 -19s19.5 -28 19.5 -46
c0 -18.667 -6.5 -34.667 -19.5 -48s-29.167 -20 -48.5 -20c-18.667 0 -34.5 6.66699 -47.5 20s-19.5 29.333 -19.5 48c0 18 6.5 33.333 19.5 46s28.833 19 47.5 19z" />
    <glyph glyph-name="cdotaccent" unicode="&#x10b;" 
d="M542 381c-22 30 -48.8359 53.166 -80.5029 69.499s-70.5 24.5 -116.5 24.5c-31.333 0 -59.5 -4.66699 -84.5 -14s-46.333 -22.666 -64 -39.999s-31.334 -38.333 -41.001 -63s-14.5 -52 -14.5 -82c0 -29.333 5 -56.166 15 -80.499s24 -45.333 42 -63
s39.5 -31.334 64.5 -41.001s52.5 -14.5 82.5 -14.5c46 0 84.5 8.16699 115.5 24.5s58.167 39.833 81.5 70.5l80 -47c-29.333 -44.667 -66.666 -79 -111.999 -103s-99.666 -36 -162.999 -36c-44 0 -84.667 6.66699 -122 20s-69.833 32.5 -97.5 57.5s-49.167 55.5 -64.5 91.5
s-23 76.333 -23 121s7.83301 85 23.5 121s37.334 66.5 65.001 91.5s60.167 44.167 97.5 57.5s77.666 20 120.999 20c62.667 0 116.834 -11.833 162.501 -35.5s82.834 -58.167 111.501 -103.5zM352.997 745.999c19.333 0 35.5 -6.33301 48.5 -19s19.5 -28 19.5 -46
c0 -18.667 -6.5 -34.667 -19.5 -48s-29.167 -20 -48.5 -20c-18.667 0 -34.5 6.66699 -47.5 20s-19.5 29.333 -19.5 48c0 18 6.5 33.333 19.5 46s28.833 19 47.5 19z" />
    <glyph glyph-name="Ccaron" unicode="&#x10c;" 
d="M542 381c-22 30 -48.8359 53.166 -80.5029 69.499s-70.5 24.5 -116.5 24.5c-31.333 0 -59.5 -4.66699 -84.5 -14s-46.333 -22.666 -64 -39.999s-31.334 -38.333 -41.001 -63s-14.5 -52 -14.5 -82c0 -29.333 5 -56.166 15 -80.499s24 -45.333 42 -63
s39.5 -31.334 64.5 -41.001s52.5 -14.5 82.5 -14.5c46 0 84.5 8.16699 115.5 24.5s58.167 39.833 81.5 70.5l80 -47c-29.333 -44.667 -66.666 -79 -111.999 -103s-99.666 -36 -162.999 -36c-44 0 -84.667 6.66699 -122 20s-69.833 32.5 -97.5 57.5s-49.167 55.5 -64.5 91.5
s-23 76.333 -23 121s7.83301 85 23.5 121s37.334 66.5 65.001 91.5s60.167 44.167 97.5 57.5s77.666 20 120.999 20c62.667 0 116.834 -11.833 162.501 -35.5s82.834 -58.167 111.501 -103.5zM343.997 692.999l109 68l40 -53l-149 -110l-150 110l42 53z" />
    <glyph glyph-name="ccaron" unicode="&#x10d;" 
d="M542 381c-22 30 -48.8359 53.166 -80.5029 69.499s-70.5 24.5 -116.5 24.5c-31.333 0 -59.5 -4.66699 -84.5 -14s-46.333 -22.666 -64 -39.999s-31.334 -38.333 -41.001 -63s-14.5 -52 -14.5 -82c0 -29.333 5 -56.166 15 -80.499s24 -45.333 42 -63
s39.5 -31.334 64.5 -41.001s52.5 -14.5 82.5 -14.5c46 0 84.5 8.16699 115.5 24.5s58.167 39.833 81.5 70.5l80 -47c-29.333 -44.667 -66.666 -79 -111.999 -103s-99.666 -36 -162.999 -36c-44 0 -84.667 6.66699 -122 20s-69.833 32.5 -97.5 57.5s-49.167 55.5 -64.5 91.5
s-23 76.333 -23 121s7.83301 85 23.5 121s37.334 66.5 65.001 91.5s60.167 44.167 97.5 57.5s77.666 20 120.999 20c62.667 0 116.834 -11.833 162.501 -35.5s82.834 -58.167 111.501 -103.5zM355.997 692.999l109 68l40 -53l-149 -110l-150 110l42 53z" />
    <glyph glyph-name="Dcaron" unicode="&#x10e;" horiz-adv-x="670" 
d="M332 553c38.667 0 76 -6.5 112 -19.5s67.833 -31.5 95.5 -55.5s49.667 -53 66 -87s24.5 -72 24.5 -114s-8.33301 -80.167 -25 -114.5s-38.667 -63.5 -66 -87.5s-59 -42.5 -95 -55.5s-73.333 -19.5 -112 -19.5h-279v553h279zM155 93h175c29.333 0 56.166 4.5 80.499 13.5
s45.166 21.5 62.499 37.5s30.833 35.333 40.5 58s14.5 47.667 14.5 75s-4.83301 52.333 -14.5 75s-23.167 42 -40.5 58s-38.166 28.5 -62.499 37.5s-51.166 13.5 -80.499 13.5h-175v-368zM304 693l109 68l40 -53l-149 -110l-150 110l42 53z" />
    <glyph glyph-name="dcaron" unicode="&#x10f;" horiz-adv-x="670" 
d="M332 553c38.667 0 76 -6.5 112 -19.5s67.833 -31.5 95.5 -55.5s49.667 -53 66 -87s24.5 -72 24.5 -114s-8.33301 -80.167 -25 -114.5s-38.667 -63.5 -66 -87.5s-59 -42.5 -95 -55.5s-73.333 -19.5 -112 -19.5h-279v553h279zM155 93h175c29.333 0 56.166 4.5 80.499 13.5
s45.166 21.5 62.499 37.5s30.833 35.333 40.5 58s14.5 47.667 14.5 75s-4.83301 52.333 -14.5 75s-23.167 42 -40.5 58s-38.166 28.5 -62.499 37.5s-51.166 13.5 -80.499 13.5h-175v-368zM304 693l109 68l40 -53l-149 -110l-150 110l42 53z" />
    <glyph glyph-name="Dcroat" unicode="&#x110;" horiz-adv-x="691" 
d="M354 553c38.667 0 76.002 -6.5 112.002 -19.5s67.667 -31.5 95 -55.5s49.166 -53 65.499 -87s24.5 -72 24.5 -114s-8.33301 -80.167 -25 -114.5s-38.667 -63.5 -66 -87.5s-58.833 -42.5 -94.5 -55.5s-72.834 -19.5 -111.501 -19.5h-279v241h-65v90h65v222h279z
M176.002 331h149v-90h-149v-148h175c29.333 0 56.166 4.5 80.499 13.5s45.333 21.5 63 37.5s31.334 35.333 41.001 58s14.5 47.667 14.5 75s-4.83301 52.333 -14.5 75s-23.334 42 -41.001 58s-38.667 28.5 -63 37.5s-51.166 13.5 -80.499 13.5h-175v-130z" />
    <glyph glyph-name="dcroat" unicode="&#x111;" horiz-adv-x="691" 
d="M354 553c38.667 0 76.002 -6.5 112.002 -19.5s67.667 -31.5 95 -55.5s49.166 -53 65.499 -87s24.5 -72 24.5 -114s-8.33301 -80.167 -25 -114.5s-38.667 -63.5 -66 -87.5s-58.833 -42.5 -94.5 -55.5s-72.834 -19.5 -111.501 -19.5h-279v241h-65v90h65v222h279z
M176.002 331h149v-90h-149v-148h175c29.333 0 56.166 4.5 80.499 13.5s45.333 21.5 63 37.5s31.334 35.333 41.001 58s14.5 47.667 14.5 75s-4.83301 52.333 -14.5 75s-23.334 42 -41.001 58s-38.667 28.5 -63 37.5s-51.166 13.5 -80.499 13.5h-175v-130z" />
    <glyph glyph-name="Emacron" unicode="&#x112;" horiz-adv-x="608" 
d="M548 553v-92h-393v-133h354v-91h-354v-144h408v-93h-510v553h495zM489 707v-81h-362v81h362z" />
    <glyph glyph-name="emacron" unicode="&#x113;" horiz-adv-x="608" 
d="M548 553v-92h-393v-133h354v-91h-354v-144h408v-93h-510v553h495zM493 707v-81h-362v81h362z" />
    <glyph glyph-name="Ebreve" unicode="&#x114;" horiz-adv-x="608" 
d="M548 553v-92h-393v-133h354v-91h-354v-144h408v-93h-510v553h495zM474 686c-25.333 -28 -50.8311 -47.167 -76.498 -57.5s-53.167 -15.5 -82.5 -15.5s-56.833 5.16699 -82.5 15.5s-51.5 29.5 -77.5 57.5l52 53c15.333 -15.333 31.333 -26.833 48 -34.5
s36.667 -11.5 60 -11.5s43.166 3.83301 59.499 11.5s32.166 19.167 47.499 34.5z" />
    <glyph glyph-name="ebreve" unicode="&#x115;" horiz-adv-x="608" 
d="M548 553v-92h-393v-133h354v-91h-354v-144h408v-93h-510v553h495zM466 686c-25.333 -28 -50.8311 -47.167 -76.498 -57.5s-53.167 -15.5 -82.5 -15.5s-56.833 5.16699 -82.5 15.5s-51.5 29.5 -77.5 57.5l52 53c15.333 -15.333 31.333 -26.833 48 -34.5
s36.667 -11.5 60 -11.5s43.166 3.83301 59.499 11.5s32.166 19.167 47.499 34.5z" />
    <glyph glyph-name="Edotaccent" unicode="&#x116;" horiz-adv-x="608" 
d="M548 553v-92h-393v-133h354v-91h-354v-144h408v-93h-510v553h495zM311 746c19.333 0 35.5 -6.33301 48.5 -19s19.5 -28 19.5 -46c0 -18.667 -6.5 -34.667 -19.5 -48s-29.167 -20 -48.5 -20c-18.667 0 -34.5 6.66699 -47.5 20s-19.5 29.333 -19.5 48
c0 18 6.5 33.333 19.5 46s28.833 19 47.5 19z" />
    <glyph glyph-name="edotaccent" unicode="&#x117;" horiz-adv-x="608" 
d="M548 553v-92h-393v-133h354v-91h-354v-144h408v-93h-510v553h495zM311 746c19.333 0 35.5 -6.33301 48.5 -19s19.5 -28 19.5 -46c0 -18.667 -6.5 -34.667 -19.5 -48s-29.167 -20 -48.5 -20c-18.667 0 -34.5 6.66699 -47.5 20s-19.5 29.333 -19.5 48
c0 18 6.5 33.333 19.5 46s28.833 19 47.5 19z" />
    <glyph glyph-name="Eogonek" unicode="&#x118;" horiz-adv-x="608" 
d="M548 553v-92h-393v-132h354v-92h-354v-144h408v-93c-12.667 -12.667 -20.834 -24.667 -24.501 -36s-5.5 -23.333 -5.5 -36c0 -19.333 3.5 -35.833 10.5 -49.5s18.167 -27.167 33.5 -40.5l-47 -41c-25.333 11.333 -44.666 27 -57.999 47s-20 41.333 -20 64
c0 20 3.16699 37.333 9.5 52s16.833 28 31.5 40h-440v553h495z" />
    <glyph glyph-name="eogonek" unicode="&#x119;" horiz-adv-x="608" 
d="M548 553v-92h-393v-132h354v-92h-354v-144h408v-93c-12.667 -12.667 -20.834 -24.667 -24.501 -36s-5.5 -23.333 -5.5 -36c0 -19.333 3.5 -35.833 10.5 -49.5s18.167 -27.167 33.5 -40.5l-47 -41c-25.333 11.333 -44.666 27 -57.999 47s-20 41.333 -20 64
c0 20 3.16699 37.333 9.5 52s16.833 28 31.5 40h-440v553h495z" />
    <glyph glyph-name="Ecaron" unicode="&#x11a;" horiz-adv-x="608" 
d="M548 553v-92h-393v-133h354v-91h-354v-144h408v-93h-510v553h495zM315 693l109 68l40 -53l-149 -110l-150 110l42 53z" />
    <glyph glyph-name="ecaron" unicode="&#x11b;" horiz-adv-x="608" 
d="M548 553v-92h-393v-133h354v-91h-354v-144h408v-93h-510v553h495zM315 693l109 68l40 -53l-149 -110l-150 110l42 53z" />
    <glyph glyph-name="Gcircumflex" unicode="&#x11c;" horiz-adv-x="689" 
d="M633 314v-314.001h-65l-15 51c-27.333 -21.333 -56.833 -37.5 -88.5 -48.5s-70.5 -16.5 -116.5 -16.5c-44 0 -84.833 6.66699 -122.5 20s-70.167 32.5 -97.5 57.5s-48.833 55.5 -64.5 91.5s-23.5 76.333 -23.5 121s7.83301 85 23.5 121s37.334 66.5 65.001 91.5
s60.334 44.167 98.001 57.5s78.167 20 121.5 20c62.667 0 116 -11.167 160 -33.5s81.333 -55.5 112 -99.5l-80 -46c-23.333 29.333 -49.833 51 -79.5 65s-68.167 21 -115.5 21c-31.333 0 -59.5 -4.66699 -84.5 -14s-46.333 -22.5 -64 -39.5s-31.334 -37.667 -41.001 -62
s-14.5 -51.5 -14.5 -81.5s5 -57 15 -81s24 -44.667 42 -62s39.5 -30.666 64.5 -39.999s52.5 -14 82.5 -14c44.667 0 81.667 5.33301 111 16s55.666 27 78.999 49v81l-146 6v83h244zM350 668.999l-109 -68l-40 53l149 110l150 -110l-42 -53z" />
    <glyph glyph-name="gcircumflex" unicode="&#x11d;" horiz-adv-x="689" 
d="M633 314v-314.001h-65l-15 51c-27.333 -21.333 -56.833 -37.5 -88.5 -48.5s-70.5 -16.5 -116.5 -16.5c-44 0 -84.833 6.66699 -122.5 20s-70.167 32.5 -97.5 57.5s-48.833 55.5 -64.5 91.5s-23.5 76.333 -23.5 121s7.83301 85 23.5 121s37.334 66.5 65.001 91.5
s60.334 44.167 98.001 57.5s78.167 20 121.5 20c62.667 0 116 -11.167 160 -33.5s81.333 -55.5 112 -99.5l-80 -46c-23.333 29.333 -49.833 51 -79.5 65s-68.167 21 -115.5 21c-31.333 0 -59.5 -4.66699 -84.5 -14s-46.333 -22.5 -64 -39.5s-31.334 -37.667 -41.001 -62
s-14.5 -51.5 -14.5 -81.5s5 -57 15 -81s24 -44.667 42 -62s39.5 -30.666 64.5 -39.999s52.5 -14 82.5 -14c44.667 0 81.667 5.33301 111 16s55.666 27 78.999 49v81l-146 6v83h244zM350 668.999l-109 -68l-40 53l149 110l150 -110l-42 -53z" />
    <glyph glyph-name="Gbreve" unicode="&#x11e;" horiz-adv-x="689" 
d="M633 314v-314.001h-65l-15 51c-27.333 -21.333 -56.833 -37.5 -88.5 -48.5s-70.5 -16.5 -116.5 -16.5c-44 0 -84.833 6.66699 -122.5 20s-70.167 32.5 -97.5 57.5s-48.833 55.5 -64.5 91.5s-23.5 76.333 -23.5 121s7.83301 85 23.5 121s37.334 66.5 65.001 91.5
s60.334 44.167 98.001 57.5s78.167 20 121.5 20c62.667 0 116 -11.167 160 -33.5s81.333 -55.5 112 -99.5l-80 -46c-23.333 29.333 -49.833 51 -79.5 65s-68.167 21 -115.5 21c-31.333 0 -59.5 -4.66699 -84.5 -14s-46.333 -22.5 -64 -39.5s-31.334 -37.667 -41.001 -62
s-14.5 -51.5 -14.5 -81.5s5 -57 15 -81s24 -44.667 42 -62s39.5 -30.666 64.5 -39.999s52.5 -14 82.5 -14c44.667 0 81.667 5.33301 111 16s55.666 27 78.999 49v81l-146 6v83h244zM508 685.999c-25.333 -28 -50.8311 -47.167 -76.498 -57.5s-53.167 -15.5 -82.5 -15.5
s-56.833 5.16699 -82.5 15.5s-51.5 29.5 -77.5 57.5l52 53c15.333 -15.333 31.333 -26.833 48 -34.5s36.667 -11.5 60 -11.5s43.166 3.83301 59.499 11.5s32.166 19.167 47.499 34.5z" />
    <glyph glyph-name="gbreve" unicode="&#x11f;" horiz-adv-x="689" 
d="M633 314v-314.001h-65l-15 51c-27.333 -21.333 -56.833 -37.5 -88.5 -48.5s-70.5 -16.5 -116.5 -16.5c-44 0 -84.833 6.66699 -122.5 20s-70.167 32.5 -97.5 57.5s-48.833 55.5 -64.5 91.5s-23.5 76.333 -23.5 121s7.83301 85 23.5 121s37.334 66.5 65.001 91.5
s60.334 44.167 98.001 57.5s78.167 20 121.5 20c62.667 0 116 -11.167 160 -33.5s81.333 -55.5 112 -99.5l-80 -46c-23.333 29.333 -49.833 51 -79.5 65s-68.167 21 -115.5 21c-31.333 0 -59.5 -4.66699 -84.5 -14s-46.333 -22.5 -64 -39.5s-31.334 -37.667 -41.001 -62
s-14.5 -51.5 -14.5 -81.5s5 -57 15 -81s24 -44.667 42 -62s39.5 -30.666 64.5 -39.999s52.5 -14 82.5 -14c44.667 0 81.667 5.33301 111 16s55.666 27 78.999 49v81l-146 6v83h244zM515 685.999c-25.333 -28 -50.8311 -47.167 -76.498 -57.5s-53.167 -15.5 -82.5 -15.5
s-56.833 5.16699 -82.5 15.5s-51.5 29.5 -77.5 57.5l52 53c15.333 -15.333 31.333 -26.833 48 -34.5s36.667 -11.5 60 -11.5s43.166 3.83301 59.499 11.5s32.166 19.167 47.499 34.5z" />
    <glyph glyph-name="Gdotaccent" unicode="&#x120;" horiz-adv-x="689" 
d="M633 314v-314.001h-65l-15 51c-27.333 -21.333 -56.833 -37.5 -88.5 -48.5s-70.5 -16.5 -116.5 -16.5c-44 0 -84.833 6.66699 -122.5 20s-70.167 32.5 -97.5 57.5s-48.833 55.5 -64.5 91.5s-23.5 76.333 -23.5 121s7.83301 85 23.5 121s37.334 66.5 65.001 91.5
s60.334 44.167 98.001 57.5s78.167 20 121.5 20c62.667 0 116 -11.167 160 -33.5s81.333 -55.5 112 -99.5l-80 -46c-23.333 29.333 -49.833 51 -79.5 65s-68.167 21 -115.5 21c-31.333 0 -59.5 -4.66699 -84.5 -14s-46.333 -22.5 -64 -39.5s-31.334 -37.667 -41.001 -62
s-14.5 -51.5 -14.5 -81.5s5 -57 15 -81s24 -44.667 42 -62s39.5 -30.666 64.5 -39.999s52.5 -14 82.5 -14c44.667 0 81.667 5.33301 111 16s55.666 27 78.999 49v81l-146 6v83h244zM345 745.999c19.333 0 35.5 -6.33301 48.5 -19s19.5 -28 19.5 -46
c0 -18.667 -6.5 -34.667 -19.5 -48s-29.167 -20 -48.5 -20c-18.667 0 -34.5 6.66699 -47.5 20s-19.5 29.333 -19.5 48c0 18 6.5 33.333 19.5 46s28.833 19 47.5 19z" />
    <glyph glyph-name="gdotaccent" unicode="&#x121;" horiz-adv-x="689" 
d="M633 314v-314.001h-65l-15 51c-27.333 -21.333 -56.833 -37.5 -88.5 -48.5s-70.5 -16.5 -116.5 -16.5c-44 0 -84.833 6.66699 -122.5 20s-70.167 32.5 -97.5 57.5s-48.833 55.5 -64.5 91.5s-23.5 76.333 -23.5 121s7.83301 85 23.5 121s37.334 66.5 65.001 91.5
s60.334 44.167 98.001 57.5s78.167 20 121.5 20c62.667 0 116 -11.167 160 -33.5s81.333 -55.5 112 -99.5l-80 -46c-23.333 29.333 -49.833 51 -79.5 65s-68.167 21 -115.5 21c-31.333 0 -59.5 -4.66699 -84.5 -14s-46.333 -22.5 -64 -39.5s-31.334 -37.667 -41.001 -62
s-14.5 -51.5 -14.5 -81.5s5 -57 15 -81s24 -44.667 42 -62s39.5 -30.666 64.5 -39.999s52.5 -14 82.5 -14c44.667 0 81.667 5.33301 111 16s55.666 27 78.999 49v81l-146 6v83h244zM345 745.999c19.333 0 35.5 -6.33301 48.5 -19s19.5 -28 19.5 -46
c0 -18.667 -6.5 -34.667 -19.5 -48s-29.167 -20 -48.5 -20c-18.667 0 -34.5 6.66699 -47.5 20s-19.5 29.333 -19.5 48c0 18 6.5 33.333 19.5 46s28.833 19 47.5 19z" />
    <glyph glyph-name="Gcommaaccent" unicode="&#x122;" horiz-adv-x="689" 
d="M633 314v-314.001h-65l-15 51c-27.333 -21.333 -56.833 -37.5 -88.5 -48.5s-70.5 -16.5 -116.5 -16.5c-44 0 -84.833 6.66699 -122.5 20s-70.167 32.5 -97.5 57.5s-48.833 55.5 -64.5 91.5s-23.5 76.333 -23.5 121s7.83301 85 23.5 121s37.334 66.5 65.001 91.5
s60.334 44.167 98.001 57.5s78.167 20 121.5 20c62.667 0 116 -11.167 160 -33.5s81.333 -55.5 112 -99.5l-80 -46c-23.333 29.333 -49.833 51 -79.5 65s-68.167 21 -115.5 21c-31.333 0 -59.5 -4.66699 -84.5 -14s-46.333 -22.5 -64 -39.5s-31.334 -37.667 -41.001 -62
s-14.5 -51.5 -14.5 -81.5s5 -57 15 -81s24 -44.667 42 -62s39.5 -30.666 64.5 -39.999s52.5 -14 82.5 -14c44.667 0 81.667 5.33301 111 16s55.666 27 78.999 49v81l-146 6v83h244zM349 -39.001c20 0 36.168 -6.66895 48.501 -20.002s18.5 -29.666 18.5 -48.999
c0 -3.33301 -0.333008 -7.5 -1 -12.5s-1.66699 -9.5 -3 -13.5l-51 -131l-55 13l14 82c-12 4.66699 -21.667 12.834 -29 24.501s-11 24.5 -11 38.5c0 18.667 6.66699 34.667 20 48s29.666 20 48.999 20z" />
    <glyph glyph-name="gcommaaccent" unicode="&#x123;" horiz-adv-x="689" 
d="M633 314v-314.001h-65l-15 51c-27.333 -21.333 -56.833 -37.5 -88.5 -48.5s-70.5 -16.5 -116.5 -16.5c-44 0 -84.833 6.66699 -122.5 20s-70.167 32.5 -97.5 57.5s-48.833 55.5 -64.5 91.5s-23.5 76.333 -23.5 121s7.83301 85 23.5 121s37.334 66.5 65.001 91.5
s60.334 44.167 98.001 57.5s78.167 20 121.5 20c62.667 0 116 -11.167 160 -33.5s81.333 -55.5 112 -99.5l-80 -46c-23.333 29.333 -49.833 51 -79.5 65s-68.167 21 -115.5 21c-31.333 0 -59.5 -4.66699 -84.5 -14s-46.333 -22.5 -64 -39.5s-31.334 -37.667 -41.001 -62
s-14.5 -51.5 -14.5 -81.5s5 -57 15 -81s24 -44.667 42 -62s39.5 -30.666 64.5 -39.999s52.5 -14 82.5 -14c44.667 0 81.667 5.33301 111 16s55.666 27 78.999 49v81l-146 6v83h244zM356 -46.001c20 0 36.168 -6.66895 48.501 -20.002s18.5 -29.666 18.5 -48.999
c0 -3.33301 -0.333008 -7.5 -1 -12.5s-1.66699 -9.5 -3 -13.5l-51 -131l-55 13l14 82c-12 4.66699 -21.667 12.834 -29 24.501s-11 24.5 -11 38.5c0 18.667 6.66699 34.667 20 48s29.666 20 48.999 20z" />
    <glyph glyph-name="Hcircumflex" unicode="&#x124;" horiz-adv-x="665" 
d="M155 553v-221h355v221h101v-553h-101v241h-355v-241h-102v553h102zM327 669l-109 -68l-40 53l149 110l150 -110l-42 -53z" />
    <glyph glyph-name="hcircumflex" unicode="&#x125;" horiz-adv-x="665" 
d="M155 553v-221h355v221h101v-553h-101v241h-355v-241h-102v553h102zM336 669l-109 -68l-40 53l149 110l150 -110l-42 -53z" />
    <glyph glyph-name="Hbar" unicode="&#x126;" horiz-adv-x="658" 
d="M150 553v-69h358v69h97v-69h31v-81h-31v-403h-97v232h-358v-232h-97v403h-29v81h29v69h97zM508 329v74h-358v-74h358z" />
    <glyph glyph-name="hbar" unicode="&#x127;" horiz-adv-x="658" 
d="M150 553v-69h358v69h97v-69h31v-81h-31v-403h-97v232h-358v-232h-97v403h-29v81h29v69h97zM508 329v74h-358v-74h358z" />
    <glyph glyph-name="Itilde" unicode="&#x128;" horiz-adv-x="208" 
d="M155 553v-553h-102v553h102zM299 676c-13.333 -21.333 -29.166 -36.998 -47.499 -46.998s-40.5 -15 -66.5 -15c-14.667 0 -27.834 2 -39.501 6s-23 8.33301 -34 13s-21.833 9 -32.5 13s-22.334 6 -35.001 6c-17.333 0 -32.166 -3.33301 -44.499 -10
s-23.166 -16 -32.499 -28l-48 48c30.667 48 73.334 72 128.001 72c17.333 0 32.166 -1.83301 44.499 -5.5s23.5 -7.83398 33.5 -12.501s19.667 -8.83398 29 -12.501s20 -5.5 32 -5.5c16.667 0 30.667 2.33301 42 7s21.666 12 30.999 22z" />
    <glyph glyph-name="itilde" unicode="&#x129;" horiz-adv-x="208" 
d="M155 553v-553h-102v553h102zM299 676c-13.333 -21.333 -29.166 -36.998 -47.499 -46.998s-40.5 -15 -66.5 -15c-14.667 0 -27.834 2 -39.501 6s-23 8.33301 -34 13s-21.833 9 -32.5 13s-22.334 6 -35.001 6c-17.333 0 -32.166 -3.33301 -44.499 -10
s-23.166 -16 -32.499 -28l-48 48c30.667 48 73.334 72 128.001 72c17.333 0 32.166 -1.83301 44.499 -5.5s23.5 -7.83398 33.5 -12.501s19.667 -8.83398 29 -12.501s20 -5.5 32 -5.5c16.667 0 30.667 2.33301 42 7s21.666 12 30.999 22z" />
    <glyph glyph-name="imacron" unicode="&#x12b;" horiz-adv-x="208" 
d="M155 553v-553h-102v553h102zM287 707v-81h-362v81h362z" />
    <glyph glyph-name="Ibreve" unicode="&#x12c;" horiz-adv-x="208" 
d="M155 553v-553h-102v553h102zM271 686c-25.333 -28 -50.8311 -47.167 -76.498 -57.5s-53.167 -15.5 -82.5 -15.5s-56.833 5.16699 -82.5 15.5s-51.5 29.5 -77.5 57.5l52 53c15.333 -15.333 31.333 -26.833 48 -34.5s36.667 -11.5 60 -11.5s43.166 3.83301 59.499 11.5
s32.166 19.167 47.499 34.5z" />
    <glyph glyph-name="Iogonek" unicode="&#x12e;" horiz-adv-x="208" 
d="M155 553v-552.999c-9.33301 -12.667 -15.5 -24.667 -18.5 -36s-4.5 -23.333 -4.5 -36c0 -19.333 3.5 -35.833 10.5 -49.5s18.167 -27.167 33.5 -40.5l-48 -39c-25.333 11.333 -44.666 26.666 -57.999 45.999s-20 40.333 -20 63c0 20 3.16699 37.167 9.5 51.5
s18.166 27.833 35.499 40.5h-42v553h102z" />
    <glyph glyph-name="iogonek" unicode="&#x12f;" horiz-adv-x="208" 
d="M155 553v-552.999c-9.33301 -12.667 -15.5 -24.667 -18.5 -36s-4.5 -23.333 -4.5 -36c0 -19.333 3.5 -35.833 10.5 -49.5s18.167 -27.167 33.5 -40.5l-48 -39c-25.333 11.333 -44.666 26.666 -57.999 45.999s-20 40.333 -20 63c0 20 3.16699 37.167 9.5 51.5
s18.166 27.833 35.499 40.5h-42v553h102z" />
    <glyph glyph-name="Idotaccent" unicode="&#x130;" horiz-adv-x="208" 
d="M155 553v-553h-102v553h102zM111 746c19.333 0 35.5 -6.33301 48.5 -19s19.5 -28 19.5 -46c0 -18.667 -6.5 -34.667 -19.5 -48s-29.167 -20 -48.5 -20c-18.667 0 -34.5 6.66699 -47.5 20s-19.5 29.333 -19.5 48c0 18 6.5 33.333 19.5 46s28.833 19 47.5 19z" />
    <glyph glyph-name="dotlessi" unicode="&#x131;" horiz-adv-x="208" 
d="M155 553v-553h-102v553h102z" />
    <glyph glyph-name="Jcircumflex" unicode="&#x134;" horiz-adv-x="597" 
d="M543 553v-313.999c0 -35.333 -5.16699 -68.333 -15.5 -99s-26.166 -57.5 -47.499 -80.5s-48.833 -41 -82.5 -54s-73.834 -19.5 -120.501 -19.5c-57.333 0 -107.5 12.5 -150.5 37.5s-76.167 60.833 -99.5 107.5l87 45c15.333 -32.667 38 -57.334 68 -74.001
s61.333 -25 94 -25c32 0 58.833 4 80.5 12s39 19.5 52 34.5s22.167 33.167 27.5 54.5s8 45 8 71v304h99zM492 669.001l-109 -68l-40 53l149 110l150 -110l-42 -53z" />
    <glyph glyph-name="jcircumflex" unicode="&#x135;" horiz-adv-x="597" 
d="M543 553v-313.999c0 -35.333 -5.16699 -68.333 -15.5 -99s-26.166 -57.5 -47.499 -80.5s-48.833 -41 -82.5 -54s-73.834 -19.5 -120.501 -19.5c-57.333 0 -107.5 12.5 -150.5 37.5s-76.167 60.833 -99.5 107.5l87 45c15.333 -32.667 38 -57.334 68 -74.001
s61.333 -25 94 -25c32 0 58.833 4 80.5 12s39 19.5 52 34.5s22.167 33.167 27.5 54.5s8 45 8 71v304h99zM495 669.001l-109 -68l-40 53l149 110l150 -110l-42 -53z" />
    <glyph glyph-name="Kcommaaccent" unicode="&#x136;" horiz-adv-x="647" 
d="M154 553v-214h193l146 214h117l-176 -256l190 -297h-120l-154 247h-196v-247h-101v553h101zM306 3c20 0 36.168 -6.66895 48.501 -20.002s18.5 -29.666 18.5 -48.999c0 -3.33301 -0.333008 -7.5 -1 -12.5s-1.66699 -9.5 -3 -13.5l-51 -131l-55 13l14 82
c-12 4.66699 -21.667 12.834 -29 24.501s-11 24.5 -11 38.5c0 18.667 6.66699 34.667 20 48s29.666 20 48.999 20z" />
    <glyph glyph-name="kcommaaccent" unicode="&#x137;" horiz-adv-x="647" 
d="M154 553v-214h193l146 214h117l-176 -256l190 -297h-120l-154 247h-196v-247h-101v553h101zM306 3c20 0 36.168 -6.66895 48.501 -20.002s18.5 -29.666 18.5 -48.999c0 -3.33301 -0.333008 -7.5 -1 -12.5s-1.66699 -9.5 -3 -13.5l-51 -131l-55 13l14 82
c-12 4.66699 -21.667 12.834 -29 24.501s-11 24.5 -11 38.5c0 18.667 6.66699 34.667 20 48s29.666 20 48.999 20z" />
    <glyph glyph-name="Lacute" unicode="&#x139;" horiz-adv-x="581" 
d="M155 553v-461h398v-92h-500v553h102zM120 810l87 -21l-50 -182l-85 20z" />
    <glyph glyph-name="lacute" unicode="&#x13a;" horiz-adv-x="581" 
d="M155 553v-461h398v-92h-500v553h102zM120 810l87 -21l-50 -182l-85 20z" />
    <glyph glyph-name="Lcommaaccent" unicode="&#x13b;" horiz-adv-x="581" 
d="M155 553v-461h398v-92h-500v553h102zM309 -39c20 0 36.168 -6.66895 48.501 -20.002s18.5 -29.666 18.5 -48.999c0 -3.33301 -0.333008 -7.5 -1 -12.5s-1.66699 -9.5 -3 -13.5l-51 -131l-55 13l14 82c-12 4.66699 -21.667 12.834 -29 24.501s-11 24.5 -11 38.5
c0 18.667 6.66699 34.667 20 48s29.666 20 48.999 20z" />
    <glyph glyph-name="lcommaaccent" unicode="&#x13c;" horiz-adv-x="581" 
d="M155 553v-461h398v-92h-500v553h102zM309 -39c20 0 36.168 -6.66895 48.501 -20.002s18.5 -29.666 18.5 -48.999c0 -3.33301 -0.333008 -7.5 -1 -12.5s-1.66699 -9.5 -3 -13.5l-51 -131l-55 13l14 82c-12 4.66699 -21.667 12.834 -29 24.501s-11 24.5 -11 38.5
c0 18.667 6.66699 34.667 20 48s29.666 20 48.999 20z" />
    <glyph glyph-name="Lcaron" unicode="&#x13d;" horiz-adv-x="581" 
d="M155 553v-461h398v-92h-500v553h102zM328 463c-13.333 4.66699 -23.333 12.833 -30 24.5s-10 24.167 -10 37.5c0 19.333 6.66699 35.333 20 48s30 19 50 19c17.333 0 32.833 -6 46.5 -18s20.5 -28.667 20.5 -50c0 -7.33301 -1.66699 -15.333 -5 -24l-55 -130l-55 12z" />
    <glyph glyph-name="lcaron" unicode="&#x13e;" horiz-adv-x="581" 
d="M155 553v-461h398v-92h-500v553h102zM341 463c-13.333 4.66699 -23.333 12.833 -30 24.5s-10 24.167 -10 37.5c0 19.333 6.66699 35.333 20 48s30 19 50 19c17.333 0 32.833 -6 46.5 -18s20.5 -28.667 20.5 -50c0 -7.33301 -1.66699 -15.333 -5 -24l-55 -130l-55 12z" />
    <glyph glyph-name="Ldot" unicode="&#x13f;" horiz-adv-x="581" 
d="M155 553v-461h398v-92h-500v553h102zM309 375c20.667 0 38.167 -7.16699 52.5 -21.5s21.5 -32.166 21.5 -53.499c0 -20 -7.16699 -37.333 -21.5 -52s-31.833 -22 -52.5 -22s-38.334 7.33301 -53.001 22s-22 32 -22 52c0 21.333 7.33301 39.166 22 53.499
s32.334 21.5 53.001 21.5z" />
    <glyph glyph-name="ldot" unicode="&#x140;" horiz-adv-x="581" 
d="M155 553v-461h398v-92h-500v553h102zM346 375c20.667 0 38.167 -7.16699 52.5 -21.5s21.5 -32.166 21.5 -53.499c0 -20 -7.16699 -37.333 -21.5 -52s-31.833 -22 -52.5 -22s-38.334 7.33301 -53.001 22s-22 32 -22 52c0 21.333 7.33301 39.166 22 53.499
s32.334 21.5 53.001 21.5z" />
    <glyph glyph-name="Lslash" unicode="&#x141;" horiz-adv-x="610" 
d="M9 301l74 33v219h101v-174l107 48l35 -79l-142 -63v-192h398v-93h-499v240l-40 -17z" />
    <glyph glyph-name="lslash" unicode="&#x142;" horiz-adv-x="610" 
d="M9 301l74 33v219h101v-174l107 48l35 -79l-142 -63v-192h398v-93h-499v240l-40 -17z" />
    <glyph glyph-name="Nacute" unicode="&#x143;" horiz-adv-x="676" 
d="M155 553l367 -411v411h101v-553h-103l-367 413v-413h-100v553h102zM339 810l87 -21l-50 -182l-85 20z" />
    <glyph glyph-name="nacute" unicode="&#x144;" horiz-adv-x="676" 
d="M155 553l367 -411v411h101v-553h-103l-367 413v-413h-100v553h102zM339 810l87 -21l-50 -182l-85 20z" />
    <glyph glyph-name="Ncommaaccent" unicode="&#x145;" horiz-adv-x="676" 
d="M155 553l367 -411v411h101v-553h-103l-367 413v-413h-100v553h102zM339 1c20 0 36.168 -6.66895 48.501 -20.002s18.5 -29.666 18.5 -48.999c0 -3.33301 -0.333008 -7.5 -1 -12.5s-1.66699 -9.5 -3 -13.5l-51 -131l-55 13l14 82c-12 4.66699 -21.667 12.834 -29 24.501
s-11 24.5 -11 38.5c0 18.667 6.66699 34.667 20 48s29.666 20 48.999 20z" />
    <glyph glyph-name="ncommaaccent" unicode="&#x146;" horiz-adv-x="676" 
d="M155 553l367 -411v411h101v-553h-103l-367 413v-413h-100v553h102zM339 1c20 0 36.168 -6.66895 48.501 -20.002s18.5 -29.666 18.5 -48.999c0 -3.33301 -0.333008 -7.5 -1 -12.5s-1.66699 -9.5 -3 -13.5l-51 -131l-55 13l14 82c-12 4.66699 -21.667 12.834 -29 24.501
s-11 24.5 -11 38.5c0 18.667 6.66699 34.667 20 48s29.666 20 48.999 20z" />
    <glyph glyph-name="Ncaron" unicode="&#x147;" horiz-adv-x="676" 
d="M155 553l367 -411v411h101v-553h-103l-367 413v-413h-100v553h102zM344 693l109 68l40 -53l-149 -110l-150 110l42 53z" />
    <glyph glyph-name="ncaron" unicode="&#x148;" horiz-adv-x="676" 
d="M155 553l367 -411v411h101v-553h-103l-367 413v-413h-100v553h102zM338 693l109 68l40 -53l-149 -110l-150 110l42 53z" />
    <glyph glyph-name="napostrophe" unicode="&#x149;" horiz-adv-x="788" 
d="M265 553l367 -411v411h101v-553h-103l-367 413v-413h-100v553h102zM70 710c20 0 36.168 -6.66895 48.501 -20.002s18.5 -29.666 18.5 -48.999c0 -3.33301 -0.333008 -7.5 -1 -12.5s-1.66699 -9.5 -3 -13.5l-51 -131l-55 13l14 82c-12 4.66699 -21.667 12.834 -29 24.501
s-11 24.5 -11 38.5c0 18.667 6.66699 34.667 20 48s29.666 20 48.999 20z" />
    <glyph glyph-name="Omacron" unicode="&#x14c;" horiz-adv-x="701" 
d="M143 276c0 -32 5.33301 -60.5 16 -85.5s25.334 -46.167 44.001 -63.5s40.5 -30.5 65.5 -39.5s52.167 -13.5 81.5 -13.5s56.666 4.5 81.999 13.5s47.333 22.167 66 39.5s33.334 38.5 44.001 63.5s16 53.5 16 85.5s-5.33301 60.5 -16 85.5s-25.334 46.167 -44.001 63.5
s-40.667 30.5 -66 39.5s-52.666 13.5 -81.999 13.5s-56.5 -4.5 -81.5 -13.5s-46.833 -22.167 -65.5 -39.5s-33.334 -38.5 -44.001 -63.5s-16 -53.5 -16 -85.5zM659 276c0 -44 -8 -83.833 -24 -119.5s-38 -66.167 -66 -91.5s-60.833 -44.833 -98.5 -58.5
s-77.834 -20.5 -120.501 -20.5s-82.834 6.83301 -120.501 20.5s-70.5 33.167 -98.5 58.5s-50 55.833 -66 91.5s-24 75.5 -24 119.5s8 83.833 24 119.5s38 66.167 66 91.5s60.833 44.833 98.5 58.5s77.834 20.5 120.501 20.5s82.834 -6.83301 120.501 -20.5
s70.5 -33.167 98.5 -58.5s50 -55.833 66 -91.5s24 -75.5 24 -119.5zM531 707v-81h-362v81h362z" />
    <glyph glyph-name="omacron" unicode="&#x14d;" horiz-adv-x="701" 
d="M143 276c0 -32 5.33301 -60.5 16 -85.5s25.334 -46.167 44.001 -63.5s40.5 -30.5 65.5 -39.5s52.167 -13.5 81.5 -13.5s56.666 4.5 81.999 13.5s47.333 22.167 66 39.5s33.334 38.5 44.001 63.5s16 53.5 16 85.5s-5.33301 60.5 -16 85.5s-25.334 46.167 -44.001 63.5
s-40.667 30.5 -66 39.5s-52.666 13.5 -81.999 13.5s-56.5 -4.5 -81.5 -13.5s-46.833 -22.167 -65.5 -39.5s-33.334 -38.5 -44.001 -63.5s-16 -53.5 -16 -85.5zM659 276c0 -44 -8 -83.833 -24 -119.5s-38 -66.167 -66 -91.5s-60.833 -44.833 -98.5 -58.5
s-77.834 -20.5 -120.501 -20.5s-82.834 6.83301 -120.501 20.5s-70.5 33.167 -98.5 58.5s-50 55.833 -66 91.5s-24 75.5 -24 119.5s8 83.833 24 119.5s38 66.167 66 91.5s60.833 44.833 98.5 58.5s77.834 20.5 120.501 20.5s82.834 -6.83301 120.501 -20.5
s70.5 -33.167 98.5 -58.5s50 -55.833 66 -91.5s24 -75.5 24 -119.5zM531 707v-81h-362v81h362z" />
    <glyph glyph-name="Obreve" unicode="&#x14e;" horiz-adv-x="701" 
d="M143 276c0 -32 5.33301 -60.5 16 -85.5s25.334 -46.167 44.001 -63.5s40.5 -30.5 65.5 -39.5s52.167 -13.5 81.5 -13.5s56.666 4.5 81.999 13.5s47.333 22.167 66 39.5s33.334 38.5 44.001 63.5s16 53.5 16 85.5s-5.33301 60.5 -16 85.5s-25.334 46.167 -44.001 63.5
s-40.667 30.5 -66 39.5s-52.666 13.5 -81.999 13.5s-56.5 -4.5 -81.5 -13.5s-46.833 -22.167 -65.5 -39.5s-33.334 -38.5 -44.001 -63.5s-16 -53.5 -16 -85.5zM659 276c0 -44 -8 -83.833 -24 -119.5s-38 -66.167 -66 -91.5s-60.833 -44.833 -98.5 -58.5
s-77.834 -20.5 -120.501 -20.5s-82.834 6.83301 -120.501 20.5s-70.5 33.167 -98.5 58.5s-50 55.833 -66 91.5s-24 75.5 -24 119.5s8 83.833 24 119.5s38 66.167 66 91.5s60.833 44.833 98.5 58.5s77.834 20.5 120.501 20.5s82.834 -6.83301 120.501 -20.5
s70.5 -33.167 98.5 -58.5s50 -55.833 66 -91.5s24 -75.5 24 -119.5zM509 686c-25.333 -28 -50.8311 -47.167 -76.498 -57.5s-53.167 -15.5 -82.5 -15.5s-56.833 5.16699 -82.5 15.5s-51.5 29.5 -77.5 57.5l52 53c15.333 -15.333 31.333 -26.833 48 -34.5
s36.667 -11.5 60 -11.5s43.166 3.83301 59.499 11.5s32.166 19.167 47.499 34.5z" />
    <glyph glyph-name="obreve" unicode="&#x14f;" horiz-adv-x="701" 
d="M143 276c0 -32 5.33301 -60.5 16 -85.5s25.334 -46.167 44.001 -63.5s40.5 -30.5 65.5 -39.5s52.167 -13.5 81.5 -13.5s56.666 4.5 81.999 13.5s47.333 22.167 66 39.5s33.334 38.5 44.001 63.5s16 53.5 16 85.5s-5.33301 60.5 -16 85.5s-25.334 46.167 -44.001 63.5
s-40.667 30.5 -66 39.5s-52.666 13.5 -81.999 13.5s-56.5 -4.5 -81.5 -13.5s-46.833 -22.167 -65.5 -39.5s-33.334 -38.5 -44.001 -63.5s-16 -53.5 -16 -85.5zM659 276c0 -44 -8 -83.833 -24 -119.5s-38 -66.167 -66 -91.5s-60.833 -44.833 -98.5 -58.5
s-77.834 -20.5 -120.501 -20.5s-82.834 6.83301 -120.501 20.5s-70.5 33.167 -98.5 58.5s-50 55.833 -66 91.5s-24 75.5 -24 119.5s8 83.833 24 119.5s38 66.167 66 91.5s60.833 44.833 98.5 58.5s77.834 20.5 120.501 20.5s82.834 -6.83301 120.501 -20.5
s70.5 -33.167 98.5 -58.5s50 -55.833 66 -91.5s24 -75.5 24 -119.5zM509 686c-25.333 -28 -50.8311 -47.167 -76.498 -57.5s-53.167 -15.5 -82.5 -15.5s-56.833 5.16699 -82.5 15.5s-51.5 29.5 -77.5 57.5l52 53c15.333 -15.333 31.333 -26.833 48 -34.5
s36.667 -11.5 60 -11.5s43.166 3.83301 59.499 11.5s32.166 19.167 47.499 34.5z" />
    <glyph glyph-name="Ohungarumlaut" unicode="&#x150;" horiz-adv-x="701" 
d="M143 276c0 -32 5.33301 -60.5 16 -85.5s25.334 -46.167 44.001 -63.5s40.5 -30.5 65.5 -39.5s52.167 -13.5 81.5 -13.5s56.666 4.5 81.999 13.5s47.333 22.167 66 39.5s33.334 38.5 44.001 63.5s16 53.5 16 85.5s-5.33301 60.5 -16 85.5s-25.334 46.167 -44.001 63.5
s-40.667 30.5 -66 39.5s-52.666 13.5 -81.999 13.5s-56.5 -4.5 -81.5 -13.5s-46.833 -22.167 -65.5 -39.5s-33.334 -38.5 -44.001 -63.5s-16 -53.5 -16 -85.5zM659 276c0 -44 -8 -83.833 -24 -119.5s-38 -66.167 -66 -91.5s-60.833 -44.833 -98.5 -58.5
s-77.834 -20.5 -120.501 -20.5s-82.834 6.83301 -120.501 20.5s-70.5 33.167 -98.5 58.5s-50 55.833 -66 91.5s-24 75.5 -24 119.5s8 83.833 24 119.5s38 66.167 66 91.5s60.833 44.833 98.5 58.5s77.834 20.5 120.501 20.5s82.834 -6.83301 120.501 -20.5
s70.5 -33.167 98.5 -58.5s50 -55.833 66 -91.5s24 -75.5 24 -119.5zM290 810l87 -21l-48 -182l-85 20zM428 810l86 -21l-51 -182l-85 20z" />
    <glyph glyph-name="ohungarumlaut" unicode="&#x151;" horiz-adv-x="701" 
d="M143 276c0 -32 5.33301 -60.5 16 -85.5s25.334 -46.167 44.001 -63.5s40.5 -30.5 65.5 -39.5s52.167 -13.5 81.5 -13.5s56.666 4.5 81.999 13.5s47.333 22.167 66 39.5s33.334 38.5 44.001 63.5s16 53.5 16 85.5s-5.33301 60.5 -16 85.5s-25.334 46.167 -44.001 63.5
s-40.667 30.5 -66 39.5s-52.666 13.5 -81.999 13.5s-56.5 -4.5 -81.5 -13.5s-46.833 -22.167 -65.5 -39.5s-33.334 -38.5 -44.001 -63.5s-16 -53.5 -16 -85.5zM659 276c0 -44 -8 -83.833 -24 -119.5s-38 -66.167 -66 -91.5s-60.833 -44.833 -98.5 -58.5
s-77.834 -20.5 -120.501 -20.5s-82.834 6.83301 -120.501 20.5s-70.5 33.167 -98.5 58.5s-50 55.833 -66 91.5s-24 75.5 -24 119.5s8 83.833 24 119.5s38 66.167 66 91.5s60.833 44.833 98.5 58.5s77.834 20.5 120.501 20.5s82.834 -6.83301 120.501 -20.5
s70.5 -33.167 98.5 -58.5s50 -55.833 66 -91.5s24 -75.5 24 -119.5zM285 810l87 -21l-48 -182l-85 20zM423 810l86 -21l-51 -182l-85 20z" />
    <glyph glyph-name="OE" unicode="&#x152;" horiz-adv-x="1074" 
d="M1012 553l0.000976562 -92h-367v-132h327v-92h-327v-144h381v-93h-479v53c-26.667 -23.333 -56.334 -40.333 -89.001 -51s-69.667 -16 -111 -16c-44.667 0 -84.5 6 -119.5 18s-66.5 31 -94.5 57c-61.333 55.333 -92 127.333 -92 216c0 46 7.5 86.167 22.5 120.5
s38.167 65.5 69.5 93.5c28 26 59.5 45 94.5 57s74.833 18 119.5 18c40 0 76.667 -5.33301 110 -16s63.333 -27.667 90 -51v54h465zM143.001 276c0 -58 15.667 -104.666 47 -139.999c36 -41.333 88.333 -62 157 -62c68 0 120 20.667 156 62c30.667 33.333 46 80.333 46 141
c0 59.333 -15.333 105.666 -46 138.999c-36 41.333 -88 62 -156 62c-68.667 0 -121 -20.667 -157 -62c-15.333 -17.333 -27 -37.5 -35 -60.5s-12 -49.5 -12 -79.5z" />
    <glyph glyph-name="oe" unicode="&#x153;" horiz-adv-x="1074" 
d="M1012 553l0.000976562 -92h-367v-132h327v-92h-327v-144h381v-93h-479v53c-26.667 -23.333 -56.334 -40.333 -89.001 -51s-69.667 -16 -111 -16c-44.667 0 -84.5 6 -119.5 18s-66.5 31 -94.5 57c-61.333 55.333 -92 127.333 -92 216c0 46 7.5 86.167 22.5 120.5
s38.167 65.5 69.5 93.5c28 26 59.5 45 94.5 57s74.833 18 119.5 18c40 0 76.667 -5.33301 110 -16s63.333 -27.667 90 -51v54h465zM143.001 276c0 -58 15.667 -104.666 47 -139.999c36 -41.333 88.333 -62 157 -62c68 0 120 20.667 156 62c30.667 33.333 46 80.333 46 141
c0 59.333 -15.333 105.666 -46 138.999c-36 41.333 -88 62 -156 62c-68.667 0 -121 -20.667 -157 -62c-15.333 -17.333 -27 -37.5 -35 -60.5s-12 -49.5 -12 -79.5z" />
    <glyph glyph-name="Racute" unicode="&#x154;" horiz-adv-x="637" 
d="M378 553c32 0 61.667 -5.16602 89 -15.499s51 -24.833 71 -43.5s35.833 -41.167 47.5 -67.5s17.5 -55.5 17.5 -87.5c0 -44 -10.5 -81.833 -31.5 -113.5s-48.833 -55.834 -83.5 -72.501l87 -153h-111l-70 128h-239v-128h-102v553h325zM155 221.001h219
c38 0 68.833 10.333 92.5 31s35.5 49.667 35.5 87c0 38 -11.833 67.667 -35.5 89s-54.5 32 -92.5 32h-219v-239zM300 810.001l87 -21l-50 -182l-85 20z" />
    <glyph glyph-name="racute" unicode="&#x155;" horiz-adv-x="637" 
d="M378 553c32 0 61.667 -5.16602 89 -15.499s51 -24.833 71 -43.5s35.833 -41.167 47.5 -67.5s17.5 -55.5 17.5 -87.5c0 -44 -10.5 -81.833 -31.5 -113.5s-48.833 -55.834 -83.5 -72.501l87 -153h-111l-70 128h-239v-128h-102v553h325zM155 221.001h219
c38 0 68.833 10.333 92.5 31s35.5 49.667 35.5 87c0 38 -11.833 67.667 -35.5 89s-54.5 32 -92.5 32h-219v-239zM300 810.001l87 -21l-50 -182l-85 20z" />
    <glyph glyph-name="Rcommaaccent" unicode="&#x156;" horiz-adv-x="637" 
d="M378 553c32 0 61.667 -5.16602 89 -15.499s51 -24.833 71 -43.5s35.833 -41.167 47.5 -67.5s17.5 -55.5 17.5 -87.5c0 -44 -10.5 -81.833 -31.5 -113.5s-48.833 -55.834 -83.5 -72.501l87 -153h-111l-70 128h-239v-128h-102v553h325zM155 221.001h219
c38 0 68.833 10.333 92.5 31s35.5 49.667 35.5 87c0 38 -11.833 67.667 -35.5 89s-54.5 32 -92.5 32h-219v-239zM316 5.00098c20 0 36.168 -6.66895 48.501 -20.002s18.5 -29.666 18.5 -48.999c0 -3.33301 -0.333008 -7.5 -1 -12.5s-1.66699 -9.5 -3 -13.5l-51 -131l-55 13
l14 82c-12 4.66699 -21.667 12.834 -29 24.501s-11 24.5 -11 38.5c0 18.667 6.66699 34.667 20 48s29.666 20 48.999 20z" />
    <glyph glyph-name="rcommaaccent" unicode="&#x157;" horiz-adv-x="637" 
d="M378 553c32 0 61.667 -5.16602 89 -15.499s51 -24.833 71 -43.5s35.833 -41.167 47.5 -67.5s17.5 -55.5 17.5 -87.5c0 -44 -10.5 -81.833 -31.5 -113.5s-48.833 -55.834 -83.5 -72.501l87 -153h-111l-70 128h-239v-128h-102v553h325zM155 221.001h219
c38 0 68.833 10.333 92.5 31s35.5 49.667 35.5 87c0 38 -11.833 67.667 -35.5 89s-54.5 32 -92.5 32h-219v-239zM307 5.00098c20 0 36.168 -6.66895 48.501 -20.002s18.5 -29.666 18.5 -48.999c0 -3.33301 -0.333008 -7.5 -1 -12.5s-1.66699 -9.5 -3 -13.5l-51 -131l-55 13
l14 82c-12 4.66699 -21.667 12.834 -29 24.501s-11 24.5 -11 38.5c0 18.667 6.66699 34.667 20 48s29.666 20 48.999 20z" />
    <glyph glyph-name="Rcaron" unicode="&#x158;" horiz-adv-x="637" 
d="M378 553c32 0 61.667 -5.16602 89 -15.499s51 -24.833 71 -43.5s35.833 -41.167 47.5 -67.5s17.5 -55.5 17.5 -87.5c0 -44 -10.5 -81.833 -31.5 -113.5s-48.833 -55.834 -83.5 -72.501l87 -153h-111l-70 128h-239v-128h-102v553h325zM155 221.001h219
c38 0 68.833 10.333 92.5 31s35.5 49.667 35.5 87c0 38 -11.833 67.667 -35.5 89s-54.5 32 -92.5 32h-219v-239zM312 693.001l109 68l40 -53l-149 -110l-150 110l42 53z" />
    <glyph glyph-name="rcaron" unicode="&#x159;" horiz-adv-x="637" 
d="M378 553c32 0 61.667 -5.16602 89 -15.499s51 -24.833 71 -43.5s35.833 -41.167 47.5 -67.5s17.5 -55.5 17.5 -87.5c0 -44 -10.5 -81.833 -31.5 -113.5s-48.833 -55.834 -83.5 -72.501l87 -153h-111l-70 128h-239v-128h-102v553h325zM155 221.001h219
c38 0 68.833 10.333 92.5 31s35.5 49.667 35.5 87c0 38 -11.833 67.667 -35.5 89s-54.5 32 -92.5 32h-219v-239zM303 693.001l109 68l40 -53l-149 -110l-150 110l42 53z" />
    <glyph glyph-name="Sacute" unicode="&#x15a;" horiz-adv-x="640" 
d="M532 415c-33.333 21.333 -67.1689 36.833 -101.502 46.5s-74.166 14.5 -119.499 14.5c-30.667 0 -56 -2 -76 -6s-35.667 -9.5 -47 -16.5s-19.333 -14.833 -24 -23.5s-7 -18 -7 -28c0 -20.667 8 -34.834 24 -42.501s37 -13.167 63 -16.5l172 -20
c57.333 -7.33301 102.333 -23.833 135 -49.5s49 -62.834 49 -111.501c0 -30 -6.83301 -56.167 -20.5 -78.5s-32.834 -40.666 -57.501 -54.999s-54.334 -25 -89.001 -32s-72.667 -10.5 -114 -10.5c-55.333 0 -105.166 6.33301 -149.499 19s-87.833 34.334 -130.5 65.001
l48 79c38.667 -26 77.334 -44.833 116.001 -56.5s82.334 -17.5 131.001 -17.5c50 0 90.5 7 121.5 21s46.5 35.333 46.5 64c0 39.333 -28.667 62 -86 68l-182 20c-54.667 6.66699 -97.834 21.5 -129.501 44.5s-47.5 59.167 -47.5 108.5c0 28 6.66699 52.5 20 73.5
s31.5 38.167 54.5 51.5s50 23.333 81 30s63.833 10 98.5 10c50 0 96.833 -5.16699 140.5 -15.5s86.834 -30.5 129.501 -60.5zM328.997 810l87 -21l-50 -182l-85 20z" />
    <glyph glyph-name="sacute" unicode="&#x15b;" horiz-adv-x="640" 
d="M532 415c-33.333 21.333 -67.1689 36.833 -101.502 46.5s-74.166 14.5 -119.499 14.5c-30.667 0 -56 -2 -76 -6s-35.667 -9.5 -47 -16.5s-19.333 -14.833 -24 -23.5s-7 -18 -7 -28c0 -20.667 8 -34.834 24 -42.501s37 -13.167 63 -16.5l172 -20
c57.333 -7.33301 102.333 -23.833 135 -49.5s49 -62.834 49 -111.501c0 -30 -6.83301 -56.167 -20.5 -78.5s-32.834 -40.666 -57.501 -54.999s-54.334 -25 -89.001 -32s-72.667 -10.5 -114 -10.5c-55.333 0 -105.166 6.33301 -149.499 19s-87.833 34.334 -130.5 65.001
l48 79c38.667 -26 77.334 -44.833 116.001 -56.5s82.334 -17.5 131.001 -17.5c50 0 90.5 7 121.5 21s46.5 35.333 46.5 64c0 39.333 -28.667 62 -86 68l-182 20c-54.667 6.66699 -97.834 21.5 -129.501 44.5s-47.5 59.167 -47.5 108.5c0 28 6.66699 52.5 20 73.5
s31.5 38.167 54.5 51.5s50 23.333 81 30s63.833 10 98.5 10c50 0 96.833 -5.16699 140.5 -15.5s86.834 -30.5 129.501 -60.5zM333.997 810l87 -21l-50 -182l-85 20z" />
    <glyph glyph-name="Scircumflex" unicode="&#x15c;" horiz-adv-x="640" 
d="M532 415c-33.333 21.333 -67.1689 36.833 -101.502 46.5s-74.166 14.5 -119.499 14.5c-30.667 0 -56 -2 -76 -6s-35.667 -9.5 -47 -16.5s-19.333 -14.833 -24 -23.5s-7 -18 -7 -28c0 -20.667 8 -34.834 24 -42.501s37 -13.167 63 -16.5l172 -20
c57.333 -7.33301 102.333 -23.833 135 -49.5s49 -62.834 49 -111.501c0 -30 -6.83301 -56.167 -20.5 -78.5s-32.834 -40.666 -57.501 -54.999s-54.334 -25 -89.001 -32s-72.667 -10.5 -114 -10.5c-55.333 0 -105.166 6.33301 -149.499 19s-87.833 34.334 -130.5 65.001
l48 79c38.667 -26 77.334 -44.833 116.001 -56.5s82.334 -17.5 131.001 -17.5c50 0 90.5 7 121.5 21s46.5 35.333 46.5 64c0 39.333 -28.667 62 -86 68l-182 20c-54.667 6.66699 -97.834 21.5 -129.501 44.5s-47.5 59.167 -47.5 108.5c0 28 6.66699 52.5 20 73.5
s31.5 38.167 54.5 51.5s50 23.333 81 30s63.833 10 98.5 10c50 0 96.833 -5.16699 140.5 -15.5s86.834 -30.5 129.501 -60.5zM311.997 669l-109 -68l-40 53l149 110l150 -110l-42 -53z" />
    <glyph glyph-name="scircumflex" unicode="&#x15d;" horiz-adv-x="640" 
d="M532 415c-33.333 21.333 -67.1689 36.833 -101.502 46.5s-74.166 14.5 -119.499 14.5c-30.667 0 -56 -2 -76 -6s-35.667 -9.5 -47 -16.5s-19.333 -14.833 -24 -23.5s-7 -18 -7 -28c0 -20.667 8 -34.834 24 -42.501s37 -13.167 63 -16.5l172 -20
c57.333 -7.33301 102.333 -23.833 135 -49.5s49 -62.834 49 -111.501c0 -30 -6.83301 -56.167 -20.5 -78.5s-32.834 -40.666 -57.501 -54.999s-54.334 -25 -89.001 -32s-72.667 -10.5 -114 -10.5c-55.333 0 -105.166 6.33301 -149.499 19s-87.833 34.334 -130.5 65.001
l48 79c38.667 -26 77.334 -44.833 116.001 -56.5s82.334 -17.5 131.001 -17.5c50 0 90.5 7 121.5 21s46.5 35.333 46.5 64c0 39.333 -28.667 62 -86 68l-182 20c-54.667 6.66699 -97.834 21.5 -129.501 44.5s-47.5 59.167 -47.5 108.5c0 28 6.66699 52.5 20 73.5
s31.5 38.167 54.5 51.5s50 23.333 81 30s63.833 10 98.5 10c50 0 96.833 -5.16699 140.5 -15.5s86.834 -30.5 129.501 -60.5zM319.997 669l-109 -68l-40 53l149 110l150 -110l-42 -53z" />
    <glyph glyph-name="Scedilla" unicode="&#x15e;" horiz-adv-x="640" 
d="M532 415c-33.333 21.333 -67.1689 36.835 -101.502 46.502s-74.166 14.5 -119.499 14.5c-30.667 0 -56 -2 -76 -6s-35.667 -9.5 -47 -16.5s-19.333 -14.833 -24 -23.5s-7 -18 -7 -28c0 -20.667 8 -34.834 24 -42.501s37 -13.167 63 -16.5l172 -20
c57.333 -7.33301 102.333 -23.833 135 -49.5s49 -62.834 49 -111.501c0 -29.333 -6.5 -54.833 -19.5 -76.5s-31.167 -39.667 -54.5 -54s-51.333 -25.333 -84 -33s-68.667 -11.834 -108 -12.501v-28c28.667 -2 50.834 -10.667 66.501 -26s23.5 -36 23.5 -62
c0 -16.667 -3.66699 -31.167 -11 -43.5s-17.166 -22.5 -29.499 -30.5s-26.666 -14 -42.999 -18s-33.5 -6 -51.5 -6c-13.333 0 -26.5 1.33301 -39.5 4s-26.167 7.33398 -39.5 14.001l19 54c9.33301 -4 19.666 -7 30.999 -9s21.666 -3 30.999 -3c18.667 0 33.167 3 43.5 9
s15.5 15.667 15.5 29c0 20.667 -13.667 31 -41 31h-45l-6 6l8 81c-43.333 3.33301 -83 11.333 -119 24s-72 32 -108 58l48 79c38 -26 76.5 -44.833 115.5 -56.5s82.833 -17.5 131.5 -17.5c50 0 90.5 7 121.5 21s46.5 35.333 46.5 64c0 39.333 -28.667 62 -86 68l-182 20
c-54.667 6.66699 -97.834 21.5 -129.501 44.5s-47.5 59.167 -47.5 108.5c0 28 6.66699 52.5 20 73.5s31.5 38.167 54.5 51.5s50 23.333 81 30s63.833 10 98.5 10c50 0 96.833 -5.16699 140.5 -15.5s86.834 -30.5 129.501 -60.5z" />
    <glyph glyph-name="scedilla" unicode="&#x15f;" horiz-adv-x="640" 
d="M532 415c-33.333 21.333 -67.1689 36.835 -101.502 46.502s-74.166 14.5 -119.499 14.5c-30.667 0 -56 -2 -76 -6s-35.667 -9.5 -47 -16.5s-19.333 -14.833 -24 -23.5s-7 -18 -7 -28c0 -20.667 8 -34.834 24 -42.501s37 -13.167 63 -16.5l172 -20
c57.333 -7.33301 102.333 -23.833 135 -49.5s49 -62.834 49 -111.501c0 -29.333 -6.5 -54.833 -19.5 -76.5s-31.167 -39.667 -54.5 -54s-51.333 -25.333 -84 -33s-68.667 -11.834 -108 -12.501v-28c28.667 -2 50.834 -10.667 66.501 -26s23.5 -36 23.5 -62
c0 -16.667 -3.66699 -31.167 -11 -43.5s-17.166 -22.5 -29.499 -30.5s-26.666 -14 -42.999 -18s-33.5 -6 -51.5 -6c-13.333 0 -26.5 1.33301 -39.5 4s-26.167 7.33398 -39.5 14.001l19 54c9.33301 -4 19.666 -7 30.999 -9s21.666 -3 30.999 -3c18.667 0 33.167 3 43.5 9
s15.5 15.667 15.5 29c0 20.667 -13.667 31 -41 31h-45l-6 6l8 81c-43.333 3.33301 -83 11.333 -119 24s-72 32 -108 58l48 79c38 -26 76.5 -44.833 115.5 -56.5s82.833 -17.5 131.5 -17.5c50 0 90.5 7 121.5 21s46.5 35.333 46.5 64c0 39.333 -28.667 62 -86 68l-182 20
c-54.667 6.66699 -97.834 21.5 -129.501 44.5s-47.5 59.167 -47.5 108.5c0 28 6.66699 52.5 20 73.5s31.5 38.167 54.5 51.5s50 23.333 81 30s63.833 10 98.5 10c50 0 96.833 -5.16699 140.5 -15.5s86.834 -30.5 129.501 -60.5z" />
    <glyph glyph-name="Scaron" unicode="&#x160;" horiz-adv-x="640" 
d="M532 415c-33.333 21.333 -67.1689 36.833 -101.502 46.5s-74.166 14.5 -119.499 14.5c-30.667 0 -56 -2 -76 -6s-35.667 -9.5 -47 -16.5s-19.333 -14.833 -24 -23.5s-7 -18 -7 -28c0 -20.667 8 -34.834 24 -42.501s37 -13.167 63 -16.5l172 -20
c57.333 -7.33301 102.333 -23.833 135 -49.5s49 -62.834 49 -111.501c0 -30 -6.83301 -56.167 -20.5 -78.5s-32.834 -40.666 -57.501 -54.999s-54.334 -25 -89.001 -32s-72.667 -10.5 -114 -10.5c-55.333 0 -105.166 6.33301 -149.499 19s-87.833 34.334 -130.5 65.001
l48 79c38.667 -26 77.334 -44.833 116.001 -56.5s82.334 -17.5 131.001 -17.5c50 0 90.5 7 121.5 21s46.5 35.333 46.5 64c0 39.333 -28.667 62 -86 68l-182 20c-54.667 6.66699 -97.834 21.5 -129.501 44.5s-47.5 59.167 -47.5 108.5c0 28 6.66699 52.5 20 73.5
s31.5 38.167 54.5 51.5s50 23.333 81 30s63.833 10 98.5 10c50 0 96.833 -5.16699 140.5 -15.5s86.834 -30.5 129.501 -60.5zM322.997 693l109 68l40 -53l-149 -110l-150 110l42 53z" />
    <glyph glyph-name="scaron" unicode="&#x161;" horiz-adv-x="640" 
d="M532 415c-33.333 21.333 -67.1689 36.833 -101.502 46.5s-74.166 14.5 -119.499 14.5c-30.667 0 -56 -2 -76 -6s-35.667 -9.5 -47 -16.5s-19.333 -14.833 -24 -23.5s-7 -18 -7 -28c0 -20.667 8 -34.834 24 -42.501s37 -13.167 63 -16.5l172 -20
c57.333 -7.33301 102.333 -23.833 135 -49.5s49 -62.834 49 -111.501c0 -30 -6.83301 -56.167 -20.5 -78.5s-32.834 -40.666 -57.501 -54.999s-54.334 -25 -89.001 -32s-72.667 -10.5 -114 -10.5c-55.333 0 -105.166 6.33301 -149.499 19s-87.833 34.334 -130.5 65.001
l48 79c38.667 -26 77.334 -44.833 116.001 -56.5s82.334 -17.5 131.001 -17.5c50 0 90.5 7 121.5 21s46.5 35.333 46.5 64c0 39.333 -28.667 62 -86 68l-182 20c-54.667 6.66699 -97.834 21.5 -129.501 44.5s-47.5 59.167 -47.5 108.5c0 28 6.66699 52.5 20 73.5
s31.5 38.167 54.5 51.5s50 23.333 81 30s63.833 10 98.5 10c50 0 96.833 -5.16699 140.5 -15.5s86.834 -30.5 129.501 -60.5zM324.997 693l109 68l40 -53l-149 -110l-150 110l42 53z" />
    <glyph glyph-name="Tcommaaccent" unicode="&#x162;" horiz-adv-x="632" 
d="M602 553v-92h-235v-461h-102v461h-235v92h572zM315 -37c20 0 36.168 -6.66895 48.501 -20.002s18.5 -29.666 18.5 -48.999c0 -3.33301 -0.333008 -7.5 -1 -12.5s-1.66699 -9.5 -3 -13.5l-51 -131l-55 13l14 82c-12 4.66699 -21.667 12.834 -29 24.501s-11 24.5 -11 38.5
c0 18.667 6.66699 34.667 20 48s29.666 20 48.999 20z" />
    <glyph glyph-name="tcommaaccent" unicode="&#x163;" horiz-adv-x="632" 
d="M602 553v-92h-235v-461h-102v461h-235v92h572zM315 -37c20 0 36.168 -6.66895 48.501 -20.002s18.5 -29.666 18.5 -48.999c0 -3.33301 -0.333008 -7.5 -1 -12.5s-1.66699 -9.5 -3 -13.5l-51 -131l-55 13l14 82c-12 4.66699 -21.667 12.834 -29 24.501s-11 24.5 -11 38.5
c0 18.667 6.66699 34.667 20 48s29.666 20 48.999 20z" />
    <glyph glyph-name="Tcaron" unicode="&#x164;" horiz-adv-x="632" 
d="M602 553v-92h-235v-461h-102v461h-235v92h572zM314 693l109 68l40 -53l-149 -110l-150 110l42 53z" />
    <glyph glyph-name="tcaron" unicode="&#x165;" horiz-adv-x="632" 
d="M602 553v-92h-235v-461h-102v461h-235v92h572zM316 693l109 68l40 -53l-149 -110l-150 110l42 53z" />
    <glyph glyph-name="Tbar" unicode="&#x166;" horiz-adv-x="632" 
d="M602 553v-92h-235v-137h117v-82h-117v-242h-102v242h-117v82h117v137h-235v92h572z" />
    <glyph glyph-name="tbar" unicode="&#x167;" horiz-adv-x="632" 
d="M602 553v-92h-235v-137h117v-82h-117v-242h-102v242h-117v82h117v137h-235v92h572z" />
    <glyph glyph-name="Utilde" unicode="&#x168;" 
d="M150 553l0.000976562 -283c0 -59.333 14.333 -106.5 43 -141.5s74 -52.5 136 -52.5s107.5 17.5 136.5 52.5s43.5 82.167 43.5 141.5v283h101v-282c0 -46 -6.5 -86.667 -19.5 -122s-31.833 -65 -56.5 -89s-54.334 -42.333 -89.001 -55s-73.334 -19 -116.001 -19
c-43.333 0 -82.166 6.33301 -116.499 19s-63.833 31 -88.5 55s-43.5 53.667 -56.5 89s-19.5 76 -19.5 122v282h102zM512.001 676c-13.333 -21.333 -29.166 -36.998 -47.499 -46.998s-40.5 -15 -66.5 -15c-14.667 0 -27.834 2 -39.501 6s-23 8.33301 -34 13
s-21.833 9 -32.5 13s-22.334 6 -35.001 6c-17.333 0 -32.166 -3.33301 -44.499 -10s-23.166 -16 -32.499 -28l-48 48c30.667 48 73.334 72 128.001 72c17.333 0 32.166 -1.83301 44.499 -5.5s23.5 -7.83398 33.5 -12.501s19.667 -8.83398 29 -12.501s20 -5.5 32 -5.5
c16.667 0 30.667 2.33301 42 7s21.666 12 30.999 22z" />
    <glyph glyph-name="utilde" unicode="&#x169;" 
d="M150 553l0.000976562 -283c0 -59.333 14.333 -106.5 43 -141.5s74 -52.5 136 -52.5s107.5 17.5 136.5 52.5s43.5 82.167 43.5 141.5v283h101v-282c0 -46 -6.5 -86.667 -19.5 -122s-31.833 -65 -56.5 -89s-54.334 -42.333 -89.001 -55s-73.334 -19 -116.001 -19
c-43.333 0 -82.166 6.33301 -116.499 19s-63.833 31 -88.5 55s-43.5 53.667 -56.5 89s-19.5 76 -19.5 122v282h102zM519.001 676c-13.333 -21.333 -29.166 -36.998 -47.499 -46.998s-40.5 -15 -66.5 -15c-14.667 0 -27.834 2 -39.501 6s-23 8.33301 -34 13
s-21.833 9 -32.5 13s-22.334 6 -35.001 6c-17.333 0 -32.166 -3.33301 -44.499 -10s-23.166 -16 -32.499 -28l-48 48c30.667 48 73.334 72 128.001 72c17.333 0 32.166 -1.83301 44.499 -5.5s23.5 -7.83398 33.5 -12.501s19.667 -8.83398 29 -12.501s20 -5.5 32 -5.5
c16.667 0 30.667 2.33301 42 7s21.666 12 30.999 22z" />
    <glyph glyph-name="Umacron" unicode="&#x16a;" 
d="M150 553l0.000976562 -283c0 -59.333 14.333 -106.5 43 -141.5s74 -52.5 136 -52.5s107.5 17.5 136.5 52.5s43.5 82.167 43.5 141.5v283h101v-282c0 -46 -6.5 -86.667 -19.5 -122s-31.833 -65 -56.5 -89s-54.334 -42.333 -89.001 -55s-73.334 -19 -116.001 -19
c-43.333 0 -82.166 6.33301 -116.499 19s-63.833 31 -88.5 55s-43.5 53.667 -56.5 89s-19.5 76 -19.5 122v282h102zM510.001 707v-81h-362v81h362z" />
    <glyph glyph-name="umacron" unicode="&#x16b;" 
d="M150 553l0.000976562 -283c0 -59.333 14.333 -106.5 43 -141.5s74 -52.5 136 -52.5s107.5 17.5 136.5 52.5s43.5 82.167 43.5 141.5v283h101v-282c0 -46 -6.5 -86.667 -19.5 -122s-31.833 -65 -56.5 -89s-54.334 -42.333 -89.001 -55s-73.334 -19 -116.001 -19
c-43.333 0 -82.166 6.33301 -116.499 19s-63.833 31 -88.5 55s-43.5 53.667 -56.5 89s-19.5 76 -19.5 122v282h102zM510.001 707v-81h-362v81h362z" />
    <glyph glyph-name="Ubreve" unicode="&#x16c;" 
d="M150 553l0.000976562 -283c0 -59.333 14.333 -106.5 43 -141.5s74 -52.5 136 -52.5s107.5 17.5 136.5 52.5s43.5 82.167 43.5 141.5v283h101v-282c0 -46 -6.5 -86.667 -19.5 -122s-31.833 -65 -56.5 -89s-54.334 -42.333 -89.001 -55s-73.334 -19 -116.001 -19
c-43.333 0 -82.166 6.33301 -116.499 19s-63.833 31 -88.5 55s-43.5 53.667 -56.5 89s-19.5 76 -19.5 122v282h102zM488.001 686c-25.333 -28 -50.8311 -47.167 -76.498 -57.5s-53.167 -15.5 -82.5 -15.5s-56.833 5.16699 -82.5 15.5s-51.5 29.5 -77.5 57.5l52 53
c15.333 -15.333 31.333 -26.833 48 -34.5s36.667 -11.5 60 -11.5s43.166 3.83301 59.499 11.5s32.166 19.167 47.499 34.5z" />
    <glyph glyph-name="ubreve" unicode="&#x16d;" 
d="M150 553l0.000976562 -283c0 -59.333 14.333 -106.5 43 -141.5s74 -52.5 136 -52.5s107.5 17.5 136.5 52.5s43.5 82.167 43.5 141.5v283h101v-282c0 -46 -6.5 -86.667 -19.5 -122s-31.833 -65 -56.5 -89s-54.334 -42.333 -89.001 -55s-73.334 -19 -116.001 -19
c-43.333 0 -82.166 6.33301 -116.499 19s-63.833 31 -88.5 55s-43.5 53.667 -56.5 89s-19.5 76 -19.5 122v282h102zM488.001 686c-25.333 -28 -50.8311 -47.167 -76.498 -57.5s-53.167 -15.5 -82.5 -15.5s-56.833 5.16699 -82.5 15.5s-51.5 29.5 -77.5 57.5l52 53
c15.333 -15.333 31.333 -26.833 48 -34.5s36.667 -11.5 60 -11.5s43.166 3.83301 59.499 11.5s32.166 19.167 47.499 34.5z" />
    <glyph glyph-name="Uring" unicode="&#x16e;" 
d="M150 553l0.000976562 -283c0 -59.333 14.333 -106.5 43 -141.5s74 -52.5 136 -52.5s107.5 17.5 136.5 52.5s43.5 82.167 43.5 141.5v283h101v-282c0 -46 -6.5 -86.667 -19.5 -122s-31.833 -65 -56.5 -89s-54.334 -42.333 -89.001 -55s-73.334 -19 -116.001 -19
c-43.333 0 -82.166 6.33301 -116.499 19s-63.833 31 -88.5 55s-43.5 53.667 -56.5 89s-19.5 76 -19.5 122v282h102zM463.001 723c0 -19.333 -3.5 -36.666 -10.5 -51.999s-16.5 -28.5 -28.5 -39.5s-26 -19.333 -42 -25s-32.667 -8.5 -50 -8.5s-34 2.83301 -50 8.5
s-30 14 -42 25s-21.5 24.167 -28.5 39.5s-10.5 32.666 -10.5 51.999c0 18.667 3.5 35.667 10.5 51s16.5 28.5 28.5 39.5s26 19.333 42 25s32.667 8.5 50 8.5s34 -2.83301 50 -8.5s30 -14 42 -25s21.5 -24.167 28.5 -39.5s10.5 -32.333 10.5 -51zM274.001 723
c0 -19.333 5.33301 -33.833 16 -43.5s24.667 -14.5 42 -14.5s31.333 4.83301 42 14.5s16 24.167 16 43.5c0 18.667 -5.33301 32.834 -16 42.501s-24.667 14.5 -42 14.5s-31.333 -4.83301 -42 -14.5s-16 -23.834 -16 -42.501z" />
    <glyph glyph-name="uring" unicode="&#x16f;" 
d="M150 553l0.000976562 -283c0 -59.333 14.333 -106.5 43 -141.5s74 -52.5 136 -52.5s107.5 17.5 136.5 52.5s43.5 82.167 43.5 141.5v283h101v-282c0 -46 -6.5 -86.667 -19.5 -122s-31.833 -65 -56.5 -89s-54.334 -42.333 -89.001 -55s-73.334 -19 -116.001 -19
c-43.333 0 -82.166 6.33301 -116.499 19s-63.833 31 -88.5 55s-43.5 53.667 -56.5 89s-19.5 76 -19.5 122v282h102zM460.001 723c0 -19.333 -3.5 -36.666 -10.5 -51.999s-16.5 -28.5 -28.5 -39.5s-26 -19.333 -42 -25s-32.667 -8.5 -50 -8.5s-34 2.83301 -50 8.5
s-30 14 -42 25s-21.5 24.167 -28.5 39.5s-10.5 32.666 -10.5 51.999c0 18.667 3.5 35.667 10.5 51s16.5 28.5 28.5 39.5s26 19.333 42 25s32.667 8.5 50 8.5s34 -2.83301 50 -8.5s30 -14 42 -25s21.5 -24.167 28.5 -39.5s10.5 -32.333 10.5 -51zM271.001 723
c0 -19.333 5.33301 -33.833 16 -43.5s24.667 -14.5 42 -14.5s31.333 4.83301 42 14.5s16 24.167 16 43.5c0 18.667 -5.33301 32.834 -16 42.501s-24.667 14.5 -42 14.5s-31.333 -4.83301 -42 -14.5s-16 -23.834 -16 -42.501z" />
    <glyph glyph-name="Uhungarumlaut" unicode="&#x170;" 
d="M150 553l0.000976562 -283c0 -59.333 14.333 -106.5 43 -141.5s74 -52.5 136 -52.5s107.5 17.5 136.5 52.5s43.5 82.167 43.5 141.5v283h101v-282c0 -46 -6.5 -86.667 -19.5 -122s-31.833 -65 -56.5 -89s-54.334 -42.333 -89.001 -55s-73.334 -19 -116.001 -19
c-43.333 0 -82.166 6.33301 -116.499 19s-63.833 31 -88.5 55s-43.5 53.667 -56.5 89s-19.5 76 -19.5 122v282h102zM248.001 810l87 -21l-48 -182l-85 20zM386.001 810l86 -21l-51 -182l-85 20z" />
    <glyph glyph-name="uhungarumlaut" unicode="&#x171;" 
d="M150 553l0.000976562 -283c0 -59.333 14.333 -106.5 43 -141.5s74 -52.5 136 -52.5s107.5 17.5 136.5 52.5s43.5 82.167 43.5 141.5v283h101v-282c0 -46 -6.5 -86.667 -19.5 -122s-31.833 -65 -56.5 -89s-54.334 -42.333 -89.001 -55s-73.334 -19 -116.001 -19
c-43.333 0 -82.166 6.33301 -116.499 19s-63.833 31 -88.5 55s-43.5 53.667 -56.5 89s-19.5 76 -19.5 122v282h102zM262.001 810l87 -21l-48 -182l-85 20zM400.001 810l86 -21l-51 -182l-85 20z" />
    <glyph glyph-name="Uogonek" unicode="&#x172;" 
d="M150 553l-0.00195312 -282.999c0 -59.333 14.333 -106.5 43 -141.5s74 -52.5 136 -52.5s107.5 17.5 136.5 52.5s43.5 82.167 43.5 141.5v283h101v-282c0 -85.333 -21.833 -152 -65.5 -200s-103.167 -75.667 -178.5 -83c-5.33301 -10 -9.16602 -19.833 -11.499 -29.5
s-3.5 -19.834 -3.5 -30.501c0 -19.333 3.5 -35.833 10.5 -49.5s18.167 -27.167 33.5 -40.5l-48 -39c-25.333 11.333 -44.666 26.666 -57.999 45.999s-20 40.333 -20 63c0 32.667 9 59.334 27 80.001c-76.667 6 -137.167 33 -181.5 81s-66.5 115.333 -66.5 202v282h102z" />
    <glyph glyph-name="uogonek" unicode="&#x173;" 
d="M150 553l-0.00195312 -282.999c0 -59.333 14.333 -106.5 43 -141.5s74 -52.5 136 -52.5s107.5 17.5 136.5 52.5s43.5 82.167 43.5 141.5v283h101v-282c0 -85.333 -21.833 -152 -65.5 -200s-103.167 -75.667 -178.5 -83c-5.33301 -10 -9.16602 -19.833 -11.499 -29.5
s-3.5 -19.834 -3.5 -30.501c0 -19.333 3.5 -35.833 10.5 -49.5s18.167 -27.167 33.5 -40.5l-48 -39c-25.333 11.333 -44.666 26.666 -57.999 45.999s-20 40.333 -20 63c0 32.667 9 59.334 27 80.001c-76.667 6 -137.167 33 -181.5 81s-66.5 115.333 -66.5 202v282h102z" />
    <glyph glyph-name="Wcircumflex" unicode="&#x174;" horiz-adv-x="1011" 
d="M138 553l151 -464h17l131 464h134l135 -464h17l153 464h106l-197 -553h-152l-124 443h-12l-124 -443h-150l-193 553h108zM504 669l-109 -68l-40 53l149 110l150 -110l-42 -53z" />
    <glyph glyph-name="wcircumflex" unicode="&#x175;" horiz-adv-x="1011" 
d="M138 553l151 -464h17l131 464h134l135 -464h17l153 464h106l-197 -553h-152l-124 443h-12l-124 -443h-150l-193 553h108zM504 669l-109 -68l-40 53l149 110l150 -110l-42 -53z" />
    <glyph glyph-name="Ycircumflex" unicode="&#x176;" horiz-adv-x="686" 
d="M146 553l194 -314h12l188 314h116l-263 -415v-138h-100v138l-263 415h116zM347 669l-109 -68l-40 53l149 110l150 -110l-42 -53z" />
    <glyph glyph-name="ycircumflex" unicode="&#x177;" horiz-adv-x="686" 
d="M146 553l194 -314h12l188 314h116l-263 -415v-138h-100v138l-263 415h116zM342 669l-109 -68l-40 53l149 110l150 -110l-42 -53z" />
    <glyph glyph-name="Ydieresis" unicode="&#x178;" horiz-adv-x="686" 
d="M146 553l194 -314h12l188 314h116l-263 -415v-138h-100v138l-263 415h116zM223 746c18.667 0 34.334 -6.33301 47.001 -19s19 -27.667 19 -45c0 -18 -6.33301 -33.5 -19 -46.5s-28.334 -19.5 -47.001 -19.5c-18 0 -33.333 6.5 -46 19.5s-19 28.5 -19 46.5
c0 17.333 6.33301 32.333 19 45s28 19 46 19zM460 746c18.667 0 34.5 -6.33301 47.5 -19s19.5 -27.667 19.5 -45c0 -18 -6.5 -33.5 -19.5 -46.5s-28.833 -19.5 -47.5 -19.5c-17.333 0 -32.5 6.5 -45.5 19.5s-19.5 28.5 -19.5 46.5c0 17.333 6.5 32.333 19.5 45
s28.167 19 45.5 19z" />
    <glyph glyph-name="Zacute" unicode="&#x179;" horiz-adv-x="608" 
d="M558 553v-89l-388 -377l184 4h214v-91h-528v91l394 374l-172 -3h-211v91h507zM294 810l87 -21l-50 -182l-85 20z" />
    <glyph glyph-name="zacute" unicode="&#x17a;" horiz-adv-x="608" 
d="M558 553v-89l-388 -377l184 4h214v-91h-528v91l394 374l-172 -3h-211v91h507zM294 810l87 -21l-50 -182l-85 20z" />
    <glyph glyph-name="Zdotaccent" unicode="&#x17b;" horiz-adv-x="608" 
d="M558 553v-89l-388 -377l184 4h214v-91h-528v91l394 374l-172 -3h-211v91h507zM303 746c19.333 0 35.5 -6.33301 48.5 -19s19.5 -28 19.5 -46c0 -18.667 -6.5 -34.667 -19.5 -48s-29.167 -20 -48.5 -20c-18.667 0 -34.5 6.66699 -47.5 20s-19.5 29.333 -19.5 48
c0 18 6.5 33.333 19.5 46s28.833 19 47.5 19z" />
    <glyph glyph-name="zdotaccent" unicode="&#x17c;" horiz-adv-x="608" 
d="M558 553v-89l-388 -377l184 4h214v-91h-528v91l394 374l-172 -3h-211v91h507zM303 746c19.333 0 35.5 -6.33301 48.5 -19s19.5 -28 19.5 -46c0 -18.667 -6.5 -34.667 -19.5 -48s-29.167 -20 -48.5 -20c-18.667 0 -34.5 6.66699 -47.5 20s-19.5 29.333 -19.5 48
c0 18 6.5 33.333 19.5 46s28.833 19 47.5 19z" />
    <glyph glyph-name="Zcaron" unicode="&#x17d;" horiz-adv-x="608" 
d="M558 553v-89l-388 -377l184 4h214v-91h-528v91l394 374l-172 -3h-211v91h507zM304 693l109 68l40 -53l-149 -110l-150 110l42 53z" />
    <glyph glyph-name="zcaron" unicode="&#x17e;" horiz-adv-x="608" 
d="M558 553v-89l-388 -377l184 4h214v-91h-528v91l394 374l-172 -3h-211v91h507zM304 693l109 68l40 -53l-149 -110l-150 110l42 53z" />
    <glyph glyph-name="AEacute" unicode="&#x1fc;" horiz-adv-x="1095" 
d="M1032 553v-91h-401v-133h361v-90h-361v-146h421v-93h-522v100h-331l-71 -100h-119l374 553h649zM264 194h266v268h-97zM586 810l87 -21l-50 -182l-85 20z" />
    <glyph glyph-name="aeacute" unicode="&#x1fd;" horiz-adv-x="1095" 
d="M1032 553v-91h-401v-133h361v-90h-361v-146h421v-93h-522v100h-331l-71 -100h-119l374 553h649zM264 194h266v268h-97zM579 810l87 -21l-50 -182l-85 20z" />
    <glyph glyph-name="Oslashacute" unicode="&#x1fe;" horiz-adv-x="701" 
d="M563 548l-22.999 -39.001c36 -25.333 64.833 -57.666 86.5 -96.999s32.5 -84.333 32.5 -135c0 -44 -8 -83.833 -24 -119.5s-38 -66.167 -66 -91.5s-60.833 -44.833 -98.5 -58.5s-77.834 -20.5 -120.501 -20.5c-18.667 0 -36.667 1.33301 -54 4
s-34.333 6.33398 -51 11.001l-26 -44l-77 42l23 40c-38 25.333 -68.167 58.166 -90.5 98.499s-33.5 86.5 -33.5 138.5c0 43.333 8 82.833 24 118.5s38 66.167 66 91.5s60.833 44.833 98.5 58.5s77.834 20.5 120.501 20.5c37.333 0 73.666 -5.66699 108.999 -17l24 41z
M412.001 468.999c-19.333 6 -39.998 9.00098 -61.998 9.00098c-29.333 0 -56.5 -4.5 -81.5 -13.5s-46.833 -22.167 -65.5 -39.5s-33.334 -38.333 -44.001 -63s-16 -53 -16 -85c0 -34.667 6.16699 -64.834 18.5 -90.501s29.166 -47.167 50.499 -64.5zM292.003 82
c18 -4 37.333 -6 58 -6c29.333 0 56.666 4.5 81.999 13.5s47.333 22.167 66 39.5s33.334 38.333 44.001 63s16 53 16 85c0 32.667 -5.83301 61.5 -17.5 86.5s-27.5 46.167 -47.5 63.5zM366.003 810l87 -21l-50 -182l-85 20z" />
    <glyph glyph-name="oslashacute" unicode="&#x1ff;" horiz-adv-x="690" 
d="M563 548l-22.999 -39.001c36 -25.333 64.833 -57.666 86.5 -96.999s32.5 -84.333 32.5 -135c0 -44 -8 -83.833 -24 -119.5s-38 -66.167 -66 -91.5s-60.833 -44.833 -98.5 -58.5s-77.834 -20.5 -120.501 -20.5c-18.667 0 -36.667 1.33301 -54 4
s-34.333 6.33398 -51 11.001l-26 -44l-77 42l23 40c-38 25.333 -68.167 58.166 -90.5 98.499s-33.5 86.5 -33.5 138.5c0 43.333 8 82.833 24 118.5s38 66.167 66 91.5s60.833 44.833 98.5 58.5s77.834 20.5 120.501 20.5c37.333 0 73.666 -5.66699 108.999 -17l24 41z
M412.001 468.999c-19.333 6 -39.998 9.00098 -61.998 9.00098c-29.333 0 -56.5 -4.5 -81.5 -13.5s-46.833 -22.167 -65.5 -39.5s-33.334 -38.333 -44.001 -63s-16 -53 -16 -85c0 -34.667 6.16699 -64.834 18.5 -90.501s29.166 -47.167 50.499 -64.5zM292.003 82
c18 -4 37.333 -6 58 -6c29.333 0 56.666 4.5 81.999 13.5s47.333 22.167 66 39.5s33.334 38.333 44.001 63s16 53 16 85c0 32.667 -5.83301 61.5 -17.5 86.5s-27.5 46.167 -47.5 63.5zM373.003 810l87 -21l-50 -182l-85 20z" />
    <glyph glyph-name="uni0200" unicode="&#x200;" horiz-adv-x="735" 
d="M218 177h298l-116 285h-63zM467 553l235 -553h-107l-38 87h-377l-38 -87h-109l242 553h192zM472 627l-84 -20l-48 182l86 21zM338 627l-85 -20l-51 182l86 21z" />
    <glyph glyph-name="uni0201" unicode="&#x201;" horiz-adv-x="735" 
d="M218 177h298l-116 285h-63zM467 553l235 -553h-107l-38 87h-377l-38 -87h-109l242 553h192zM473 627l-84 -20l-48 182l86 21zM339 627l-85 -20l-51 182l86 21z" />
    <glyph glyph-name="uni0202" unicode="&#x202;" horiz-adv-x="735" 
d="M218 177h298l-116 285h-63zM467 553l235 -553h-107l-38 87h-377l-38 -87h-109l242 553h192zM366 657l-109 -68l-40 53l149 110l150 -110l-42 -53z" />
    <glyph glyph-name="uni0203" unicode="&#x203;" horiz-adv-x="735" 
d="M218 177h298l-116 285h-63zM467 553l235 -553h-107l-38 87h-377l-38 -87h-109l242 553h192zM368 669l-109 -68l-40 53l149 110l150 -110l-42 -53z" />
    <glyph glyph-name="uni0204" unicode="&#x204;" horiz-adv-x="608" 
d="M548 553v-92h-393v-133h354v-91h-354v-144h408v-93h-510v553h495zM423 627l-84 -20l-48 182l86 21zM289 627l-85 -20l-51 182l86 21z" />
    <glyph glyph-name="uni0205" unicode="&#x205;" horiz-adv-x="608" 
d="M548 553v-92h-393v-133h354v-91h-354v-144h408v-93h-510v553h495zM419 627l-84 -20l-48 182l86 21zM285 627l-85 -20l-51 182l86 21z" />
    <glyph glyph-name="uni0206" unicode="&#x206;" horiz-adv-x="608" 
d="M548 553v-92h-393v-133h354v-91h-354v-144h408v-93h-510v553h495zM303 664l-109 -68l-40 53l149 110l150 -110l-42 -53z" />
    <glyph glyph-name="uni0207" unicode="&#x207;" horiz-adv-x="608" 
d="M548 553v-92h-393v-133h354v-91h-354v-144h408v-93h-510v553h495zM303 664l-109 -68l-40 53l149 110l150 -110l-42 -53z" />
    <glyph glyph-name="uni0208" unicode="&#x208;" horiz-adv-x="208" 
d="M155 553v-553h-102v553h102zM223 627l-84 -20l-48 182l86 21zM89 627l-85 -20l-51 182l86 21z" />
    <glyph glyph-name="uni0209" unicode="&#x209;" horiz-adv-x="208" 
d="M155 553v-553h-102v553h102zM220 627l-84 -20l-48 182l86 21zM86 627l-85 -20l-51 182l86 21z" />
    <glyph glyph-name="uni020A" unicode="&#x20a;" horiz-adv-x="208" 
d="M155 553v-553h-102v553h102zM106 669l-109 -68l-40 53l149 110l150 -110l-42 -53z" />
    <glyph glyph-name="uni020B" unicode="&#x20b;" horiz-adv-x="208" 
d="M155 553v-553h-102v553h102zM105 671l-109 -68l-40 53l149 110l150 -110l-42 -53z" />
    <glyph glyph-name="uni020C" unicode="&#x20c;" horiz-adv-x="701" 
d="M143 276c0 -32 5.33301 -60.5 16 -85.5s25.334 -46.167 44.001 -63.5s40.5 -30.5 65.5 -39.5s52.167 -13.5 81.5 -13.5s56.666 4.5 81.999 13.5s47.333 22.167 66 39.5s33.334 38.5 44.001 63.5s16 53.5 16 85.5s-5.33301 60.5 -16 85.5s-25.334 46.167 -44.001 63.5
s-40.667 30.5 -66 39.5s-52.666 13.5 -81.999 13.5s-56.5 -4.5 -81.5 -13.5s-46.833 -22.167 -65.5 -39.5s-33.334 -38.5 -44.001 -63.5s-16 -53.5 -16 -85.5zM659 276c0 -44 -8 -83.833 -24 -119.5s-38 -66.167 -66 -91.5s-60.833 -44.833 -98.5 -58.5
s-77.834 -20.5 -120.501 -20.5s-82.834 6.83301 -120.501 20.5s-70.5 33.167 -98.5 58.5s-50 55.833 -66 91.5s-24 75.5 -24 119.5s8 83.833 24 119.5s38 66.167 66 91.5s60.833 44.833 98.5 58.5s77.834 20.5 120.501 20.5s82.834 -6.83301 120.501 -20.5
s70.5 -33.167 98.5 -58.5s50 -55.833 66 -91.5s24 -75.5 24 -119.5zM450 627l-84 -20l-48 182l86 21zM316 627l-85 -20l-51 182l86 21z" />
    <glyph glyph-name="uni020D" unicode="&#x20d;" horiz-adv-x="701" 
d="M143 276c0 -32 5.33301 -60.5 16 -85.5s25.334 -46.167 44.001 -63.5s40.5 -30.5 65.5 -39.5s52.167 -13.5 81.5 -13.5s56.666 4.5 81.999 13.5s47.333 22.167 66 39.5s33.334 38.5 44.001 63.5s16 53.5 16 85.5s-5.33301 60.5 -16 85.5s-25.334 46.167 -44.001 63.5
s-40.667 30.5 -66 39.5s-52.666 13.5 -81.999 13.5s-56.5 -4.5 -81.5 -13.5s-46.833 -22.167 -65.5 -39.5s-33.334 -38.5 -44.001 -63.5s-16 -53.5 -16 -85.5zM659 276c0 -44 -8 -83.833 -24 -119.5s-38 -66.167 -66 -91.5s-60.833 -44.833 -98.5 -58.5
s-77.834 -20.5 -120.501 -20.5s-82.834 6.83301 -120.501 20.5s-70.5 33.167 -98.5 58.5s-50 55.833 -66 91.5s-24 75.5 -24 119.5s8 83.833 24 119.5s38 66.167 66 91.5s60.833 44.833 98.5 58.5s77.834 20.5 120.501 20.5s82.834 -6.83301 120.501 -20.5
s70.5 -33.167 98.5 -58.5s50 -55.833 66 -91.5s24 -75.5 24 -119.5zM455 627l-84 -20l-48 182l86 21zM321 627l-85 -20l-51 182l86 21z" />
    <glyph glyph-name="uni020E" unicode="&#x20e;" horiz-adv-x="701" 
d="M143 276c0 -32 5.33301 -60.5 16 -85.5s25.334 -46.167 44.001 -63.5s40.5 -30.5 65.5 -39.5s52.167 -13.5 81.5 -13.5s56.666 4.5 81.999 13.5s47.333 22.167 66 39.5s33.334 38.5 44.001 63.5s16 53.5 16 85.5s-5.33301 60.5 -16 85.5s-25.334 46.167 -44.001 63.5
s-40.667 30.5 -66 39.5s-52.666 13.5 -81.999 13.5s-56.5 -4.5 -81.5 -13.5s-46.833 -22.167 -65.5 -39.5s-33.334 -38.5 -44.001 -63.5s-16 -53.5 -16 -85.5zM659 276c0 -44 -8 -83.833 -24 -119.5s-38 -66.167 -66 -91.5s-60.833 -44.833 -98.5 -58.5
s-77.834 -20.5 -120.501 -20.5s-82.834 6.83301 -120.501 20.5s-70.5 33.167 -98.5 58.5s-50 55.833 -66 91.5s-24 75.5 -24 119.5s8 83.833 24 119.5s38 66.167 66 91.5s60.833 44.833 98.5 58.5s77.834 20.5 120.501 20.5s82.834 -6.83301 120.501 -20.5
s70.5 -33.167 98.5 -58.5s50 -55.833 66 -91.5s24 -75.5 24 -119.5zM349 669l-109 -68l-40 53l149 110l150 -110l-42 -53z" />
    <glyph glyph-name="uni020F" unicode="&#x20f;" horiz-adv-x="701" 
d="M143 276c0 -32 5.33301 -60.5 16 -85.5s25.334 -46.167 44.001 -63.5s40.5 -30.5 65.5 -39.5s52.167 -13.5 81.5 -13.5s56.666 4.5 81.999 13.5s47.333 22.167 66 39.5s33.334 38.5 44.001 63.5s16 53.5 16 85.5s-5.33301 60.5 -16 85.5s-25.334 46.167 -44.001 63.5
s-40.667 30.5 -66 39.5s-52.666 13.5 -81.999 13.5s-56.5 -4.5 -81.5 -13.5s-46.833 -22.167 -65.5 -39.5s-33.334 -38.5 -44.001 -63.5s-16 -53.5 -16 -85.5zM659 276c0 -44 -8 -83.833 -24 -119.5s-38 -66.167 -66 -91.5s-60.833 -44.833 -98.5 -58.5
s-77.834 -20.5 -120.501 -20.5s-82.834 6.83301 -120.501 20.5s-70.5 33.167 -98.5 58.5s-50 55.833 -66 91.5s-24 75.5 -24 119.5s8 83.833 24 119.5s38 66.167 66 91.5s60.833 44.833 98.5 58.5s77.834 20.5 120.501 20.5s82.834 -6.83301 120.501 -20.5
s70.5 -33.167 98.5 -58.5s50 -55.833 66 -91.5s24 -75.5 24 -119.5zM349 669l-109 -68l-40 53l149 110l150 -110l-42 -53z" />
    <glyph glyph-name="uni0210" unicode="&#x210;" horiz-adv-x="637" 
d="M378 553c32 0 61.667 -5.16602 89 -15.499s51 -24.833 71 -43.5s35.833 -41.167 47.5 -67.5s17.5 -55.5 17.5 -87.5c0 -44 -10.5 -81.833 -31.5 -113.5s-48.833 -55.834 -83.5 -72.501l87 -153h-111l-70 128h-239v-128h-102v553h325zM155 221.001h219
c38 0 68.833 10.333 92.5 31s35.5 49.667 35.5 87c0 38 -11.833 67.667 -35.5 89s-54.5 32 -92.5 32h-219v-239zM413 627.001l-84 -20l-48 182l86 21zM279 627.001l-85 -20l-51 182l86 21z" />
    <glyph glyph-name="uni0211" unicode="&#x211;" horiz-adv-x="637" 
d="M378 553c32 0 61.667 -5.16602 89 -15.499s51 -24.833 71 -43.5s35.833 -41.167 47.5 -67.5s17.5 -55.5 17.5 -87.5c0 -44 -10.5 -81.833 -31.5 -113.5s-48.833 -55.834 -83.5 -72.501l87 -153h-111l-70 128h-239v-128h-102v553h325zM155 221.001h219
c38 0 68.833 10.333 92.5 31s35.5 49.667 35.5 87c0 38 -11.833 67.667 -35.5 89s-54.5 32 -92.5 32h-219v-239zM407 627.001l-84 -20l-48 182l86 21zM273 627.001l-85 -20l-51 182l86 21z" />
    <glyph glyph-name="uni0212" unicode="&#x212;" horiz-adv-x="637" 
d="M378 553c32 0 61.667 -5.16602 89 -15.499s51 -24.833 71 -43.5s35.833 -41.167 47.5 -67.5s17.5 -55.5 17.5 -87.5c0 -44 -10.5 -81.833 -31.5 -113.5s-48.833 -55.834 -83.5 -72.501l87 -153h-111l-70 128h-239v-128h-102v553h325zM155 221.001h219
c38 0 68.833 10.333 92.5 31s35.5 49.667 35.5 87c0 38 -11.833 67.667 -35.5 89s-54.5 32 -92.5 32h-219v-239zM305 669.001l-109 -68l-40 53l149 110l150 -110l-42 -53z" />
    <glyph glyph-name="uni0213" unicode="&#x213;" horiz-adv-x="637" 
d="M378 553c32 0 61.667 -5.16602 89 -15.499s51 -24.833 71 -43.5s35.833 -41.167 47.5 -67.5s17.5 -55.5 17.5 -87.5c0 -44 -10.5 -81.833 -31.5 -113.5s-48.833 -55.834 -83.5 -72.501l87 -153h-111l-70 128h-239v-128h-102v553h325zM155 221.001h219
c38 0 68.833 10.333 92.5 31s35.5 49.667 35.5 87c0 38 -11.833 67.667 -35.5 89s-54.5 32 -92.5 32h-219v-239zM299 669.001l-109 -68l-40 53l149 110l150 -110l-42 -53z" />
    <glyph glyph-name="uni0214" unicode="&#x214;" 
d="M150 553l0.000976562 -283c0 -59.333 14.333 -106.5 43 -141.5s74 -52.5 136 -52.5s107.5 17.5 136.5 52.5s43.5 82.167 43.5 141.5v283h101v-282c0 -46 -6.5 -86.667 -19.5 -122s-31.833 -65 -56.5 -89s-54.334 -42.333 -89.001 -55s-73.334 -19 -116.001 -19
c-43.333 0 -82.166 6.33301 -116.499 19s-63.833 31 -88.5 55s-43.5 53.667 -56.5 89s-19.5 76 -19.5 122v282h102zM439.001 627l-84 -20l-48 182l86 21zM305.001 627l-85 -20l-51 182l86 21z" />
    <glyph glyph-name="uni0215" unicode="&#x215;" 
d="M150 553l0.000976562 -283c0 -59.333 14.333 -106.5 43 -141.5s74 -52.5 136 -52.5s107.5 17.5 136.5 52.5s43.5 82.167 43.5 141.5v283h101v-282c0 -46 -6.5 -86.667 -19.5 -122s-31.833 -65 -56.5 -89s-54.334 -42.333 -89.001 -55s-73.334 -19 -116.001 -19
c-43.333 0 -82.166 6.33301 -116.499 19s-63.833 31 -88.5 55s-43.5 53.667 -56.5 89s-19.5 76 -19.5 122v282h102zM439.001 627l-84 -20l-48 182l86 21zM305.001 627l-85 -20l-51 182l86 21z" />
    <glyph glyph-name="uni0216" unicode="&#x216;" 
d="M150 553l0.000976562 -283c0 -59.333 14.333 -106.5 43 -141.5s74 -52.5 136 -52.5s107.5 17.5 136.5 52.5s43.5 82.167 43.5 141.5v283h101v-282c0 -46 -6.5 -86.667 -19.5 -122s-31.833 -65 -56.5 -89s-54.334 -42.333 -89.001 -55s-73.334 -19 -116.001 -19
c-43.333 0 -82.166 6.33301 -116.499 19s-63.833 31 -88.5 55s-43.5 53.667 -56.5 89s-19.5 76 -19.5 122v282h102zM329.001 669l-109 -68l-40 53l149 110l150 -110l-42 -53z" />
    <glyph glyph-name="uni0217" unicode="&#x217;" 
d="M150 553l0.000976562 -283c0 -59.333 14.333 -106.5 43 -141.5s74 -52.5 136 -52.5s107.5 17.5 136.5 52.5s43.5 82.167 43.5 141.5v283h101v-282c0 -46 -6.5 -86.667 -19.5 -122s-31.833 -65 -56.5 -89s-54.334 -42.333 -89.001 -55s-73.334 -19 -116.001 -19
c-43.333 0 -82.166 6.33301 -116.499 19s-63.833 31 -88.5 55s-43.5 53.667 -56.5 89s-19.5 76 -19.5 122v282h102zM329.001 669l-109 -68l-40 53l149 110l150 -110l-42 -53z" />
    <glyph glyph-name="Scommaaccent" unicode="&#x218;" horiz-adv-x="640" 
d="M532 415c-33.333 21.333 -67.1689 36.833 -101.502 46.5s-74.166 14.5 -119.499 14.5c-30.667 0 -56 -2 -76 -6s-35.667 -9.5 -47 -16.5s-19.333 -14.833 -24 -23.5s-7 -18 -7 -28c0 -20.667 8 -34.834 24 -42.501s37 -13.167 63 -16.5l172 -20
c57.333 -7.33301 102.333 -23.833 135 -49.5s49 -62.834 49 -111.501c0 -30 -6.83301 -56.167 -20.5 -78.5s-32.834 -40.666 -57.501 -54.999s-54.334 -25 -89.001 -32s-72.667 -10.5 -114 -10.5c-55.333 0 -105.166 6.33301 -149.499 19s-87.833 34.334 -130.5 65.001
l48 79c38.667 -26 77.334 -44.833 116.001 -56.5s82.334 -17.5 131.001 -17.5c50 0 90.5 7 121.5 21s46.5 35.333 46.5 64c0 39.333 -28.667 62 -86 68l-182 20c-54.667 6.66699 -97.834 21.5 -129.501 44.5s-47.5 59.167 -47.5 108.5c0 28 6.66699 52.5 20 73.5
s31.5 38.167 54.5 51.5s50 23.333 81 30s63.833 10 98.5 10c50 0 96.833 -5.16699 140.5 -15.5s86.834 -30.5 129.501 -60.5zM313.997 -37c20 0 36.168 -6.66895 48.501 -20.002s18.5 -29.666 18.5 -48.999c0 -3.33301 -0.333008 -7.5 -1 -12.5s-1.66699 -9.5 -3 -13.5
l-51 -131l-55 13l14 82c-12 4.66699 -21.667 12.834 -29 24.501s-11 24.5 -11 38.5c0 18.667 6.66699 34.667 20 48s29.666 20 48.999 20z" />
    <glyph glyph-name="scommaaccent" unicode="&#x219;" horiz-adv-x="640" 
d="M532 415c-33.333 21.333 -67.1689 36.833 -101.502 46.5s-74.166 14.5 -119.499 14.5c-30.667 0 -56 -2 -76 -6s-35.667 -9.5 -47 -16.5s-19.333 -14.833 -24 -23.5s-7 -18 -7 -28c0 -20.667 8 -34.834 24 -42.501s37 -13.167 63 -16.5l172 -20
c57.333 -7.33301 102.333 -23.833 135 -49.5s49 -62.834 49 -111.501c0 -30 -6.83301 -56.167 -20.5 -78.5s-32.834 -40.666 -57.501 -54.999s-54.334 -25 -89.001 -32s-72.667 -10.5 -114 -10.5c-55.333 0 -105.166 6.33301 -149.499 19s-87.833 34.334 -130.5 65.001
l48 79c38.667 -26 77.334 -44.833 116.001 -56.5s82.334 -17.5 131.001 -17.5c50 0 90.5 7 121.5 21s46.5 35.333 46.5 64c0 39.333 -28.667 62 -86 68l-182 20c-54.667 6.66699 -97.834 21.5 -129.501 44.5s-47.5 59.167 -47.5 108.5c0 28 6.66699 52.5 20 73.5
s31.5 38.167 54.5 51.5s50 23.333 81 30s63.833 10 98.5 10c50 0 96.833 -5.16699 140.5 -15.5s86.834 -30.5 129.501 -60.5zM313.997 -37c20 0 36.168 -6.66895 48.501 -20.002s18.5 -29.666 18.5 -48.999c0 -3.33301 -0.333008 -7.5 -1 -12.5s-1.66699 -9.5 -3 -13.5
l-51 -131l-55 13l14 82c-12 4.66699 -21.667 12.834 -29 24.501s-11 24.5 -11 38.5c0 18.667 6.66699 34.667 20 48s29.666 20 48.999 20z" />
    <glyph glyph-name="uni021A" unicode="&#x21a;" horiz-adv-x="632" 
d="M602 553v-92h-235v-461h-102v461h-235v92h572zM317 -37c20 0 36.168 -6.66895 48.501 -20.002s18.5 -29.666 18.5 -48.999c0 -3.33301 -0.333008 -7.5 -1 -12.5s-1.66699 -9.5 -3 -13.5l-51 -131l-55 13l14 82c-12 4.66699 -21.667 12.834 -29 24.501s-11 24.5 -11 38.5
c0 18.667 6.66699 34.667 20 48s29.666 20 48.999 20z" />
    <glyph glyph-name="uni021B" unicode="&#x21b;" horiz-adv-x="632" 
d="M602 553v-92h-235v-461h-102v461h-235v92h572zM317 -37c20 0 36.168 -6.66895 48.501 -20.002s18.5 -29.666 18.5 -48.999c0 -3.33301 -0.333008 -7.5 -1 -12.5s-1.66699 -9.5 -3 -13.5l-51 -131l-55 13l14 82c-12 4.66699 -21.667 12.834 -29 24.501s-11 24.5 -11 38.5
c0 18.667 6.66699 34.667 20 48s29.666 20 48.999 20z" />
    <glyph glyph-name="dotlessj" unicode="&#x237;" horiz-adv-x="597" 
d="M543 553v-313.999c0 -35.333 -5.16699 -68.333 -15.5 -99s-26.166 -57.5 -47.499 -80.5s-48.833 -41 -82.5 -54s-73.834 -19.5 -120.501 -19.5c-57.333 0 -107.5 12.5 -150.5 37.5s-76.167 60.833 -99.5 107.5l87 45c15.333 -32.667 38 -57.334 68 -74.001
s61.333 -25 94 -25c32 0 58.833 4 80.5 12s39 19.5 52 34.5s22.167 33.167 27.5 54.5s8 45 8 71v304h99z" />
    <glyph glyph-name="circumflex" unicode="&#x2c6;" horiz-adv-x="352" 
d="M176 669l-109 -68l-40 53l149 110l150 -110l-42 -53z" />
    <glyph glyph-name="caron" unicode="&#x2c7;" horiz-adv-x="352" 
d="M177 693l109 68l40 -53l-149 -110l-150 110l42 53z" />
    <glyph glyph-name="breve" unicode="&#x2d8;" horiz-adv-x="380" 
d="M348 686c-25.333 -28 -50.8311 -47.167 -76.498 -57.5s-53.167 -15.5 -82.5 -15.5s-56.833 5.16699 -82.5 15.5s-51.5 29.5 -77.5 57.5l52 53c15.333 -15.333 31.333 -26.833 48 -34.5s36.667 -11.5 60 -11.5s43.166 3.83301 59.499 11.5s32.166 19.167 47.499 34.5z" />
    <glyph glyph-name="dotaccent" unicode="&#x2d9;" horiz-adv-x="227" 
d="M114 746c19.333 0 35.5 -6.33301 48.5 -19s19.5 -28 19.5 -46c0 -18.667 -6.5 -34.667 -19.5 -48s-29.167 -20 -48.5 -20c-18.667 0 -34.5 6.66699 -47.5 20s-19.5 29.333 -19.5 48c0 18 6.5 33.333 19.5 46s28.833 19 47.5 19z" />
    <glyph glyph-name="ring" unicode="&#x2da;" horiz-adv-x="335" 
d="M298 723c0 -19.333 -3.5 -36.666 -10.5 -51.999s-16.5 -28.5 -28.5 -39.5s-26 -19.333 -42 -25s-32.667 -8.5 -50 -8.5s-34 2.83301 -50 8.5s-30 14 -42 25s-21.5 24.167 -28.5 39.5s-10.5 32.666 -10.5 51.999c0 18.667 3.5 35.667 10.5 51s16.5 28.5 28.5 39.5
s26 19.333 42 25s32.667 8.5 50 8.5s34 -2.83301 50 -8.5s30 -14 42 -25s21.5 -24.167 28.5 -39.5s10.5 -32.333 10.5 -51zM109 723c0 -19.333 5.33301 -33.833 16 -43.5s24.667 -14.5 42 -14.5s31.333 4.83301 42 14.5s16 24.167 16 43.5
c0 18.667 -5.33301 32.834 -16 42.501s-24.667 14.5 -42 14.5s-31.333 -4.83301 -42 -14.5s-16 -23.834 -16 -42.501z" />
    <glyph glyph-name="ogonek" unicode="&#x2db;" horiz-adv-x="380" 
d="M227 4c-9.33301 -13.333 -16.001 -25.8311 -20.001 -37.498s-6 -24.167 -6 -37.5c0 -19.333 3.5 -35.833 10.5 -49.5s18.167 -27.167 33.5 -40.5l-48 -39c-25.333 11.333 -44.666 26.5 -57.999 45.5s-20 40.167 -20 63.5c0 21.333 3.66699 39.666 11 54.999
s19 29.666 35 42.999z" />
    <glyph glyph-name="tilde" unicode="&#x2dc;" horiz-adv-x="417" 
d="M395 676c-13.333 -21.333 -29.166 -36.998 -47.499 -46.998s-40.5 -15 -66.5 -15c-14.667 0 -27.834 2 -39.501 6s-23 8.33301 -34 13s-21.833 9 -32.5 13s-22.334 6 -35.001 6c-17.333 0 -32.166 -3.33301 -44.499 -10s-23.166 -16 -32.499 -28l-48 48
c30.667 48 73.334 72 128.001 72c17.333 0 32.166 -1.83301 44.499 -5.5s23.5 -7.83398 33.5 -12.501s19.667 -8.83398 29 -12.501s20 -5.5 32 -5.5c16.667 0 30.667 2.33301 42 7s21.666 12 30.999 22z" />
    <glyph glyph-name="hungarumlaut" unicode="&#x2dd;" horiz-adv-x="333" 
d="M74 810l87 -21l-48 -182l-85 20zM212 810l86 -21l-51 -182l-85 20z" />
    <glyph glyph-name="uni0400" unicode="&#x400;" horiz-adv-x="608" 
d="M548 553v-92h-393v-133h354v-91h-354v-144h408v-93h-510v553h495zM366 627l-85 -20l-50 182l87 21z" />
    <glyph glyph-name="afii10023" unicode="&#x401;" horiz-adv-x="608" 
d="M548 553v-92h-393v-133h354v-91h-354v-144h408v-93h-510v553h495zM184 746c18.667 0 34.334 -6.33301 47.001 -19s19 -27.667 19 -45c0 -18 -6.33301 -33.5 -19 -46.5s-28.334 -19.5 -47.001 -19.5c-18 0 -33.333 6.5 -46 19.5s-19 28.5 -19 46.5
c0 17.333 6.33301 32.333 19 45s28 19 46 19zM421 746c18.667 0 34.5 -6.33301 47.5 -19s19.5 -27.667 19.5 -45c0 -18 -6.5 -33.5 -19.5 -46.5s-28.833 -19.5 -47.5 -19.5c-17.333 0 -32.5 6.5 -45.5 19.5s-19.5 28.5 -19.5 46.5c0 17.333 6.5 32.333 19.5 45
s28.167 19 45.5 19z" />
    <glyph glyph-name="afii10051" unicode="&#x402;" horiz-adv-x="777" 
d="M590 553l-0.000976562 -90.002h-239v-88h136c44 0 82 -6 114 -18s58.5 -29.167 79.5 -51.5s36.667 -49.166 47 -80.499s15.5 -66.333 15.5 -105c0 -24.667 -2.66699 -50 -8 -76s-13.333 -51.667 -24 -77s-23.5 -49.666 -38.5 -72.999s-31.833 -44.333 -50.5 -63l-71 59
c30.667 36 53.334 73.667 68.001 113s22 77 22 113c0 32 -3 58.833 -9 80.5s-16.167 39 -30.5 52s-33 22.333 -56 28s-51.5 8.5 -85.5 8.5h-109v-285h-101v463h-221v90h561z" />
    <glyph glyph-name="afii10052" unicode="&#x403;" horiz-adv-x="586" 
d="M557 553v-92h-402v-461h-102v553h504zM320 810l87 -21l-50 -182l-85 20z" />
    <glyph glyph-name="afii10053" unicode="&#x404;" horiz-adv-x="661" 
d="M415 238h-273c3.33301 -24 10.666 -45.833 21.999 -65.5s25.833 -36.5 43.5 -50.5s38 -24.833 61 -32.5s48.167 -11.5 75.5 -11.5c46 0 84.667 8.16699 116 24.5s58.333 39.5 81 69.5l80 -47c-29.333 -44.667 -66.666 -79 -111.999 -103s-99.666 -36 -162.999 -36
c-44 0 -84.833 6.66699 -122.5 20s-70.334 32.5 -98.001 57.5s-49.167 55.5 -64.5 91.5s-23 76.333 -23 121s7.83301 85 23.5 121s37.167 66.5 64.5 91.5s59.666 44.167 96.999 57.5s77.666 20 120.999 20c63.333 0 117.833 -11.833 163.5 -35.5
s82.834 -58.167 111.501 -103.5l-78 -45c-22.667 30 -49.667 52.833 -81 68.5s-70 23.5 -116 23.5c-53.333 0 -97.666 -13 -132.999 -39s-57.333 -62.333 -66 -109h270v-88z" />
    <glyph glyph-name="afii10054" unicode="&#x405;" horiz-adv-x="640" 
d="M532 415c-33.333 21.333 -67.1689 36.833 -101.502 46.5s-74.166 14.5 -119.499 14.5c-30.667 0 -56 -2 -76 -6s-35.667 -9.5 -47 -16.5s-19.333 -14.833 -24 -23.5s-7 -18 -7 -28c0 -20.667 8 -34.834 24 -42.501s37 -13.167 63 -16.5l172 -20
c57.333 -7.33301 102.333 -23.833 135 -49.5s49 -62.834 49 -111.501c0 -30 -6.83301 -56.167 -20.5 -78.5s-32.834 -40.666 -57.501 -54.999s-54.334 -25 -89.001 -32s-72.667 -10.5 -114 -10.5c-55.333 0 -105.166 6.33301 -149.499 19s-87.833 34.334 -130.5 65.001
l48 79c38.667 -26 77.334 -44.833 116.001 -56.5s82.334 -17.5 131.001 -17.5c50 0 90.5 7 121.5 21s46.5 35.333 46.5 64c0 39.333 -28.667 62 -86 68l-182 20c-54.667 6.66699 -97.834 21.5 -129.501 44.5s-47.5 59.167 -47.5 108.5c0 28 6.66699 52.5 20 73.5
s31.5 38.167 54.5 51.5s50 23.333 81 30s63.833 10 98.5 10c50 0 96.833 -5.16699 140.5 -15.5s86.834 -30.5 129.501 -60.5z" />
    <glyph glyph-name="afii10055" unicode="&#x406;" horiz-adv-x="208" 
d="M155 553v-553h-102v553h102z" />
    <glyph glyph-name="afii10056" unicode="&#x407;" horiz-adv-x="208" 
d="M155 553v-553h-102v553h102zM-14 746c18.667 0 34.334 -6.33301 47.001 -19s19 -27.667 19 -45c0 -18 -6.33301 -33.5 -19 -46.5s-28.334 -19.5 -47.001 -19.5c-18 0 -33.333 6.5 -46 19.5s-19 28.5 -19 46.5c0 17.333 6.33301 32.333 19 45s28 19 46 19zM223 746
c18.667 0 34.5 -6.33301 47.5 -19s19.5 -27.667 19.5 -45c0 -18 -6.5 -33.5 -19.5 -46.5s-28.833 -19.5 -47.5 -19.5c-17.333 0 -32.5 6.5 -45.5 19.5s-19.5 28.5 -19.5 46.5c0 17.333 6.5 32.333 19.5 45s28.167 19 45.5 19z" />
    <glyph glyph-name="afii10057" unicode="&#x408;" horiz-adv-x="597" 
d="M543 553v-313.999c0 -35.333 -5.16699 -68.333 -15.5 -99s-26.166 -57.5 -47.499 -80.5s-48.833 -41 -82.5 -54s-73.834 -19.5 -120.501 -19.5c-57.333 0 -107.5 12.5 -150.5 37.5s-76.167 60.833 -99.5 107.5l87 45c15.333 -32.667 38 -57.334 68 -74.001
s61.333 -25 94 -25c32 0 58.833 4 80.5 12s39 19.5 52 34.5s22.167 33.167 27.5 54.5s8 45 8 71v304h99z" />
    <glyph glyph-name="afii10058" unicode="&#x409;" horiz-adv-x="1058" 
d="M626 553v-133h176c32 0 61.667 -4.83301 89 -14.5s51 -23.5 71 -41.5s35.667 -39.833 47 -65.5s17 -54.5 17 -86.5s-5.66699 -61 -17 -87s-27 -48.333 -47 -67s-43.667 -33 -71 -43s-57 -15 -89 -15h-278v461h-228l-61 -324c-8.66699 -47.333 -27.167 -82 -55.5 -104
s-64.5 -33 -108.5 -33h-49v95h43c19.333 0 35 4.33301 47 13s20 22.667 24 42l75 403h415zM626 93l169 0.000976562c41.333 0 73.166 10.167 95.499 30.5s33.5 49.833 33.5 88.5c0 39.333 -11.167 68.666 -33.5 87.999s-54.166 29 -95.499 29h-169v-236z" />
    <glyph glyph-name="afii10059" unicode="&#x40a;" horiz-adv-x="1020" 
d="M155 553v-221h328v221h102v-133h176c32 0 61.667 -4.83301 89 -14.5s51 -23.5 71 -41.5s35.667 -39.833 47 -65.5s17 -54.5 17 -86.5s-5.66699 -61 -17 -87s-27 -48.333 -47 -67s-43.667 -33 -71 -43s-57 -15 -89 -15h-278v241h-328v-241h-102v553h102zM585 93
l169 0.000976562c41.333 0 73.166 10.167 95.499 30.5s33.5 49.833 33.5 88.5c0 39.333 -11.167 68.666 -33.5 87.999s-54.166 29 -95.499 29h-169v-236z" />
    <glyph glyph-name="afii10060" unicode="&#x40b;" horiz-adv-x="779" 
d="M590 553v-90.001h-239v-88h136c44 0 82 -6 114 -18s58.5 -29.167 79.5 -51.5s36.667 -49.166 47 -80.499s15.5 -66.333 15.5 -105v-120h-102v120c0 31.333 -3.16699 57.5 -9.5 78.5s-16.5 38 -30.5 51s-32.5 22.167 -55.5 27.5s-50.833 8 -83.5 8h-111v-285h-101v463
h-221v90h561z" />
    <glyph glyph-name="afii10061" unicode="&#x40c;" horiz-adv-x="647" 
d="M154 553v-214h193l146 214h117l-176 -256l190 -297h-120l-154 247h-196v-247h-101v553h101zM316 808l87 -21l-50 -182l-85 20z" />
    <glyph glyph-name="uni040D" unicode="&#x40d;" horiz-adv-x="677" 
d="M154 553v-418l369 418h101v-553h-101v416l-368 -416h-102v553h101zM375 627l-85 -20l-50 182l87 21z" />
    <glyph glyph-name="afii10062" unicode="&#x40e;" horiz-adv-x="658" 
d="M129 553l83.998 -239c4.66699 -13.333 12.334 -23.333 23.001 -30s22.667 -10 36 -10h166l92 279h102l-146 -441c-11.333 -33.333 -30.666 -60.333 -57.999 -81s-59 -31 -95 -31h-149v87h143c14 0 27.333 3.5 40 10.5s21.667 18.167 27 33.5l17 52h-145
c-38 0 -69.667 9.5 -95 28.5s-44.333 46.5 -57 82.5l-90 259h105zM490.998 684c-25.333 -28 -50.8311 -47.167 -76.498 -57.5s-53.167 -15.5 -82.5 -15.5s-56.833 5.16699 -82.5 15.5s-51.5 29.5 -77.5 57.5l52 53c15.333 -15.333 31.333 -26.833 48 -34.5
s36.667 -11.5 60 -11.5s43.166 3.83301 59.499 11.5s32.166 19.167 47.499 34.5z" />
    <glyph glyph-name="afii10145" unicode="&#x40f;" horiz-adv-x="647" 
d="M154 553v-462h338v462h101v-553h-214l-9 -114h-85l-9 114h-223v553h101z" />
    <glyph glyph-name="afii10017" unicode="&#x410;" horiz-adv-x="735" 
d="M218 177h298l-116 285h-63zM467 553l235 -553h-107l-38 87h-377l-38 -87h-109l242 553h192z" />
    <glyph glyph-name="afii10018" unicode="&#x411;" horiz-adv-x="627" 
d="M525 553v-91.999h-371v-99h250c27.333 0 52.666 -4.33301 75.999 -13s43.5 -20.834 60.5 -36.501s30.333 -34.5 40 -56.5s14.5 -46 14.5 -72c0 -25.333 -4.83301 -49.166 -14.5 -71.499s-23 -41.833 -40 -58.5s-37.167 -29.834 -60.5 -39.501
s-48.666 -14.5 -75.999 -14.5h-351v553h472zM154 92.001h241c36 0 61.5 8.83301 76.5 26.5s22.5 39.5 22.5 65.5c0 25.333 -7.66699 46.333 -23 63s-41 25 -77 25h-240v-180z" />
    <glyph glyph-name="afii10019" unicode="&#x412;" horiz-adv-x="648" 
d="M406 553c24.667 0 47.499 -3.33203 68.499 -9.99902s38.833 -16.334 53.5 -29.001s26.167 -27.667 34.5 -45s12.5 -37 12.5 -59c0 -46 -15.667 -79.667 -47 -101c27.333 -12 48.5 -29.833 63.5 -53.5s22.5 -52.167 22.5 -85.5c0 -23.333 -4.5 -45.333 -13.5 -66
s-21.5 -38.667 -37.5 -54s-35.167 -27.5 -57.5 -36.5s-47.166 -13.5 -74.499 -13.5h-378v553h353zM154.999 333.001l260.001 -0.000976562c19.333 0 34.333 6.5 45 19.5s16 27.5 16 43.5c0 8.66699 -1.16699 16.834 -3.5 24.501s-6.5 14.5 -12.5 20.5
s-13.833 10.833 -23.5 14.5s-21.834 5.5 -36.501 5.5h-245v-128zM155 92l271.999 0.000976562c29.333 0 51.333 7.5 66 22.5s22 33.167 22 54.5c0 23.333 -7.16699 41.666 -21.5 54.999s-33.166 20 -56.499 20h-282v-152z" />
    <glyph glyph-name="afii10020" unicode="&#x413;" horiz-adv-x="586" 
d="M557 553v-92h-402v-461h-102v553h504z" />
    <glyph glyph-name="afii10021" unicode="&#x414;" horiz-adv-x="730" 
d="M630 553v-461h67v-203h-87l-9 111h-472l-9 -111h-87v203h72l94 461h431zM212 92h316v372h-247z" />
    <glyph glyph-name="afii10022" unicode="&#x415;" horiz-adv-x="608" 
d="M548 553v-92h-393v-133h354v-91h-354v-144h408v-93h-510v553h495z" />
    <glyph glyph-name="afii10024" unicode="&#x416;" horiz-adv-x="935" 
d="M157 553l129 -218h131v218h101v-218h131l129 218h115l-156 -257l174 -296h-117l-141 245h-135v-245h-101v245h-135l-141 -245h-118l175 296l-156 257h115z" />
    <glyph glyph-name="afii10025" unicode="&#x417;" horiz-adv-x="658" 
d="M420 341c20 0 35.999 4.50293 47.999 13.5029s18 23.167 18 42.5c0 26.667 -13.333 46.5 -40 59.5s-68.334 19.5 -125.001 19.5c-24 0 -45.667 -1 -65 -3s-37.833 -5.33301 -55.5 -10s-34.667 -10.834 -51 -18.501s-33.166 -16.834 -50.499 -27.501l-43 75
c42.667 27.333 85.334 46.5 128.001 57.5s88 16.5 136 16.5c38.667 0 75.167 -3.33301 109.5 -10s64.166 -17.667 89.499 -33c21.333 -13.333 38 -29.833 50 -49.5s18 -43.5 18 -71.5c0 -42 -16.667 -73 -50 -93c28.667 -11.333 50.334 -28.333 65.001 -51s22 -50 22 -82
c0 -28 -6.33301 -53 -19 -75s-30.667 -41.667 -54 -59c-26 -19.333 -58.833 -33.5 -98.5 -42.5s-84.5 -13.5 -134.5 -13.5c-57.333 0 -108.5 6 -153.5 18s-89.5 32.333 -133.5 61l47 77c37.333 -22 75.5 -38.5 114.5 -49.5s82.833 -16.5 131.5 -16.5
c60.667 0 108.834 8.16699 144.501 24.5s53.5 42.5 53.5 78.5c0 23.333 -7.33301 41.166 -22 53.499s-40.334 18.5 -77.001 18.5h-216v90h213z" />
    <glyph glyph-name="afii10026" unicode="&#x418;" horiz-adv-x="677" 
d="M154 553v-418l369 418h101v-553h-101v416l-368 -416h-102v553h101z" />
    <glyph glyph-name="afii10027" unicode="&#x419;" horiz-adv-x="677" 
d="M154 553v-418l369 418h101v-553h-101v416l-368 -416h-102v553h101zM497 662c-25.333 -28 -50.8311 -47.167 -76.498 -57.5s-53.167 -15.5 -82.5 -15.5s-56.833 5.16699 -82.5 15.5s-51.5 29.5 -77.5 57.5l52 53c15.333 -15.333 31.333 -26.833 48 -34.5
s36.667 -11.5 60 -11.5s43.166 3.83301 59.499 11.5s32.166 19.167 47.499 34.5z" />
    <glyph glyph-name="afii10028" unicode="&#x41a;" horiz-adv-x="647" 
d="M154 553v-214h193l146 214h117l-176 -256l190 -297h-120l-154 247h-196v-247h-101v553h101z" />
    <glyph glyph-name="afii10029" unicode="&#x41b;" horiz-adv-x="692" 
d="M639 553l-0.000976562 -553h-102v461h-247l-61 -324c-8.66699 -47.333 -27.167 -82 -55.5 -104s-64.166 -33 -107.499 -33h-56v95h49c19.333 0 35 4.33301 47 13s20 22.667 24 42l76 403h433z" />
    <glyph glyph-name="afii10030" unicode="&#x41c;" horiz-adv-x="836" 
d="M201 553l216 -435h5l217 435h144v-553h-101v427h-10l-210 -427h-91l-209 427h-11v-427h-98v553h148z" />
    <glyph glyph-name="afii10031" unicode="&#x41d;" horiz-adv-x="665" 
d="M155 553v-221h355v221h101v-553h-101v241h-355v-241h-102v553h102z" />
    <glyph glyph-name="afii10032" unicode="&#x41e;" horiz-adv-x="701" 
d="M143 276c0 -32 5.33301 -60.5 16 -85.5s25.334 -46.167 44.001 -63.5s40.5 -30.5 65.5 -39.5s52.167 -13.5 81.5 -13.5s56.666 4.5 81.999 13.5s47.333 22.167 66 39.5s33.334 38.5 44.001 63.5s16 53.5 16 85.5s-5.33301 60.5 -16 85.5s-25.334 46.167 -44.001 63.5
s-40.667 30.5 -66 39.5s-52.666 13.5 -81.999 13.5s-56.5 -4.5 -81.5 -13.5s-46.833 -22.167 -65.5 -39.5s-33.334 -38.5 -44.001 -63.5s-16 -53.5 -16 -85.5zM659 276c0 -44 -8 -83.833 -24 -119.5s-38 -66.167 -66 -91.5s-60.833 -44.833 -98.5 -58.5
s-77.834 -20.5 -120.501 -20.5s-82.834 6.83301 -120.501 20.5s-70.5 33.167 -98.5 58.5s-50 55.833 -66 91.5s-24 75.5 -24 119.5s8 83.833 24 119.5s38 66.167 66 91.5s60.833 44.833 98.5 58.5s77.834 20.5 120.501 20.5s82.834 -6.83301 120.501 -20.5
s70.5 -33.167 98.5 -58.5s50 -55.833 66 -91.5s24 -75.5 24 -119.5z" />
    <glyph glyph-name="afii10033" unicode="&#x41f;" horiz-adv-x="647" 
d="M593 553v-553h-101v462h-338v-462h-101v553h540z" />
    <glyph glyph-name="afii10034" unicode="&#x420;" horiz-adv-x="635" 
d="M378 553c32 0 61.667 -5.16699 89 -15.5s51 -24.833 71 -43.5s35.833 -41.167 47.5 -67.5s17.5 -55.5 17.5 -87.5s-5.83301 -61 -17.5 -87s-27.5 -48.167 -47.5 -66.5s-43.667 -32.5 -71 -42.5s-57 -15 -89 -15h-223v-128h-102v553h325zM155 221h219
c38 0 68.833 10.333 92.5 31s35.5 49.667 35.5 87c0 38 -11.833 67.667 -35.5 89s-54.5 32 -92.5 32h-219v-239z" />
    <glyph glyph-name="afii10035" unicode="&#x421;" 
d="M542 381c-22 30 -48.8359 53.166 -80.5029 69.499s-70.5 24.5 -116.5 24.5c-31.333 0 -59.5 -4.66699 -84.5 -14s-46.333 -22.666 -64 -39.999s-31.334 -38.333 -41.001 -63s-14.5 -52 -14.5 -82c0 -29.333 5 -56.166 15 -80.499s24 -45.333 42 -63
s39.5 -31.334 64.5 -41.001s52.5 -14.5 82.5 -14.5c46 0 84.5 8.16699 115.5 24.5s58.167 39.833 81.5 70.5l80 -47c-29.333 -44.667 -66.666 -79 -111.999 -103s-99.666 -36 -162.999 -36c-44 0 -84.667 6.66699 -122 20s-69.833 32.5 -97.5 57.5s-49.167 55.5 -64.5 91.5
s-23 76.333 -23 121s7.83301 85 23.5 121s37.334 66.5 65.001 91.5s60.167 44.167 97.5 57.5s77.666 20 120.999 20c62.667 0 116.834 -11.833 162.501 -35.5s82.834 -58.167 111.501 -103.5z" />
    <glyph glyph-name="afii10036" unicode="&#x422;" horiz-adv-x="632" 
d="M602 553v-92h-235v-461h-102v461h-235v92h572z" />
    <glyph glyph-name="afii10037" unicode="&#x423;" horiz-adv-x="658" 
d="M129 553l83.998 -239c4.66699 -13.333 12.334 -23.333 23.001 -30s22.667 -10 36 -10h166l92 279h102l-146 -441c-11.333 -33.333 -30.666 -60.333 -57.999 -81s-59 -31 -95 -31h-149v87h143c14 0 27.333 3.5 40 10.5s21.667 18.167 27 33.5l17 52h-145
c-38 0 -69.667 9.5 -95 28.5s-44.333 46.5 -57 82.5l-90 259h105z" />
    <glyph glyph-name="afii10038" unicode="&#x424;" horiz-adv-x="864" 
d="M382 553h100v-63h125c32 0 61.5 -5.16699 88.5 -15.5s50.5 -24.833 70.5 -43.5s35.667 -41.167 47 -67.5s17 -55.5 17 -87.5s-5.66699 -61 -17 -87s-27 -48 -47 -66s-43.5 -32 -70.5 -42s-56.5 -15 -88.5 -15h-125v-66h-100v66h-125c-32 0 -61.667 5 -89 15
s-51 24 -71 42s-35.667 40 -47 66s-17 55 -17 87s5.66699 61.167 17 87.5s27 48.833 47 67.5s43.667 33.167 71 43.5s57 15.5 89 15.5h125v63zM262 398c-40 0 -71.167 -10.333 -93.5 -31s-33.5 -50.667 -33.5 -90c0 -38.667 11.667 -68.167 35 -88.5s54 -30.5 92 -30.5h120
v240h-120zM482 158h120c37.333 0 67.833 10.167 91.5 30.5s35.5 49.833 35.5 88.5c0 39.333 -11.167 69.333 -33.5 90s-53.5 31 -93.5 31h-120v-240z" />
    <glyph glyph-name="afii10039" unicode="&#x425;" horiz-adv-x="671" 
d="M159 553l153 -223h47l153 223h116l-186 -262l201 -291h-118l-163 238h-53l-164 -238h-118l203 288l-187 265h116z" />
    <glyph glyph-name="afii10040" unicode="&#x426;" horiz-adv-x="678" 
d="M155 553v-461h334v461h101v-461h61v-203h-86l-9 111h-503v553h102z" />
    <glyph glyph-name="afii10041" unicode="&#x427;" horiz-adv-x="640" 
d="M152 553v-202.001c0 -44 11.167 -77.167 33.5 -99.5s54.833 -33.5 97.5 -33.5h200v335h102v-553h-102v125h-220c-32 0 -61 5.16699 -87 15.5s-48.333 24.833 -67 43.5s-33.167 41.334 -43.5 68.001s-15.5 56 -15.5 88v213h102z" />
    <glyph glyph-name="afii10042" unicode="&#x428;" horiz-adv-x="892" 
d="M153 553v-461h243v461h100v-461h242v461h100v-553h-785v553h100z" />
    <glyph glyph-name="afii10043" unicode="&#x429;" horiz-adv-x="926" 
d="M53 0v553h100v-461h243v461h100v-461h242v461h100v-461h61v-203h-86l-9 111h-751z" />
    <glyph glyph-name="afii10044" unicode="&#x42a;" horiz-adv-x="720" 
d="M261 553v-131h203c32 0 61.667 -4.83301 89 -14.5s51 -23.667 71 -42s35.667 -40.5 47 -66.5s17 -55 17 -87s-5.66699 -61 -17 -87s-27 -48.333 -47 -67s-43.667 -33 -71 -43s-57 -15 -89 -15h-305v462l-135 6v85h237zM261 93h198c38 0 68.667 10.5 92 31.5
s35 50.167 35 87.5c0 38 -11.667 67 -35 87s-54 30 -92 30h-198v-236z" />
    <glyph glyph-name="afii10045" unicode="&#x42b;" horiz-adv-x="805" 
d="M752 553v-553h-102v553h102zM155 553v-133h210c32 0 61.667 -4.83301 89 -14.5s51 -23.5 71 -41.5s35.667 -39.833 47 -65.5s17 -54.5 17 -86.5s-5.66699 -61 -17 -87s-27 -48.333 -47 -67s-43.667 -33 -71 -43s-57 -15 -89 -15h-312v553h102zM155 93l202 0.000976562
c41.333 0 73.333 10.167 96 30.5s34 49.833 34 88.5c0 39.333 -11.333 68.666 -34 87.999s-54.667 29 -96 29h-202v-236z" />
    <glyph glyph-name="afii10046" unicode="&#x42c;" horiz-adv-x="622" 
d="M155 553v-133h210c32 0 61.667 -4.83301 89 -14.5s51 -23.5 71 -41.5s35.667 -39.833 47 -65.5s17 -54.5 17 -86.5s-5.66699 -61 -17 -87s-27 -48.333 -47 -67s-43.667 -33 -71 -43s-57 -15 -89 -15h-312v553h102zM155 93l202 0.000976562
c41.333 0 73.333 10.167 96 30.5s34 49.833 34 88.5c0 39.333 -11.333 68.666 -34 87.999s-54.667 29 -96 29h-202v-236z" />
    <glyph glyph-name="afii10047" unicode="&#x42d;" horiz-adv-x="661" 
d="M520 326c-8.66699 46.667 -30.6641 83 -65.9971 109s-79.666 39 -132.999 39c-46 0 -84.667 -7.83301 -116 -23.5s-58 -38.5 -80 -68.5l-79 45c29.333 45.333 66.666 79.833 111.999 103.5s99.666 35.5 162.999 35.5c43.333 0 83.666 -6.66699 120.999 -20
s69.666 -32.5 96.999 -57.5s48.833 -55.5 64.5 -91.5s23.5 -76.333 23.5 -121s-7.66699 -85 -23 -121s-36.833 -66.5 -64.5 -91.5s-60.334 -44.167 -98.001 -57.5s-78.5 -20 -122.5 -20c-63.333 0 -117.666 12 -162.999 36s-82.666 58.333 -111.999 103l81 47
c22.667 -30 49.5 -53.167 80.5 -69.5s69.5 -24.5 115.5 -24.5c27.333 0 52.5 3.83301 75.5 11.5s43.333 18.5 61 32.5s32.167 30.833 43.5 50.5s18.666 41.5 21.999 65.5h-273v88h270z" />
    <glyph glyph-name="afii10048" unicode="&#x42e;" horiz-adv-x="891" 
d="M153 553l0.000976562 -216h106c6 37.333 17.833 70.333 35.5 99s39.5 52.667 65.5 72s55.5 33.833 88.5 43.5s68.167 14.5 105.5 14.5c41.333 0 80.333 -6.16699 117 -18.5s68.667 -30.833 96 -55.5s48.833 -55 64.5 -91s23.5 -77.667 23.5 -125s-7.83301 -89 -23.5 -125
s-37.167 -66.333 -64.5 -91s-59.333 -43.167 -96 -55.5s-75.667 -18.5 -117 -18.5c-39.333 0 -76.333 5.5 -111 16.5s-65.334 27.333 -92.001 49s-48.5 48.667 -65.5 81s-27.167 69.833 -30.5 112.5h-102v-245h-100v553h100zM354.001 276
c0 -61.333 16.833 -110.333 50.5 -147s83.5 -55 149.5 -55s115.833 18.333 149.5 55s50.5 85.667 50.5 147s-16.833 110.333 -50.5 147s-83.5 55 -149.5 55s-115.833 -18.333 -149.5 -55s-50.5 -85.667 -50.5 -147z" />
    <glyph glyph-name="afii10049" unicode="&#x42f;" horiz-adv-x="638" 
d="M584 0h-102v130h-241l-71 -130h-112l87 154c-36 18 -63.5 42.667 -82.5 74s-28.5 68.333 -28.5 111c0 32 5.66699 61.167 17 87.5s27 48.833 47 67.5s43.667 33.167 71 43.5s57 15.5 89 15.5h326v-553zM263 460c-38 0 -68.667 -10.833 -92 -32.5s-35 -51.167 -35 -88.5
c0 -38 11.667 -66.833 35 -86.5s54 -29.5 92 -29.5h219v237h-219z" />
    <glyph glyph-name="afii10065" unicode="&#x430;" horiz-adv-x="735" 
d="M218 177h298l-116 285h-63zM467 553l235 -553h-107l-38 87h-377l-38 -87h-109l242 553h192z" />
    <glyph glyph-name="afii10066" unicode="&#x431;" horiz-adv-x="627" 
d="M525 553v-91.999h-371v-99h250c27.333 0 52.666 -4.33301 75.999 -13s43.5 -20.834 60.5 -36.501s30.333 -34.5 40 -56.5s14.5 -46 14.5 -72c0 -25.333 -4.83301 -49.166 -14.5 -71.499s-23 -41.833 -40 -58.5s-37.167 -29.834 -60.5 -39.501
s-48.666 -14.5 -75.999 -14.5h-351v553h472zM154 92.001h241c36 0 61.5 8.83301 76.5 26.5s22.5 39.5 22.5 65.5c0 25.333 -7.66699 46.333 -23 63s-41 25 -77 25h-240v-180z" />
    <glyph glyph-name="afii10067" unicode="&#x432;" horiz-adv-x="648" 
d="M406 553c24.667 0 47.499 -3.33203 68.499 -9.99902s38.833 -16.334 53.5 -29.001s26.167 -27.667 34.5 -45s12.5 -37 12.5 -59c0 -46 -15.667 -79.667 -47 -101c27.333 -12 48.5 -29.833 63.5 -53.5s22.5 -52.167 22.5 -85.5c0 -23.333 -4.5 -45.333 -13.5 -66
s-21.5 -38.667 -37.5 -54s-35.167 -27.5 -57.5 -36.5s-47.166 -13.5 -74.499 -13.5h-378v553h353zM154.999 333.001l260.001 -0.000976562c19.333 0 34.333 6.5 45 19.5s16 27.5 16 43.5c0 8.66699 -1.16699 16.834 -3.5 24.501s-6.5 14.5 -12.5 20.5
s-13.833 10.833 -23.5 14.5s-21.834 5.5 -36.501 5.5h-245v-128zM155 92l271.999 0.000976562c29.333 0 51.333 7.5 66 22.5s22 33.167 22 54.5c0 23.333 -7.16699 41.666 -21.5 54.999s-33.166 20 -56.499 20h-282v-152z" />
    <glyph glyph-name="afii10068" unicode="&#x433;" horiz-adv-x="586" 
d="M557 553v-92h-402v-461h-102v553h504z" />
    <glyph glyph-name="afii10069" unicode="&#x434;" horiz-adv-x="730" 
d="M630 553v-461h67v-203h-87l-9 111h-472l-9 -111h-87v203h72l94 461h431zM212 92h316v372h-247z" />
    <glyph glyph-name="afii10070" unicode="&#x435;" horiz-adv-x="608" 
d="M548 553v-92h-393v-133h354v-91h-354v-144h408v-93h-510v553h495z" />
    <glyph glyph-name="afii10072" unicode="&#x436;" horiz-adv-x="935" 
d="M157 553l129 -218h131v218h101v-218h131l129 218h115l-156 -257l174 -296h-117l-141 245h-135v-245h-101v245h-135l-141 -245h-118l175 296l-156 257h115z" />
    <glyph glyph-name="afii10073" unicode="&#x437;" horiz-adv-x="658" 
d="M420 341c20 0 35.999 4.50293 47.999 13.5029s18 23.167 18 42.5c0 26.667 -13.333 46.5 -40 59.5s-68.334 19.5 -125.001 19.5c-24 0 -45.667 -1 -65 -3s-37.833 -5.33301 -55.5 -10s-34.667 -10.834 -51 -18.501s-33.166 -16.834 -50.499 -27.501l-43 75
c42.667 27.333 85.334 46.5 128.001 57.5s88 16.5 136 16.5c38.667 0 75.167 -3.33301 109.5 -10s64.166 -17.667 89.499 -33c21.333 -13.333 38 -29.833 50 -49.5s18 -43.5 18 -71.5c0 -42 -16.667 -73 -50 -93c28.667 -11.333 50.334 -28.333 65.001 -51s22 -50 22 -82
c0 -28 -6.33301 -53 -19 -75s-30.667 -41.667 -54 -59c-26 -19.333 -58.833 -33.5 -98.5 -42.5s-84.5 -13.5 -134.5 -13.5c-57.333 0 -108.5 6 -153.5 18s-89.5 32.333 -133.5 61l47 77c37.333 -22 75.5 -38.5 114.5 -49.5s82.833 -16.5 131.5 -16.5
c60.667 0 108.834 8.16699 144.501 24.5s53.5 42.5 53.5 78.5c0 23.333 -7.33301 41.166 -22 53.499s-40.334 18.5 -77.001 18.5h-216v90h213z" />
    <glyph glyph-name="afii10074" unicode="&#x438;" horiz-adv-x="677" 
d="M154 553v-418l369 418h101v-553h-101v416l-368 -416h-102v553h101z" />
    <glyph glyph-name="afii10075" unicode="&#x439;" horiz-adv-x="677" 
d="M154 553v-418l369 418h101v-553h-101v416l-368 -416h-102v553h101zM493 681c-25.333 -28 -50.8311 -47.167 -76.498 -57.5s-53.167 -15.5 -82.5 -15.5s-56.833 5.16699 -82.5 15.5s-51.5 29.5 -77.5 57.5l52 53c15.333 -15.333 31.333 -26.833 48 -34.5
s36.667 -11.5 60 -11.5s43.166 3.83301 59.499 11.5s32.166 19.167 47.499 34.5z" />
    <glyph glyph-name="afii10076" unicode="&#x43a;" horiz-adv-x="647" 
d="M154 553v-214h193l146 214h117l-176 -256l190 -297h-120l-154 247h-196v-247h-101v553h101z" />
    <glyph glyph-name="afii10077" unicode="&#x43b;" horiz-adv-x="692" 
d="M639 553l-0.000976562 -553h-102v461h-247l-61 -324c-8.66699 -47.333 -27.167 -82 -55.5 -104s-64.166 -33 -107.499 -33h-56v95h49c19.333 0 35 4.33301 47 13s20 22.667 24 42l76 403h433z" />
    <glyph glyph-name="afii10078" unicode="&#x43c;" horiz-adv-x="836" 
d="M201 553l216 -435h5l217 435h144v-553h-101v427h-10l-210 -427h-91l-209 427h-11v-427h-98v553h148z" />
    <glyph glyph-name="afii10079" unicode="&#x43d;" horiz-adv-x="665" 
d="M155 553v-221h355v221h101v-553h-101v241h-355v-241h-102v553h102z" />
    <glyph glyph-name="afii10080" unicode="&#x43e;" horiz-adv-x="701" 
d="M143 276c0 -32 5.33301 -60.5 16 -85.5s25.334 -46.167 44.001 -63.5s40.5 -30.5 65.5 -39.5s52.167 -13.5 81.5 -13.5s56.666 4.5 81.999 13.5s47.333 22.167 66 39.5s33.334 38.5 44.001 63.5s16 53.5 16 85.5s-5.33301 60.5 -16 85.5s-25.334 46.167 -44.001 63.5
s-40.667 30.5 -66 39.5s-52.666 13.5 -81.999 13.5s-56.5 -4.5 -81.5 -13.5s-46.833 -22.167 -65.5 -39.5s-33.334 -38.5 -44.001 -63.5s-16 -53.5 -16 -85.5zM659 276c0 -44 -8 -83.833 -24 -119.5s-38 -66.167 -66 -91.5s-60.833 -44.833 -98.5 -58.5
s-77.834 -20.5 -120.501 -20.5s-82.834 6.83301 -120.501 20.5s-70.5 33.167 -98.5 58.5s-50 55.833 -66 91.5s-24 75.5 -24 119.5s8 83.833 24 119.5s38 66.167 66 91.5s60.833 44.833 98.5 58.5s77.834 20.5 120.501 20.5s82.834 -6.83301 120.501 -20.5
s70.5 -33.167 98.5 -58.5s50 -55.833 66 -91.5s24 -75.5 24 -119.5z" />
    <glyph glyph-name="afii10081" unicode="&#x43f;" horiz-adv-x="647" 
d="M593 553v-553h-101v462h-338v-462h-101v553h540z" />
    <glyph glyph-name="afii10082" unicode="&#x440;" horiz-adv-x="638" 
d="M378 553c32 0 61.667 -5.16699 89 -15.5s51 -24.833 71 -43.5s35.833 -41.167 47.5 -67.5s17.5 -55.5 17.5 -87.5s-5.83301 -61 -17.5 -87s-27.5 -48.167 -47.5 -66.5s-43.667 -32.5 -71 -42.5s-57 -15 -89 -15h-223v-128h-102v553h325zM155 221h219
c38 0 68.833 10.333 92.5 31s35.5 49.667 35.5 87c0 38 -11.833 67.667 -35.5 89s-54.5 32 -92.5 32h-219v-239z" />
    <glyph glyph-name="afii10083" unicode="&#x441;" 
d="M542 381c-22 30 -48.8359 53.166 -80.5029 69.499s-70.5 24.5 -116.5 24.5c-31.333 0 -59.5 -4.66699 -84.5 -14s-46.333 -22.666 -64 -39.999s-31.334 -38.333 -41.001 -63s-14.5 -52 -14.5 -82c0 -29.333 5 -56.166 15 -80.499s24 -45.333 42 -63
s39.5 -31.334 64.5 -41.001s52.5 -14.5 82.5 -14.5c46 0 84.5 8.16699 115.5 24.5s58.167 39.833 81.5 70.5l80 -47c-29.333 -44.667 -66.666 -79 -111.999 -103s-99.666 -36 -162.999 -36c-44 0 -84.667 6.66699 -122 20s-69.833 32.5 -97.5 57.5s-49.167 55.5 -64.5 91.5
s-23 76.333 -23 121s7.83301 85 23.5 121s37.334 66.5 65.001 91.5s60.167 44.167 97.5 57.5s77.666 20 120.999 20c62.667 0 116.834 -11.833 162.501 -35.5s82.834 -58.167 111.501 -103.5z" />
    <glyph glyph-name="afii10084" unicode="&#x442;" horiz-adv-x="632" 
d="M602 553v-92h-235v-461h-102v461h-235v92h572z" />
    <glyph glyph-name="afii10085" unicode="&#x443;" horiz-adv-x="658" 
d="M129 553l83.998 -239c4.66699 -13.333 12.334 -23.333 23.001 -30s22.667 -10 36 -10h166l92 279h102l-146 -441c-11.333 -33.333 -30.666 -60.333 -57.999 -81s-59 -31 -95 -31h-149v87h143c14 0 27.333 3.5 40 10.5s21.667 18.167 27 33.5l17 52h-145
c-38 0 -69.667 9.5 -95 28.5s-44.333 46.5 -57 82.5l-90 259h105z" />
    <glyph glyph-name="afii10086" unicode="&#x444;" horiz-adv-x="864" 
d="M382 553h100v-63h125c32 0 61.5 -5.16699 88.5 -15.5s50.5 -24.833 70.5 -43.5s35.667 -41.167 47 -67.5s17 -55.5 17 -87.5s-5.66699 -61 -17 -87s-27 -48 -47 -66s-43.5 -32 -70.5 -42s-56.5 -15 -88.5 -15h-125v-66h-100v66h-125c-32 0 -61.667 5 -89 15
s-51 24 -71 42s-35.667 40 -47 66s-17 55 -17 87s5.66699 61.167 17 87.5s27 48.833 47 67.5s43.667 33.167 71 43.5s57 15.5 89 15.5h125v63zM262 398c-40 0 -71.167 -10.333 -93.5 -31s-33.5 -50.667 -33.5 -90c0 -38.667 11.667 -68.167 35 -88.5s54 -30.5 92 -30.5h120
v240h-120zM482 158h120c37.333 0 67.833 10.167 91.5 30.5s35.5 49.833 35.5 88.5c0 39.333 -11.167 69.333 -33.5 90s-53.5 31 -93.5 31h-120v-240z" />
    <glyph glyph-name="afii10087" unicode="&#x445;" horiz-adv-x="671" 
d="M159 553l153 -223h47l153 223h116l-186 -262l201 -291h-118l-163 238h-53l-164 -238h-118l203 288l-187 265h116z" />
    <glyph glyph-name="afii10088" unicode="&#x446;" horiz-adv-x="678" 
d="M155 553v-461h334v461h101v-461h61v-203h-86l-9 111h-503v553h102z" />
    <glyph glyph-name="afii10089" unicode="&#x447;" horiz-adv-x="640" 
d="M152 553v-202.001c0 -44 11.167 -77.167 33.5 -99.5s54.833 -33.5 97.5 -33.5h200v335h102v-553h-102v125h-220c-32 0 -61 5.16699 -87 15.5s-48.333 24.833 -67 43.5s-33.167 41.334 -43.5 68.001s-15.5 56 -15.5 88v213h102z" />
    <glyph glyph-name="afii10090" unicode="&#x448;" horiz-adv-x="892" 
d="M153 553v-461h243v461h100v-461h242v461h100v-553h-785v553h100z" />
    <glyph glyph-name="afii10091" unicode="&#x449;" horiz-adv-x="926" 
d="M53 0v553h100v-461h243v461h100v-461h242v461h100v-461h61v-203h-86l-9 111h-751z" />
    <glyph glyph-name="afii10092" unicode="&#x44a;" horiz-adv-x="720" 
d="M261 553v-131h203c32 0 61.667 -4.83301 89 -14.5s51 -23.667 71 -42s35.667 -40.5 47 -66.5s17 -55 17 -87s-5.66699 -61 -17 -87s-27 -48.333 -47 -67s-43.667 -33 -71 -43s-57 -15 -89 -15h-305v462l-135 6v85h237zM261 93h198c38 0 68.667 10.5 92 31.5
s35 50.167 35 87.5c0 38 -11.667 67 -35 87s-54 30 -92 30h-198v-236z" />
    <glyph glyph-name="afii10093" unicode="&#x44b;" horiz-adv-x="805" 
d="M752 553v-553h-102v553h102zM155 553v-133h210c32 0 61.667 -4.83301 89 -14.5s51 -23.5 71 -41.5s35.667 -39.833 47 -65.5s17 -54.5 17 -86.5s-5.66699 -61 -17 -87s-27 -48.333 -47 -67s-43.667 -33 -71 -43s-57 -15 -89 -15h-312v553h102zM155 93l202 0.000976562
c41.333 0 73.333 10.167 96 30.5s34 49.833 34 88.5c0 39.333 -11.333 68.666 -34 87.999s-54.667 29 -96 29h-202v-236z" />
    <glyph glyph-name="afii10094" unicode="&#x44c;" horiz-adv-x="622" 
d="M155 553v-133h210c32 0 61.667 -4.83301 89 -14.5s51 -23.5 71 -41.5s35.667 -39.833 47 -65.5s17 -54.5 17 -86.5s-5.66699 -61 -17 -87s-27 -48.333 -47 -67s-43.667 -33 -71 -43s-57 -15 -89 -15h-312v553h102zM155 93l202 0.000976562
c41.333 0 73.333 10.167 96 30.5s34 49.833 34 88.5c0 39.333 -11.333 68.666 -34 87.999s-54.667 29 -96 29h-202v-236z" />
    <glyph glyph-name="afii10095" unicode="&#x44d;" horiz-adv-x="661" 
d="M520 326c-8.66699 46.667 -30.6641 83 -65.9971 109s-79.666 39 -132.999 39c-46 0 -84.667 -7.83301 -116 -23.5s-58 -38.5 -80 -68.5l-79 45c29.333 45.333 66.666 79.833 111.999 103.5s99.666 35.5 162.999 35.5c43.333 0 83.666 -6.66699 120.999 -20
s69.666 -32.5 96.999 -57.5s48.833 -55.5 64.5 -91.5s23.5 -76.333 23.5 -121s-7.66699 -85 -23 -121s-36.833 -66.5 -64.5 -91.5s-60.334 -44.167 -98.001 -57.5s-78.5 -20 -122.5 -20c-63.333 0 -117.666 12 -162.999 36s-82.666 58.333 -111.999 103l81 47
c22.667 -30 49.5 -53.167 80.5 -69.5s69.5 -24.5 115.5 -24.5c27.333 0 52.5 3.83301 75.5 11.5s43.333 18.5 61 32.5s32.167 30.833 43.5 50.5s18.666 41.5 21.999 65.5h-273v88h270z" />
    <glyph glyph-name="afii10096" unicode="&#x44e;" horiz-adv-x="891" 
d="M153 553l0.000976562 -216h106c6 37.333 17.833 70.333 35.5 99s39.5 52.667 65.5 72s55.5 33.833 88.5 43.5s68.167 14.5 105.5 14.5c41.333 0 80.333 -6.16699 117 -18.5s68.667 -30.833 96 -55.5s48.833 -55 64.5 -91s23.5 -77.667 23.5 -125s-7.83301 -89 -23.5 -125
s-37.167 -66.333 -64.5 -91s-59.333 -43.167 -96 -55.5s-75.667 -18.5 -117 -18.5c-39.333 0 -76.333 5.5 -111 16.5s-65.334 27.333 -92.001 49s-48.5 48.667 -65.5 81s-27.167 69.833 -30.5 112.5h-102v-245h-100v553h100zM354.001 276
c0 -61.333 16.833 -110.333 50.5 -147s83.5 -55 149.5 -55s115.833 18.333 149.5 55s50.5 85.667 50.5 147s-16.833 110.333 -50.5 147s-83.5 55 -149.5 55s-115.833 -18.333 -149.5 -55s-50.5 -85.667 -50.5 -147z" />
    <glyph glyph-name="afii10097" unicode="&#x44f;" horiz-adv-x="638" 
d="M584 0h-102v130h-241l-71 -130h-112l87 154c-36 18 -63.5 42.667 -82.5 74s-28.5 68.333 -28.5 111c0 32 5.66699 61.167 17 87.5s27 48.833 47 67.5s43.667 33.167 71 43.5s57 15.5 89 15.5h326v-553zM263 460c-38 0 -68.667 -10.833 -92 -32.5s-35 -51.167 -35 -88.5
c0 -38 11.667 -66.833 35 -86.5s54 -29.5 92 -29.5h219v237h-219z" />
    <glyph glyph-name="uni0450" unicode="&#x450;" horiz-adv-x="608" 
d="M548 553v-92h-393v-133h354v-91h-354v-144h408v-93h-510v553h495zM366 627l-85 -20l-50 182l87 21z" />
    <glyph glyph-name="afii10071" unicode="&#x451;" horiz-adv-x="608" 
d="M548 553v-92h-393v-133h354v-91h-354v-144h408v-93h-510v553h495zM182 746c18.667 0 34.334 -6.33301 47.001 -19s19 -27.667 19 -45c0 -18 -6.33301 -33.5 -19 -46.5s-28.334 -19.5 -47.001 -19.5c-18 0 -33.333 6.5 -46 19.5s-19 28.5 -19 46.5
c0 17.333 6.33301 32.333 19 45s28 19 46 19zM419 746c18.667 0 34.5 -6.33301 47.5 -19s19.5 -27.667 19.5 -45c0 -18 -6.5 -33.5 -19.5 -46.5s-28.833 -19.5 -47.5 -19.5c-17.333 0 -32.5 6.5 -45.5 19.5s-19.5 28.5 -19.5 46.5c0 17.333 6.5 32.333 19.5 45
s28.167 19 45.5 19z" />
    <glyph glyph-name="afii10099" unicode="&#x452;" horiz-adv-x="777" 
d="M590 553l-0.000976562 -90.002h-239v-88h136c44 0 82 -6 114 -18s58.5 -29.167 79.5 -51.5s36.667 -49.166 47 -80.499s15.5 -66.333 15.5 -105c0 -24.667 -2.66699 -50 -8 -76s-13.333 -51.667 -24 -77s-23.5 -49.666 -38.5 -72.999s-31.833 -44.333 -50.5 -63l-71 59
c30.667 36 53.334 73.667 68.001 113s22 77 22 113c0 32 -3 58.833 -9 80.5s-16.167 39 -30.5 52s-33 22.333 -56 28s-51.5 8.5 -85.5 8.5h-109v-285h-101v463h-221v90h561z" />
    <glyph glyph-name="afii10100" unicode="&#x453;" horiz-adv-x="586" 
d="M557 553v-92h-402v-461h-102v553h504zM293 810l87 -21l-50 -182l-85 20z" />
    <glyph glyph-name="afii10101" unicode="&#x454;" horiz-adv-x="661" 
d="M415 238h-273c3.33301 -24 10.666 -45.833 21.999 -65.5s25.833 -36.5 43.5 -50.5s38 -24.833 61 -32.5s48.167 -11.5 75.5 -11.5c46 0 84.667 8.16699 116 24.5s58.333 39.5 81 69.5l80 -47c-29.333 -44.667 -66.666 -79 -111.999 -103s-99.666 -36 -162.999 -36
c-44 0 -84.833 6.66699 -122.5 20s-70.334 32.5 -98.001 57.5s-49.167 55.5 -64.5 91.5s-23 76.333 -23 121s7.83301 85 23.5 121s37.167 66.5 64.5 91.5s59.666 44.167 96.999 57.5s77.666 20 120.999 20c63.333 0 117.833 -11.833 163.5 -35.5
s82.834 -58.167 111.501 -103.5l-78 -45c-22.667 30 -49.667 52.833 -81 68.5s-70 23.5 -116 23.5c-53.333 0 -97.666 -13 -132.999 -39s-57.333 -62.333 -66 -109h270v-88z" />
    <glyph glyph-name="afii10102" unicode="&#x455;" horiz-adv-x="640" 
d="M532 415c-33.333 21.333 -67.1689 36.833 -101.502 46.5s-74.166 14.5 -119.499 14.5c-30.667 0 -56 -2 -76 -6s-35.667 -9.5 -47 -16.5s-19.333 -14.833 -24 -23.5s-7 -18 -7 -28c0 -20.667 8 -34.834 24 -42.501s37 -13.167 63 -16.5l172 -20
c57.333 -7.33301 102.333 -23.833 135 -49.5s49 -62.834 49 -111.501c0 -30 -6.83301 -56.167 -20.5 -78.5s-32.834 -40.666 -57.501 -54.999s-54.334 -25 -89.001 -32s-72.667 -10.5 -114 -10.5c-55.333 0 -105.166 6.33301 -149.499 19s-87.833 34.334 -130.5 65.001
l48 79c38.667 -26 77.334 -44.833 116.001 -56.5s82.334 -17.5 131.001 -17.5c50 0 90.5 7 121.5 21s46.5 35.333 46.5 64c0 39.333 -28.667 62 -86 68l-182 20c-54.667 6.66699 -97.834 21.5 -129.501 44.5s-47.5 59.167 -47.5 108.5c0 28 6.66699 52.5 20 73.5
s31.5 38.167 54.5 51.5s50 23.333 81 30s63.833 10 98.5 10c50 0 96.833 -5.16699 140.5 -15.5s86.834 -30.5 129.501 -60.5z" />
    <glyph glyph-name="afii10103" unicode="&#x456;" horiz-adv-x="208" 
d="M155 553v-553h-102v553h102z" />
    <glyph glyph-name="afii10104" unicode="&#x457;" horiz-adv-x="208" 
d="M155 553v-553h-102v553h102zM-14 746c18.667 0 34.334 -6.33301 47.001 -19s19 -27.667 19 -45c0 -18 -6.33301 -33.5 -19 -46.5s-28.334 -19.5 -47.001 -19.5c-18 0 -33.333 6.5 -46 19.5s-19 28.5 -19 46.5c0 17.333 6.33301 32.333 19 45s28 19 46 19zM223 746
c18.667 0 34.5 -6.33301 47.5 -19s19.5 -27.667 19.5 -45c0 -18 -6.5 -33.5 -19.5 -46.5s-28.833 -19.5 -47.5 -19.5c-17.333 0 -32.5 6.5 -45.5 19.5s-19.5 28.5 -19.5 46.5c0 17.333 6.5 32.333 19.5 45s28.167 19 45.5 19z" />
    <glyph glyph-name="afii10105" unicode="&#x458;" horiz-adv-x="597" 
d="M543 553v-313.999c0 -35.333 -5.16699 -68.333 -15.5 -99s-26.166 -57.5 -47.499 -80.5s-48.833 -41 -82.5 -54s-73.834 -19.5 -120.501 -19.5c-57.333 0 -107.5 12.5 -150.5 37.5s-76.167 60.833 -99.5 107.5l87 45c15.333 -32.667 38 -57.334 68 -74.001
s61.333 -25 94 -25c32 0 58.833 4 80.5 12s39 19.5 52 34.5s22.167 33.167 27.5 54.5s8 45 8 71v304h99z" />
    <glyph glyph-name="afii10106" unicode="&#x459;" horiz-adv-x="1058" 
d="M626 553v-133h176c32 0 61.667 -4.83301 89 -14.5s51 -23.5 71 -41.5s35.667 -39.833 47 -65.5s17 -54.5 17 -86.5s-5.66699 -61 -17 -87s-27 -48.333 -47 -67s-43.667 -33 -71 -43s-57 -15 -89 -15h-278v461h-228l-61 -324c-8.66699 -47.333 -27.167 -82 -55.5 -104
s-64.5 -33 -108.5 -33h-49v95h43c19.333 0 35 4.33301 47 13s20 22.667 24 42l75 403h415zM626 93l169 0.000976562c41.333 0 73.166 10.167 95.499 30.5s33.5 49.833 33.5 88.5c0 39.333 -11.167 68.666 -33.5 87.999s-54.166 29 -95.499 29h-169v-236z" />
    <glyph glyph-name="afii10107" unicode="&#x45a;" horiz-adv-x="1020" 
d="M155 553v-221h328v221h102v-133h176c32 0 61.667 -4.83301 89 -14.5s51 -23.5 71 -41.5s35.667 -39.833 47 -65.5s17 -54.5 17 -86.5s-5.66699 -61 -17 -87s-27 -48.333 -47 -67s-43.667 -33 -71 -43s-57 -15 -89 -15h-278v241h-328v-241h-102v553h102zM585 93
l169 0.000976562c41.333 0 73.166 10.167 95.499 30.5s33.5 49.833 33.5 88.5c0 39.333 -11.167 68.666 -33.5 87.999s-54.166 29 -95.499 29h-169v-236z" />
    <glyph glyph-name="afii10108" unicode="&#x45b;" horiz-adv-x="779" 
d="M590 553v-90.001h-239v-88h136c44 0 82 -6 114 -18s58.5 -29.167 79.5 -51.5s36.667 -49.166 47 -80.499s15.5 -66.333 15.5 -105v-120h-102v120c0 31.333 -3.16699 57.5 -9.5 78.5s-16.5 38 -30.5 51s-32.5 22.167 -55.5 27.5s-50.833 8 -83.5 8h-111v-285h-101v463
h-221v90h561z" />
    <glyph glyph-name="afii10109" unicode="&#x45c;" horiz-adv-x="647" 
d="M154 553v-214h193l146 214h117l-176 -256l190 -297h-120l-154 247h-196v-247h-101v553h101zM316 808l87 -21l-50 -182l-85 20z" />
    <glyph glyph-name="uni045D" unicode="&#x45d;" horiz-adv-x="676" 
d="M370 627l-85 -20l-49 182l86 21zM148 553v-418l368 418h101v-553h-101v416l-368 -416h-101v553h101z" />
    <glyph glyph-name="afii10110" unicode="&#x45e;" horiz-adv-x="658" 
d="M129 553l83.998 -239c4.66699 -13.333 12.334 -23.333 23.001 -30s22.667 -10 36 -10h166l92 279h102l-146 -441c-11.333 -33.333 -30.666 -60.333 -57.999 -81s-59 -31 -95 -31h-149v87h143c14 0 27.333 3.5 40 10.5s21.667 18.167 27 33.5l17 52h-145
c-38 0 -69.667 9.5 -95 28.5s-44.333 46.5 -57 82.5l-90 259h105zM490.998 684c-25.333 -28 -50.8311 -47.167 -76.498 -57.5s-53.167 -15.5 -82.5 -15.5s-56.833 5.16699 -82.5 15.5s-51.5 29.5 -77.5 57.5l52 53c15.333 -15.333 31.333 -26.833 48 -34.5
s36.667 -11.5 60 -11.5s43.166 3.83301 59.499 11.5s32.166 19.167 47.499 34.5z" />
    <glyph glyph-name="afii10193" unicode="&#x45f;" horiz-adv-x="647" 
d="M154 553v-462h338v462h101v-553h-214l-9 -114h-85l-9 114h-223v553h101z" />
    <glyph glyph-name="afii10147" unicode="&#x472;" horiz-adv-x="701" 
d="M41 277c0 43.333 8 82.833 24 118.5s38 66.167 66 91.5s60.833 44.833 98.5 58.5s77.834 20.5 120.501 20.5s82.834 -6.83301 120.501 -20.5s70.5 -33.167 98.5 -58.5s50 -55.833 66 -91.5s24 -75.167 24 -118.5c0 -44 -8 -83.833 -24 -119.5s-38 -66.167 -66 -91.5
s-60.833 -44.833 -98.5 -58.5s-77.834 -20.5 -120.501 -20.5s-82.834 6.83301 -120.501 20.5s-70.5 33.167 -98.5 58.5s-50 55.833 -66 91.5s-24 75.5 -24 119.5zM148 230c4.66699 -24.667 13.1699 -46.499 25.5029 -65.499s27.333 -35 45 -48s37.667 -23 60 -30
s46.166 -10.5 71.499 -10.5c27.333 0 53 4 77 12s45.167 19.667 63.5 35s33.333 34.166 45 56.499s18.5 47.833 20.5 76.5c-15.333 -13.333 -33.333 -22.833 -54 -28.5s-42.667 -8.5 -66 -8.5c-17.333 0 -33.333 2.33301 -48 7s-28.834 10 -42.501 16
s-27.334 11.333 -41.001 16s-27.5 7 -41.5 7c-48 0 -86.333 -11.667 -115 -35zM145.003 306.001c17.333 14 36.168 24.167 56.501 30.5s42.833 9.5 67.5 9.5c19.333 0 36.333 -2.33301 51 -7s28.5 -9.66699 41.5 -15s26 -10.333 39 -15s27.5 -7 43.5 -7
c21.333 0 40.833 2.5 58.5 7.5s33.5 13.5 47.5 25.5c-12 46 -36.167 81.333 -72.5 106s-78.833 37 -127.5 37c-26.667 0 -51.834 -3.83301 -75.501 -11.5s-44.5 -18.834 -62.5 -33.501s-32.833 -32.667 -44.5 -54s-19.167 -45.666 -22.5 -72.999z" />
    </font>
</defs>
</svg>
